<svg id="Layer_1" data-name="Layer 1" xmlns="http://www.w3.org/2000/svg" viewBox="0 0 2000 2000"><defs><style>.cls-1{fill:#1836e8;}.cls-2{fill:none;}.cls-2,.cls-3{stroke:#000;}.cls-2,.cls-3,.cls-4{stroke-miterlimit:10;stroke-width:7px;}.cls-4{stroke:#333;}</style></defs><path class="cls-1" d="M1464.46,546.85v999.3c0,151.36-119.19,274.06-266.21,274.06H802.55c-147,0-266.22-122.7-266.22-274.06V546.85"/><path class="cls-2" d="M1195.07,1820.21H804.93c-148.56,0-269-120.43-269-269V586.08c0-148.56,120.43-269,269-269h390.14c148.56,0,269,120.43,269,269v965.14a268.91,268.91,0,0,1-269,269Z"/><path class="cls-3" d="M819.44,179.79h361.92a33.34,33.34,0,0,1,33.34,33.34v104a0,0,0,0,1,0,0H786.1a0,0,0,0,1,0,0v-104A33.34,33.34,0,0,1,819.44,179.79Z"/><line class="cls-2" x1="569.31" y1="546.85" x2="684.38" y2="546.85"/><line class="cls-2" x1="569.31" y1="800.26" x2="684.38" y2="800.26"/><line class="cls-2" x1="569.31" y1="1053.67" x2="684.38" y2="1053.67"/><line class="cls-2" x1="569.31" y1="1307.08" x2="684.38" y2="1307.08"/><line class="cls-2" x1="569.31" y1="1560.49" x2="684.38" y2="1560.49"/><line class="cls-4" x1="823.87" y1="204.59" x2="823.87" y2="292.28"/><line class="cls-4" x1="851.03" y1="204.59" x2="851.03" y2="292.28"/><line class="cls-4" x1="878.19" y1="204.59" x2="878.19" y2="292.28"/><line class="cls-4" x1="905.34" y1="204.59" x2="905.34" y2="292.28"/><line class="cls-4" x1="932.5" y1="204.59" x2="932.5" y2="292.28"/><line class="cls-4" x1="959.66" y1="204.59" x2="959.66" y2="292.28"/><line class="cls-4" x1="986.82" y1="204.59" x2="986.82" y2="292.28"/><line class="cls-4" x1="1013.98" y1="204.59" x2="1013.98" y2="292.28"/><line class="cls-4" x1="1041.13" y1="204.59" x2="1041.13" y2="292.28"/><line class="cls-4" x1="1068.29" y1="204.59" x2="1068.29" y2="292.28"/><line class="cls-4" x1="1095.45" y1="204.59" x2="1095.45" y2="292.28"/><line class="cls-4" x1="1122.61" y1="204.59" x2="1122.61" y2="292.28"/><line class="cls-4" x1="1149.77" y1="204.59" x2="1149.77" y2="292.28"/><line class="cls-4" x1="1176.93" y1="204.59" x2="1176.93" y2="292.28"/></svg>