<svg id="Layer_1" data-name="Layer 1" xmlns="http://www.w3.org/2000/svg" viewBox="0 0 2000 2000"><defs><style>.cls-1{fill:#1836e8;}.cls-2{fill:none;}.cls-2,.cls-3{stroke:#000;}.cls-2,.cls-3,.cls-4{stroke-miterlimit:10;stroke-width:7px;}.cls-4{stroke:#333;}</style></defs><path class="cls-1" d="M1465.25,1549.84c0,149.32-121,270.37-270.37,270.37H807.51c-149.33,0-270.38-121-270.38-270.37"/><path class="cls-2" d="M1195.47,1820.21H805.33c-148.56,0-269-120.43-269-269V586.08c0-148.56,120.44-269,269-269h390.14c148.56,0,269,120.43,269,269v965.14a268.91,268.91,0,0,1-269,269Z"/><path class="cls-3" d="M819.83,179.79h361.92a33.34,33.34,0,0,1,33.34,33.34v104a0,0,0,0,1,0,0H786.49a0,0,0,0,1,0,0v-104A33.34,33.34,0,0,1,819.83,179.79Z"/><line class="cls-2" x1="569.7" y1="546.85" x2="684.78" y2="546.85"/><line class="cls-2" x1="569.7" y1="800.26" x2="684.78" y2="800.26"/><line class="cls-2" x1="569.7" y1="1053.67" x2="684.78" y2="1053.67"/><line class="cls-2" x1="569.7" y1="1307.08" x2="684.78" y2="1307.08"/><line class="cls-2" x1="569.7" y1="1560.49" x2="684.78" y2="1560.49"/><line class="cls-4" x1="823.47" y1="204.59" x2="823.47" y2="292.28"/><line class="cls-4" x1="850.63" y1="204.59" x2="850.63" y2="292.28"/><line class="cls-4" x1="877.79" y1="204.59" x2="877.79" y2="292.28"/><line class="cls-4" x1="904.95" y1="204.59" x2="904.95" y2="292.28"/><line class="cls-4" x1="932.1" y1="204.59" x2="932.1" y2="292.28"/><line class="cls-4" x1="959.26" y1="204.59" x2="959.26" y2="292.28"/><line class="cls-4" x1="986.42" y1="204.59" x2="986.42" y2="292.28"/><line class="cls-4" x1="1013.58" y1="204.59" x2="1013.58" y2="292.28"/><line class="cls-4" x1="1040.74" y1="204.59" x2="1040.74" y2="292.28"/><line class="cls-4" x1="1067.9" y1="204.59" x2="1067.9" y2="292.28"/><line class="cls-4" x1="1095.05" y1="204.59" x2="1095.05" y2="292.28"/><line class="cls-4" x1="1122.21" y1="204.59" x2="1122.21" y2="292.28"/><line class="cls-4" x1="1149.37" y1="204.59" x2="1149.37" y2="292.28"/><line class="cls-4" x1="1176.53" y1="204.59" x2="1176.53" y2="292.28"/></svg>