<svg id="Layer_1" data-name="Layer 1" xmlns="http://www.w3.org/2000/svg" viewBox="0 0 2000 2000"><defs><style>.cls-1{fill:#ead288;}.cls-2{fill:#5eaf10;}.cls-3{fill:#ffe52c;}.cls-4{fill:#db0000;}.cls-5{fill:#ffebb3;}</style></defs><path class="cls-1" d="M279,1261.11H1780a1.68,1.68,0,0,1,1.68,1.68v161a118,118,0,0,1-118,118H395.31a118,118,0,0,1-118-118v-161a1.68,1.68,0,0,1,1.68-1.68Z"/><path class="cls-2" d="M1767.94,1246.27c-38.57-4.9-79.13-14.93-109.3-40.86-15.6-13.41-25.81-30.1-31.75-48.37a76.1,76.1,0,0,0-27,12.14,100.56,100.56,0,0,0-110.15,5.15c-15.71-26.28-43-43.75-73.83-43.75a83.38,83.38,0,0,0-57.36,23.29c-14.5-14.64-33.11-23.29-53.55-23.29-23.65,0-45.16,11.81-60.26,31.11a87.91,87.91,0,0,0-9.91,15,111.28,111.28,0,0,0-6.87-20c-12.66-27.29-34.63-45.42-59.65-45.42-33.41,0-61.32,32.11-68.8,75.7-15.1-26.29-41.8-43.76-72.31-43.76-26.7,0-50.49,13.48-66.21,34.61-14.49-39.6-43.93-66.55-77.65-66.55-27.91,0-52.78,18.46-68.65,47.08-16.47-17.3-38.74-27.78-63.46-27.78-34.17,0-63.92,20.29-79.63,50.41-16.63-16.14-38.44-25.79-62.39-25.79-34.94,0-65.45,20.63-81.62,51.41a119.87,119.87,0,0,0-98.86-51.41A118.61,118.61,0,0,0,375,1167.84a74.36,74.36,0,0,0-41.65-12.64c-44.55,0-80.85,39.43-80.85,88.18,0,45.92,32.49,83.69,73.68,87.51,20.75,34.28,58.88,57.07,102.51,57.07,47,0,87.57-26.62,106.94-65.22,17.24,23.46,43.79,38.43,73.54,38.43,35.69,0,66.81-21.63,82.83-53.57,16,14.81,36.61,23.79,59.19,23.79,23.5,0,45-9.65,61.18-25.62C828.24,1336.88,854,1357,883.31,1357c33,0,61.79-25.78,76.74-63.72,15.56,22,39.81,35.94,67.12,35.94,38.14,0,70.48-27.29,81.31-65a93.44,93.44,0,0,0,17.09,25.78c12.66,39.1,47,66.89,87,66.89,25.94,0,49.43-11.65,66.36-30.45a72.43,72.43,0,0,0,26.09,5c22.73,0,43-10.81,58.12-28.28a81.58,81.58,0,0,0,52.79,19.46c23,0,43.93-9.65,59.64-25.62,17.24,19.63,43.63,32.28,73.23,32.28a99.72,99.72,0,0,0,51.11-14,74.69,74.69,0,0,0,43.32,14,69.71,69.71,0,0,0,19.68-2.83c15.26,18.8,36.46,30.61,60.11,30.61,46.22,0,83.6-45.08,83.6-100.82,0-2.25-.07-4.49-.19-6.71C1793.53,1248.89,1780.7,1247.89,1767.94,1246.27Z"/><path class="cls-2" d="M1271.89,1218.33a81.09,81.09,0,0,0-9.92,13.73,97.35,97.35,0,0,0-6.86-18.31A78.51,78.51,0,0,1,1271.89,1218.33Z"/><circle class="cls-2" cx="1123.84" cy="1275.42" r="52.51"/><path class="cls-3" d="M1458,1081.21,890.21,1609.33a30.38,30.38,0,0,1-49.31-12.06l-206-579.15a30.37,30.37,0,0,1,30.62-40.49l773.74,51C1465.87,1030.41,1477.48,1063.08,1458,1081.21Z"/><path class="cls-4" d="M1658.64,1205.41c-31.33-26.93-40.94-67.06-37.84-106.77H325a28.62,28.62,0,0,0-28.62,28.62v56.49A28.62,28.62,0,0,0,325,1212.37H1667.5Q1662.94,1209.1,1658.64,1205.41Z"/><path class="cls-1" d="M1621,1096.68a113.59,113.59,0,0,1-40.47-11.47,106,106,0,0,1-51.67-57.56c-9.11-24.68-7.2-51.41,2.82-75.31-18.17-2.6-36.24-6.14-53.73-11.78-28.14-9.08-56.49-24.27-71.37-51-16.6-29.79-12.17-65.41-2.27-96.75-21.93-4-44.07-10.46-62.58-23.15a96.16,96.16,0,0,1-36.11-46.9c-7.29-20-8.38-41.53-7.18-62.58.31-5.29.76-10.6,1.35-15.89H542.84c-146.63,0-265.49,118.86-265.49,265.49v158.1a30.71,30.71,0,0,0,30.71,30.72H1620.8Z"/><path class="cls-5" d="M602.65,644.33h19a43.8,43.8,0,0,1,43.8,43.8V899.72a2.87,2.87,0,0,1-2.87,2.87H561.72a2.87,2.87,0,0,1-2.87-2.87V688.13a43.8,43.8,0,0,1,43.8-43.8Z" transform="translate(1224.25 1546.92) rotate(180)"/><path class="cls-5" d="M874.63,644.33h19a43.8,43.8,0,0,1,43.8,43.8V899.72a2.87,2.87,0,0,1-2.87,2.87H833.7a2.87,2.87,0,0,1-2.87-2.87V688.13a43.8,43.8,0,0,1,43.8-43.8Z" transform="translate(1768.2 1546.92) rotate(180)"/><path class="cls-5" d="M1146.6,644.33h19a43.8,43.8,0,0,1,43.8,43.8V899.72a2.87,2.87,0,0,1-2.87,2.87H1105.67a2.87,2.87,0,0,1-2.87-2.87V688.13a43.8,43.8,0,0,1,43.8-43.8Z" transform="translate(2312.16 1546.92) rotate(180)"/><path class="cls-5" d="M1406.53,889.6c-16.6-29.79-12.17-65.41-2.27-96.75a225.79,225.79,0,0,1-29.48-7.3v73.24a43.8,43.8,0,0,0,40.64,43.67A83,83,0,0,1,1406.53,889.6Z"/></svg>