<svg xmlns="http://www.w3.org/2000/svg" viewBox="0 0 1554.06 973.15"><defs><style>.cls-1{fill:#ead288;}.cls-2{fill:#5eaf10;}.cls-3{fill:#ffe52c;}.cls-4{fill:#db0000;}.cls-5{fill:#ffebb3;}</style></defs><g id="Layer_2" data-name="Layer 2"><g id="Layer_1-2" data-name="Layer 1"><path class="cls-1" d="M26.52,616.78h1501a1.68,1.68,0,0,1,1.68,1.68v161a118,118,0,0,1-118,118H142.8a118,118,0,0,1-118-118v-161a1.68,1.68,0,0,1,1.68-1.68Z"/><path class="cls-2" d="M1515.44,601.94c-38.58-4.9-79.14-14.93-109.3-40.86-15.61-13.41-25.81-30.1-31.76-48.37a76.1,76.1,0,0,0-27,12.14A100.54,100.54,0,0,0,1237.21,530c-15.72-26.28-43-43.75-73.84-43.75A83.47,83.47,0,0,0,1106,509.54c-14.49-14.64-33.1-23.29-53.55-23.29-23.64,0-45.15,11.81-60.25,31.11a88,88,0,0,0-9.92,15,112.05,112.05,0,0,0-6.86-20C962.76,485.08,940.8,467,915.78,467c-33.41,0-61.33,32.11-68.8,75.7-15.11-26.29-41.8-43.76-72.31-43.76-26.7,0-50.5,13.48-66.21,34.61C694,493.9,664.52,467,630.81,467,602.89,467,578,485.42,562.16,514c-16.48-17.3-38.75-27.78-63.46-27.78-34.18,0-63.92,20.3-79.64,50.41-16.62-16.14-38.44-25.79-62.39-25.79-34.93,0-65.45,20.63-81.62,51.41a119.84,119.84,0,0,0-98.85-51.41,118.5,118.5,0,0,0-53.7,12.65,74.24,74.24,0,0,0-41.65-12.65C36.31,510.87,0,550.3,0,599.05,0,645,32.49,682.74,73.68,686.56c20.75,34.28,58.89,57.07,102.52,57.07,47,0,87.56-26.62,106.94-65.22,17.24,23.46,43.78,38.43,73.53,38.43,35.7,0,66.82-21.62,82.84-53.57,16,14.81,36.61,23.79,59.19,23.79,23.49,0,45-9.65,61.17-25.62,15.87,31.11,41.65,51.25,70.94,51.25,33,0,61.78-25.79,76.73-63.73,15.56,22,39.82,35.94,67.13,35.94,38.13,0,70.48-27.29,81.31-65a93.4,93.4,0,0,0,17.08,25.79c12.66,39.09,47,66.88,87,66.88,25.93,0,49.42-11.65,66.36-30.45a72.38,72.38,0,0,0,26.08,5c22.74,0,43-10.81,58.13-28.28a81.55,81.55,0,0,0,52.78,19.47c23,0,43.94-9.65,59.65-25.63,17.24,19.64,43.63,32.28,73.22,32.28a99.7,99.7,0,0,0,51.11-14,74.72,74.72,0,0,0,43.33,14,69.82,69.82,0,0,0,19.68-2.83c15.25,18.8,36.46,30.62,60.1,30.62,46.22,0,83.6-45.09,83.6-100.83,0-2.25-.07-4.49-.19-6.7C1541,604.56,1528.2,603.56,1515.44,601.94Z"/><path class="cls-2" d="M1019.38,574a81,81,0,0,0-9.91,13.73,96.69,96.69,0,0,0-6.87-18.31A78.51,78.51,0,0,1,1019.38,574Z"/><circle class="cls-2" cx="871.33" cy="631.09" r="52.51"/><path class="cls-3" d="M1205.48,436.88,637.7,965a30.37,30.37,0,0,1-49.3-12.06l-206-579.15a30.38,30.38,0,0,1,30.62-40.49l773.74,51C1213.36,386.09,1225,418.75,1205.48,436.88Z"/><path class="cls-4" d="M1406.14,561.08c-31.34-26.93-40.94-67.06-37.85-106.77H72.46a28.62,28.62,0,0,0-28.63,28.62v56.49A28.62,28.62,0,0,0,72.46,568H1415Q1410.44,564.77,1406.14,561.08Z"/><path class="cls-1" d="M1368.45,452.35A113.7,113.7,0,0,1,1328,440.88a106.05,106.05,0,0,1-51.67-57.56c-9.1-24.68-7.19-51.4,2.82-75.31-18.17-2.6-36.24-6.13-53.73-11.78-28.13-9.08-56.49-24.27-71.36-51-16.6-29.79-12.18-65.41-2.28-96.74-21.92-4.05-44.06-10.47-62.57-23.16a96.18,96.18,0,0,1-36.12-46.9c-7.29-20-8.37-41.52-7.17-62.58.3-5.29.75-10.6,1.34-15.89H290.33C143.71,0,24.85,118.86,24.85,265.49V423.6a30.71,30.71,0,0,0,30.71,30.71H1368.29C1368.35,453.66,1368.39,453,1368.45,452.35Z"/><path class="cls-5" d="M350.14,0h19a43.8,43.8,0,0,1,43.8,43.8V255.39a2.87,2.87,0,0,1-2.87,2.87H309.21a2.87,2.87,0,0,1-2.87-2.87V43.8A43.8,43.8,0,0,1,350.14,0Z" transform="translate(719.23 258.26) rotate(180)"/><path class="cls-5" d="M622.12,0h19a43.8,43.8,0,0,1,43.8,43.8V255.39a2.87,2.87,0,0,1-2.87,2.87H581.19a2.87,2.87,0,0,1-2.87-2.87V43.8A43.8,43.8,0,0,1,622.12,0Z" transform="translate(1263.19 258.26) rotate(180)"/><path class="cls-5" d="M894.1,0h19a43.8,43.8,0,0,1,43.8,43.8V255.39a2.87,2.87,0,0,1-2.87,2.87H853.17a2.87,2.87,0,0,1-2.87-2.87V43.8A43.8,43.8,0,0,1,894.1,0Z" transform="translate(1807.15 258.26) rotate(180)"/><path class="cls-5" d="M1154,245.27c-16.6-29.79-12.18-65.41-2.28-96.74a228.49,228.49,0,0,1-29.47-7.3v73.23a43.79,43.79,0,0,0,40.63,43.67A83.13,83.13,0,0,1,1154,245.27Z"/></g></g></svg>