<svg id="Layer_1" data-name="Layer 1" xmlns="http://www.w3.org/2000/svg" viewBox="0 0 2000 2000"><defs><style>.cls-1{fill:#ead288;}.cls-2{fill:#5eaf10;}.cls-3{fill:#ffe52c;}.cls-4{fill:#db0000;}.cls-5{fill:#ffebb3;}</style></defs><path class="cls-1" d="M1394.18,1483.06c-9.2-18.31-10-38.34-6.89-58.12-16.83,1.56-33.28-8.43-45.77-19-13.13-11.13-24.48-25-31-41.08-8.06-19.95-8.58-42.46-6.9-63.64.82-10.37,1.89-20.84,4.74-30.89a168.26,168.26,0,0,1,11.65-28.85H249.49a1.68,1.68,0,0,0-1.67,1.68v161a118,118,0,0,0,118,118H1427C1414.09,1510.86,1401.87,1498.38,1394.18,1483.06Z"/><path class="cls-2" d="M1303.65,1301.22c.82-10.37,1.89-20.84,4.74-30.89,3-10.49,7.46-20.52,12.34-30.24,8.51-16.95,18.78-33.35,24.11-51.64-24.8-4.63-48.44-15.11-67.64-31.66-12.72-11-23.42-24.5-29.76-40.06a82.48,82.48,0,0,0-32.26,25.33,88,88,0,0,0-9.92,15,112.33,112.33,0,0,0-6.86-20c-12.67-27.29-34.63-45.42-59.65-45.42-33.41,0-61.33,32.11-68.8,75.7-15.11-26.29-41.8-43.76-72.32-43.76-26.69,0-50.49,13.48-66.2,34.61-14.5-39.6-43.94-66.55-77.65-66.55-27.92,0-52.79,18.47-68.65,47.08-16.48-17.3-38.75-27.78-63.46-27.78-34.18,0-63.92,20.3-79.64,50.41-16.62-16.14-38.44-25.79-62.39-25.79-34.93,0-65.45,20.63-81.62,51.41a119.86,119.86,0,0,0-98.85-51.41,118.5,118.5,0,0,0-53.7,12.65,74.24,74.24,0,0,0-41.65-12.65c-44.54,0-80.85,39.43-80.85,88.18,0,45.92,32.49,83.69,73.68,87.52,20.75,34.27,58.89,57.06,102.52,57.06,47,0,87.56-26.62,106.94-65.22,17.24,23.46,43.78,38.44,73.53,38.44,35.7,0,66.82-21.63,82.84-53.58,16,14.81,36.61,23.79,59.19,23.79,23.49,0,45-9.64,61.17-25.62,15.87,31.12,41.65,51.25,70.94,51.25,33,0,61.78-25.79,76.73-63.73,15.56,22,39.82,35.94,67.12,35.94,38.14,0,70.49-27.28,81.32-65a93.4,93.4,0,0,0,17.08,25.79c12.66,39.1,47,66.88,87,66.88,25.93,0,49.43-11.65,66.36-30.45a72.38,72.38,0,0,0,26.08,5,70.78,70.78,0,0,0,27.88-5.72C1303.41,1304.43,1303.52,1302.82,1303.65,1301.22Z"/><path class="cls-2" d="M1242.35,1198.7a81,81,0,0,0-9.91,13.73,96.33,96.33,0,0,0-6.87-18.3A77.91,77.91,0,0,1,1242.35,1198.7Z"/><circle class="cls-2" cx="1094.3" cy="1255.79" r="52.51"/><path class="cls-3" d="M1277.2,1156.79c-14.39-12.4-26.2-28.09-32-46.28a121.71,121.71,0,0,1-4.51-50.86c2.57-21.89,11.29-45.32,27.68-59.94L636,958a30.38,30.38,0,0,0-30.62,40.49l206,579.15a30.37,30.37,0,0,0,49.3,12.06l445.19-414.08A134.49,134.49,0,0,1,1277.2,1156.79Z"/><path class="cls-4" d="M1344.84,1188.45c-24.8-4.63-48.44-15.11-67.64-31.66-14.39-12.4-26.2-28.09-32-46.28a116.34,116.34,0,0,1-5.32-31.5H295.43a28.63,28.63,0,0,0-28.63,28.63v56.48a28.63,28.63,0,0,0,28.63,28.63H1343.48C1344,1191.32,1344.42,1189.9,1344.84,1188.45Z"/><path class="cls-1" d="M1240.66,1059.65c3.15-26.79,15.5-55.89,39.86-68.33-16.38-5.09-32.27-12.14-44.75-24.07-11.17-10.68-17.86-23.61-19.27-38.86a195.44,195.44,0,0,1,1.15-42c1.62-12.93,5.49-40.51,18.36-51.31-18-7.53-35.83-16.18-50.19-29.6-15-14.07-24.06-32.57-26.93-52.83-2.65-18.76-1.91-37.84,1-56.53,3.71-23.79,12-51.71,28.35-71.41H513.3c-146.62,0-265.48,118.86-265.48,265.49V1048.3A30.71,30.71,0,0,0,278.53,1079h961.32A128.71,128.71,0,0,1,1240.66,1059.65Z"/><path class="cls-5" d="M573.11,624.7h19a43.8,43.8,0,0,1,43.8,43.8V880.09A2.87,2.87,0,0,1,633,883H532.18a2.87,2.87,0,0,1-2.87-2.87V668.5a43.8,43.8,0,0,1,43.8-43.8Z" transform="translate(1165.17 1507.66) rotate(180)"/><path class="cls-5" d="M845.09,624.7h19a43.8,43.8,0,0,1,43.8,43.8V880.09A2.87,2.87,0,0,1,905,883H804.16a2.87,2.87,0,0,1-2.87-2.87V668.5A43.8,43.8,0,0,1,845.09,624.7Z" transform="translate(1709.13 1507.66) rotate(180)"/><path class="cls-5" d="M1158.89,752.64c-2.65-18.76-1.91-37.84,1-56.53,3-19.3,9-41.32,19.92-59.46v-9.08a2.87,2.87,0,0,0-2.87-2.87H1076.14a2.87,2.87,0,0,0-2.87,2.87V839.16a43.8,43.8,0,0,0,43.8,43.8h19a43.8,43.8,0,0,0,43.8-43.8V799.24A89.29,89.29,0,0,1,1158.89,752.64Z"/></svg>