<svg xmlns="http://www.w3.org/2000/svg" viewBox="0 0 1204.06 973.15"><defs><style>.cls-1{fill:#ead288;}.cls-2{fill:#5eaf10;}.cls-3{fill:#ffe52c;}.cls-4{fill:#db0000;}.cls-5{fill:#ffebb3;}</style></defs><g id="Layer_2" data-name="Layer 2"><g id="Layer_1-2" data-name="Layer 1"><path class="cls-1" d="M1171.21,858.36c-9.2-18.31-10-38.34-6.89-58.12-16.83,1.56-33.28-8.43-45.77-19-13.13-11.13-24.48-25-31-41.08-8.06-20-8.58-42.46-6.9-63.64.82-10.38,1.89-20.85,4.74-30.89a168.26,168.26,0,0,1,11.65-28.85H26.52a1.68,1.68,0,0,0-1.67,1.68v161a118,118,0,0,0,118,118H1204.06C1191.12,886.16,1178.9,873.68,1171.21,858.36Z"/><path class="cls-2" d="M1080.68,676.52c.82-10.38,1.89-20.85,4.74-30.89,3-10.49,7.46-20.52,12.34-30.24,8.51-16.95,18.78-33.35,24.11-51.64-24.8-4.64-48.44-15.11-67.64-31.66-12.72-11-23.42-24.5-29.76-40.06a82.48,82.48,0,0,0-32.26,25.33,88,88,0,0,0-9.92,15,112.05,112.05,0,0,0-6.86-20C962.76,485.08,940.8,467,915.78,467c-33.41,0-61.33,32.11-68.8,75.7-15.11-26.29-41.8-43.76-72.31-43.76-26.7,0-50.5,13.48-66.21,34.61C694,493.9,664.52,467,630.81,467,602.89,467,578,485.42,562.16,514c-16.48-17.3-38.75-27.78-63.46-27.78-34.18,0-63.92,20.3-79.64,50.41-16.62-16.14-38.44-25.79-62.39-25.79-34.93,0-65.45,20.63-81.62,51.41a119.84,119.84,0,0,0-98.85-51.41,118.5,118.5,0,0,0-53.7,12.65,74.24,74.24,0,0,0-41.65-12.65C36.31,510.87,0,550.3,0,599.05,0,645,32.49,682.74,73.68,686.56c20.75,34.28,58.89,57.07,102.52,57.07,47,0,87.56-26.62,106.94-65.22,17.24,23.46,43.78,38.43,73.53,38.43,35.7,0,66.82-21.62,82.84-53.57,16,14.81,36.61,23.79,59.19,23.79,23.49,0,45-9.65,61.17-25.62,15.87,31.11,41.65,51.25,70.94,51.25,33,0,61.78-25.79,76.73-63.73,15.56,22,39.82,35.94,67.13,35.94,38.13,0,70.48-27.29,81.31-65a93.4,93.4,0,0,0,17.08,25.79c12.66,39.09,47,66.88,87,66.88,25.93,0,49.43-11.65,66.36-30.45a72.38,72.38,0,0,0,26.08,5,70.78,70.78,0,0,0,27.88-5.72C1080.44,679.73,1080.55,678.12,1080.68,676.52Z"/><path class="cls-2" d="M1019.38,574a81,81,0,0,0-9.91,13.73,96.69,96.69,0,0,0-6.87-18.31A78.51,78.51,0,0,1,1019.38,574Z"/><circle class="cls-2" cx="871.33" cy="631.09" r="52.51"/><path class="cls-3" d="M1054.23,532.09c-14.39-12.4-26.2-28.09-32-46.28a121.88,121.88,0,0,1-4.51-50.86c2.57-21.89,11.29-45.32,27.68-59.94L413.05,333.3a30.38,30.38,0,0,0-30.62,40.49l206,579.15A30.37,30.37,0,0,0,637.7,965l445.19-414.09A134.06,134.06,0,0,1,1054.23,532.09Z"/><path class="cls-4" d="M1121.87,563.75c-24.8-4.64-48.44-15.11-67.64-31.66-14.39-12.4-26.2-28.09-32-46.28a116.34,116.34,0,0,1-5.32-31.5H72.46a28.62,28.62,0,0,0-28.63,28.62v56.49A28.62,28.62,0,0,0,72.46,568H1120.51C1121,566.62,1121.45,565.19,1121.87,563.75Z"/><path class="cls-1" d="M1017.69,435c3.15-26.79,15.5-55.89,39.86-68.33-16.38-5.09-32.27-12.14-44.75-24.07-11.17-10.68-17.86-23.61-19.27-38.86a195.44,195.44,0,0,1,1.15-42c1.62-12.93,5.49-40.51,18.36-51.31-18-7.53-35.83-16.18-50.19-29.61-15-14.06-24.06-32.56-26.93-52.82-2.65-18.76-1.91-37.84,1-56.53,3.71-23.79,12-51.71,28.35-71.41H290.33C143.71,0,24.85,118.86,24.85,265.49V423.6a30.71,30.71,0,0,0,30.71,30.71h961.32A128.71,128.71,0,0,1,1017.69,435Z"/><path class="cls-5" d="M350.14,0h19a43.8,43.8,0,0,1,43.8,43.8V255.39a2.87,2.87,0,0,1-2.87,2.87H309.21a2.87,2.87,0,0,1-2.87-2.87V43.8A43.8,43.8,0,0,1,350.14,0Z" transform="translate(719.23 258.26) rotate(180)"/><path class="cls-5" d="M622.12,0h19a43.8,43.8,0,0,1,43.8,43.8V255.39a2.87,2.87,0,0,1-2.87,2.87H581.19a2.87,2.87,0,0,1-2.87-2.87V43.8A43.8,43.8,0,0,1,622.12,0Z" transform="translate(1263.19 258.26) rotate(180)"/><path class="cls-5" d="M935.92,127.94c-2.65-18.76-1.91-37.84,1-56.53,3-19.3,9-41.32,19.92-59.47V2.87A2.87,2.87,0,0,0,954,0H853.17a2.87,2.87,0,0,0-2.87,2.87V214.46a43.8,43.8,0,0,0,43.8,43.8h18.95a43.8,43.8,0,0,0,43.8-43.8V174.53A89.23,89.23,0,0,1,935.92,127.94Z"/></g></g></svg>