<svg id="Layer_1" data-name="Layer 1" xmlns="http://www.w3.org/2000/svg" viewBox="0 0 2000 2000"><defs><style>.cls-1{fill:#ead288;}.cls-2{fill:#5eaf10;}.cls-3{fill:#ffe52c;}.cls-4{fill:#db0000;}.cls-5{fill:#ffebb3;}</style></defs><path class="cls-1" d="M970.87,1376c-1.87-8.2-4.92-17.26-4.13-25.69.84-9,3.13-17.79,5.25-26.53,2.07-8.54,4.65-17.41,4.64-26.26,0-7.89-5.55-11.57-12.9-12.58s-14.88-.25-21.56-3.75c-5.91-3.11-10.29-9.92-14.26-15.13A192.57,192.57,0,0,1,905,1226.26c-12.5-28.6-21-62.82-20.69-96H342a1.68,1.68,0,0,0-1.68,1.68v161a118,118,0,0,0,118,117.95H981.58C976.81,1399.65,973.56,1387.74,970.87,1376Z"/><path class="cls-2" d="M917,1039.55a93.42,93.42,0,0,1-29.11-23q-.93-1.1-1.83-2.22a119.11,119.11,0,0,0-8.47,13.17c-16.47-17.31-38.75-27.79-63.46-27.79-34.17,0-63.92,20.3-79.63,50.41-16.63-16.13-38.45-25.78-62.4-25.78-34.93,0-65.44,20.63-81.61,51.41a119.87,119.87,0,0,0-98.86-51.41,118.65,118.65,0,0,0-53.7,12.64,74.31,74.31,0,0,0-41.64-12.64c-44.55,0-80.86,39.43-80.86,88.18,0,45.92,32.5,83.68,73.69,87.51,20.74,34.27,58.88,57.07,102.51,57.07,47,0,87.57-26.62,106.94-65.22,17.24,23.46,43.78,38.43,73.53,38.43,35.7,0,66.82-21.63,82.84-53.57,16,14.8,36.61,23.79,59.19,23.79,23.49,0,45-9.65,61.17-25.62a112.34,112.34,0,0,0,21.32,29.51C878.54,1149.82,876.52,1082.82,917,1039.55Z"/><path class="cls-3" d="M991.12,1428.74c-10.55-15.8-16.06-34.45-20.25-52.79-1.87-8.2-4.92-17.26-4.13-25.69.84-9,3.13-17.79,5.25-26.53,2.07-8.54,4.65-17.41,4.64-26.26,0-7.89-5.55-11.57-12.9-12.58s-14.88-.25-21.56-3.75c-5.91-3.11-10.29-9.92-14.26-15.13A192.57,192.57,0,0,1,905,1226.26c-25.08-57.4-34.09-137.44,12-186.71a93.42,93.42,0,0,1-29.11-23c-33.11-38.87-42.77-105.56-3.34-142.66a57.5,57.5,0,0,1-18.78-18.07l-137.29-9a30.37,30.37,0,0,0-30.62,40.48l206,579.15a30.38,30.38,0,0,0,49.31,12.07l44.38-41.29A86.39,86.39,0,0,1,991.12,1428.74Z"/><path class="cls-4" d="M917,1039.55a93.42,93.42,0,0,1-29.11-23,124.83,124.83,0,0,1-25.1-48.78H387.89a28.63,28.63,0,0,0-28.63,28.63v56.48a28.63,28.63,0,0,0,28.63,28.63H892.14A115.21,115.21,0,0,1,917,1039.55Z"/><path class="cls-1" d="M884.55,873.85c-10.47-6.16-18.44-15.57-23.65-26.82-13-28-11.82-61.81-4.85-91.24,5.75-24.28,17.06-52.07,38.18-67.22a90.33,90.33,0,0,1-26.76-42.05c-10.33-34.76-2.69-73.18,8.63-106.7q4.51-13.35,10-26.39H605.77c-146.63,0-265.49,118.86-265.49,265.48V937A30.71,30.71,0,0,0,371,967.73h491.8C854.06,934.43,859,897.91,884.55,873.85Z"/><path class="cls-5" d="M665.57,513.43h19a43.8,43.8,0,0,1,43.8,43.8V768.81a2.87,2.87,0,0,1-2.87,2.87H624.64a2.87,2.87,0,0,1-2.87-2.87V557.23a43.8,43.8,0,0,1,43.8-43.8Z" transform="translate(1350.1 1285.11) rotate(180)"/></svg>