<svg id="Layer_1" data-name="Layer 1" xmlns="http://www.w3.org/2000/svg" viewBox="0 0 2000 2000"><defs><style>.cls-1{fill:#ead288;}</style></defs><path class="cls-1" d="M436.4,1360.65a7.32,7.32,0,0,0-.53-7.2,5.18,5.18,0,0,0-2.49-1.79,5.06,5.06,0,0,0-.77-.18,5.88,5.88,0,0,0-1.29-3.46,11.91,11.91,0,0,0-2.84-2c-1.6-.14-2.75,1.08-3.61,2.76a4,4,0,0,0-2.91.31,5.89,5.89,0,0,0-4.38,2.92,11.72,11.72,0,0,1-1.25,2.18,9.52,9.52,0,0,0-1.74,1.92,15.37,15.37,0,0,0-1.63,5.76c-.25,2.16-.37,4.65,1.06,6a2.62,2.62,0,0,0,.61.43c0,.16,0,.31,0,.42v.06c-.06.81-.26,1.58-.36,2.38-.25,2-.23,4.32.82,5.92,1.2,1.83,3.16,1.64,4.73,1.27a9.62,9.62,0,0,0,4.37-2.69c1-1,2.09-2.38,3.39-2.45,1.58-.09,3.1.68,4.67,0a5.32,5.32,0,0,0,2.82-3.63,5.88,5.88,0,0,0,.71-.23,2.25,2.25,0,0,0,1.21-1.79A17,17,0,0,0,436.4,1360.65Z"/><path class="cls-1" d="M495.74,1332.28c1.91-4.26,2-9.6-1-13.27a10.11,10.11,0,0,0-4.82-3.3,13.08,13.08,0,0,0-1.51-.32,10.39,10.39,0,0,0-2.51-6.37,20.92,20.92,0,0,0-5.51-3.71c-3.1-.28-5.35,2-7,5.06a8.14,8.14,0,0,0-5.66.59,11.49,11.49,0,0,0-8.5,5.36c-.84,1.31-1.39,3-2.43,4a17.21,17.21,0,0,0-3.37,3.53c-1.85,3-2.69,6.79-3.17,10.6-.5,4-.74,8.57,2.06,11.09a4.48,4.48,0,0,0,1.18.8c0,.29.05.57.05.77v.11c-.1,1.49-.51,2.91-.69,4.37-.48,3.77-.45,8,1.59,10.91,2.33,3.37,6.14,3,9.19,2.34a18.71,18.71,0,0,0,8.49-5c2-1.89,4.06-4.38,6.59-4.51,3.06-.15,6,1.27,9.07.09,2.68-1,4.51-3.56,5.49-6.68a10.36,10.36,0,0,0,1.37-.42,4.21,4.21,0,0,0,2.37-3.29A29.85,29.85,0,0,0,495.74,1332.28Z"/><path class="cls-1" d="M429.85,1315.78c1.65-3.89,1.71-8.77-.9-12.12a8.81,8.81,0,0,0-4.18-3,11.78,11.78,0,0,0-1.31-.29,9.84,9.84,0,0,0-2.18-5.83,5.1,5.1,0,0,0-1.08-1,5.22,5.22,0,0,0-3.7-2.41c-2.68-.25-4.63,1.81-6.08,4.63a6.75,6.75,0,0,0-4.91.53,10,10,0,0,0-7.37,4.91c-.73,1.19-1.2,2.78-2.1,3.68a15.55,15.55,0,0,0-2.93,3.23,25.42,25.42,0,0,0-2.75,9.69c-.43,3.64-.63,7.83,1.79,10.13a4.18,4.18,0,0,0,1,.74c0,.26,0,.52,0,.7s0,.07,0,.1c-.09,1.36-.44,2.66-.6,4-.42,3.44-.39,7.28,1.37,10,2,3.08,5.33,2.77,8,2.14a16.06,16.06,0,0,0,7.35-4.54c1.74-1.73,3.52-4,5.72-4.12,2.65-.14,5.22,1.16,7.87.08,2.32-.94,3.9-3.25,4.76-6.1a9.59,9.59,0,0,0,1.18-.39,3.8,3.8,0,0,0,2-3A28.73,28.73,0,0,0,429.85,1315.78Z"/><path class="cls-1" d="M312.91,1361.33a3.17,3.17,0,0,0-.45-4.23,4.89,4.89,0,0,0-2.14-1c-.22,0-.44-.07-.66-.1a2.89,2.89,0,0,0-1.12-2,2.16,2.16,0,0,0-.55-.34,2.92,2.92,0,0,0-1.88-.84,3.52,3.52,0,0,0-3.11,1.61,4.8,4.8,0,0,0-2.5.19,5.54,5.54,0,0,0-3.76,1.71,7.4,7.4,0,0,1-1.08,1.28,7.36,7.36,0,0,0-1.49,1.12,6.89,6.89,0,0,0-1.4,3.38c-.22,1.27-.33,2.73.91,3.53a2.3,2.3,0,0,0,.52.26,2.5,2.5,0,0,1,0,.25v0c0,.47-.22.93-.3,1.39a3.9,3.9,0,0,0,.7,3.48c1,1.07,2.72,1,4.07.74a9.29,9.29,0,0,0,3.75-1.58,6,6,0,0,1,2.92-1.43c1.35,0,2.66.4,4,0a3.7,3.7,0,0,0,2.43-2.13,6,6,0,0,0,.61-.14,1.46,1.46,0,0,0,1-1A6.92,6.92,0,0,0,312.91,1361.33Z"/><path class="cls-1" d="M464.24,1384.56a1.75,1.75,0,0,0-.45-2.93,6,6,0,0,0-2.14-.73l-.66-.07a2,2,0,0,0-1.12-1.41,3,3,0,0,0-.55-.24,3.67,3.67,0,0,0-1.88-.58,4.14,4.14,0,0,0-3.11,1.12,6.94,6.94,0,0,0-2.5.13,6.85,6.85,0,0,0-3.76,1.19,6.32,6.32,0,0,1-1.08.89,7.26,7.26,0,0,0-1.49.78,4.13,4.13,0,0,0-1.4,2.34c-.22.88-.33,1.89.91,2.45a3.2,3.2,0,0,0,.52.18,1.28,1.28,0,0,1,0,.17v0a8.35,8.35,0,0,1-.3,1,2.09,2.09,0,0,0,.7,2.41c1,.75,2.72.67,4.07.52a12,12,0,0,0,3.75-1.1,7.24,7.24,0,0,1,2.92-1,23.35,23.35,0,0,0,4,0,3.52,3.52,0,0,0,2.43-1.47l.61-.1c.46-.08,1-.37,1-.72A3.51,3.51,0,0,0,464.24,1384.56Z"/><path class="cls-1" d="M373.57,1344.46c1.42-2.17,1.47-4.88-.76-6.73a8.22,8.22,0,0,0-3.58-1.68,10.23,10.23,0,0,0-1.11-.16,4.6,4.6,0,0,0-1.86-3.24,5,5,0,0,0-.93-.54,5.08,5.08,0,0,0-3.16-1.34,6,6,0,0,0-5.2,2.57,8.57,8.57,0,0,0-4.19.3,9.58,9.58,0,0,0-6.31,2.72,10.92,10.92,0,0,1-1.79,2,11.44,11.44,0,0,0-2.5,1.8,10.68,10.68,0,0,0-2.35,5.37c-.37,2-.55,4.35,1.53,5.63a3.85,3.85,0,0,0,.87.41,3,3,0,0,1,0,.39s0,0,0,.06c-.08.75-.38,1.47-.52,2.21-.35,1.91-.33,4,1.18,5.54,1.73,1.71,4.56,1.54,6.82,1.19a16.26,16.26,0,0,0,6.28-2.52c1.49-1,3-2.22,4.89-2.29,2.27-.08,4.46.64,6.72,0a6.09,6.09,0,0,0,4.07-3.39,10,10,0,0,0,1-.22,2.4,2.4,0,0,0,1.76-1.67A10.58,10.58,0,0,0,373.57,1344.46Z"/><path class="cls-1" d="M388.58,1370.89a3.17,3.17,0,0,0-.46-4.22,4.8,4.8,0,0,0-2.13-1.05c-.22,0-.45-.08-.67-.11a2.93,2.93,0,0,0-1.11-2,3.28,3.28,0,0,0-.55-.34,3,3,0,0,0-1.89-.84,3.5,3.5,0,0,0-3.1,1.62,5,5,0,0,0-2.51.18,5.6,5.6,0,0,0-3.76,1.71,6.67,6.67,0,0,1-1.07,1.28,6.87,6.87,0,0,0-1.5,1.13,7,7,0,0,0-1.4,3.38c-.22,1.26-.32,2.73.91,3.53a3.26,3.26,0,0,0,.53.26c0,.09,0,.18,0,.24v0c-.05.47-.23.92-.31,1.39a3.88,3.88,0,0,0,.71,3.47c1,1.08,2.71,1,4.06.75a9.41,9.41,0,0,0,3.76-1.58,5.89,5.89,0,0,1,2.91-1.44c1.36,0,2.67.4,4,0a3.69,3.69,0,0,0,2.43-2.13,5.8,5.8,0,0,0,.6-.13,1.49,1.49,0,0,0,1.05-1A7.08,7.08,0,0,0,388.58,1370.89Z"/></svg>