<svg id="Layer_1" data-name="Layer 1" xmlns="http://www.w3.org/2000/svg" viewBox="0 0 2000 2000"><defs><style>.cls-1{fill:#ead288;}.cls-2{fill:#5eaf10;}.cls-3{fill:#ffe52c;}.cls-4{fill:#db0000;}.cls-5{fill:#ffebb3;}</style></defs><path class="cls-1" d="M312.39,1236.51h1501a1.68,1.68,0,0,1,1.68,1.68v161a118,118,0,0,1-118,118H428.67a118,118,0,0,1-118-118v-161a1.68,1.68,0,0,1,1.68-1.68Z"/><path class="cls-2" d="M1839.93,1231.59c0,55.73-37.38,100.82-83.6,100.82-23.65,0-44.85-11.81-60.11-30.61a69.71,69.71,0,0,1-19.68,2.83,74.69,74.69,0,0,1-43.32-14,99.7,99.7,0,0,1-51.11,14c-29.59,0-56-12.65-73.22-32.28-15.72,16-36.62,25.62-59.65,25.62a81.58,81.58,0,0,1-52.79-19.46c-15.1,17.47-35.39,28.28-58.12,28.28a72.34,72.34,0,0,1-26.08-5c-16.94,18.8-40.43,30.45-66.37,30.45-40,0-74.29-27.79-87-66.89a93.5,93.5,0,0,1-17.09-25.79c-10.83,37.77-43.17,65.06-81.31,65.06-27.3,0-51.56-14-67.12-35.94-14.95,37.93-43.78,63.72-76.74,63.72-29.29,0-55.07-20.13-70.93-51.24-16.17,16-37.68,25.62-61.18,25.62-22.57,0-43.17-9-59.19-23.79-16,31.94-47.14,53.57-82.83,53.57-29.75,0-56.3-15-73.53-38.43-19.38,38.6-60,65.22-106.94,65.22-43.63,0-81.77-22.8-102.52-57.07-41.19-3.82-73.68-41.59-73.68-87.51,0-48.75,36.3-88.18,80.85-88.18a74.34,74.34,0,0,1,41.65,12.64,118.62,118.62,0,0,1,53.7-12.64A119.85,119.85,0,0,1,560.92,1182c16.17-30.78,46.68-51.41,81.62-51.41,24,0,45.76,9.65,62.39,25.79,15.71-30.12,45.46-50.42,79.63-50.42,24.72,0,47,10.49,63.47,27.79,15.86-28.62,40.73-47.09,68.64-47.09,33.72,0,63.16,27,77.65,66.56,15.72-21.13,39.52-34.61,66.21-34.61,30.51,0,57.21,17.47,72.31,43.76,7.48-43.59,35.4-75.71,68.8-75.71,25,0,47,18.14,59.65,45.43a111.28,111.28,0,0,1,6.87,20,88.51,88.51,0,0,1,9.91-15c15.11-19.3,36.62-31.12,60.26-31.12,20.44,0,39.06,8.66,53.55,23.3a83.39,83.39,0,0,1,57.36-23.3c30.81,0,58.12,17.47,73.83,43.76a100.58,100.58,0,0,1,110.15-5.16,74.75,74.75,0,0,1,43.32-14,73.21,73.21,0,0,1,40.28,12,71.79,71.79,0,0,1,39.51-12C1802.55,1130.6,1839.93,1175.85,1839.93,1231.59Z"/><path class="cls-2" d="M1305.25,1193.73a80.48,80.48,0,0,0-9.91,13.73,96.69,96.69,0,0,0-6.87-18.31A77.93,77.93,0,0,1,1305.25,1193.73Z"/><circle class="cls-2" cx="1157.2" cy="1250.82" r="52.51"/><path class="cls-3" d="M1491.35,1056.61,923.57,1584.73a30.38,30.38,0,0,1-49.31-12.06l-206-579.15A30.37,30.37,0,0,1,698.92,953l773.74,51C1499.23,1005.81,1510.84,1038.48,1491.35,1056.61Z"/><rect class="cls-4" x="329.7" y="1074.04" width="1470.53" height="113.73" rx="28.62"/><path class="cls-1" d="M576.2,619.73h973.65A265.23,265.23,0,0,1,1815.08,885v158.37a30.71,30.71,0,0,1-30.71,30.71H341.43a30.71,30.71,0,0,1-30.71-30.71V885.22A265.49,265.49,0,0,1,576.2,619.73Z"/><path class="cls-5" d="M636,619.73h19a43.8,43.8,0,0,1,43.8,43.8V875.12a2.87,2.87,0,0,1-2.87,2.87H595.08a2.87,2.87,0,0,1-2.87-2.87V663.53A43.8,43.8,0,0,1,636,619.73Z" transform="translate(1290.97 1497.71) rotate(180)"/><path class="cls-5" d="M908,619.73h19a43.8,43.8,0,0,1,43.8,43.8V875.12a2.87,2.87,0,0,1-2.87,2.87H867.06a2.87,2.87,0,0,1-2.87-2.87V663.53a43.8,43.8,0,0,1,43.8-43.8Z" transform="translate(1834.93 1497.71) rotate(180)"/><path class="cls-5" d="M1180,619.73h19a43.8,43.8,0,0,1,43.8,43.8V875.12a2.87,2.87,0,0,1-2.87,2.87H1139a2.87,2.87,0,0,1-2.87-2.87V663.53A43.8,43.8,0,0,1,1180,619.73Z" transform="translate(2378.89 1497.71) rotate(180)"/><path class="cls-5" d="M1451.95,619.73h19a43.8,43.8,0,0,1,43.8,43.8V875.12a2.87,2.87,0,0,1-2.87,2.87H1411a2.87,2.87,0,0,1-2.87-2.87V663.53A43.8,43.8,0,0,1,1451.95,619.73Z" transform="translate(2922.84 1497.71) rotate(180)"/></svg>