<svg id="Layer_1" data-name="Layer 1" xmlns="http://www.w3.org/2000/svg" viewBox="0 0 2000 2000"><defs><style>.cls-1{fill:#ead288;}.cls-2{fill:#5eaf10;}.cls-3{fill:#db0000;}</style></defs><path class="cls-1" d="M439.17,1338.31c-2.83-21.06-1.62-42.26,7.05-61.87,8-18.16,21.51-33.26,35.85-46.82a87.45,87.45,0,0,1-32.41-31.56c-17.36-29.07-19.46-66.81-8.91-100.12H297.6a1.68,1.68,0,0,0-1.68,1.68v161a118,118,0,0,0,118,117.95h35.85A162.53,162.53,0,0,1,439.17,1338.31Z"/><path class="cls-2" d="M471.21,1222.42a87.79,87.79,0,0,1-21.55-24.36c-29.61-49.58-14.83-124.37,31.34-159.36a77.15,77.15,0,0,1-42.52-27,101.42,101.42,0,0,1-11.42-18,117.21,117.21,0,0,0-33.48,11A74.27,74.27,0,0,0,351.93,992c-44.54,0-80.85,39.43-80.85,88.18,0,45.92,32.49,83.69,73.68,87.51,20.75,34.28,58.89,57.07,102.52,57.07A122.37,122.37,0,0,0,471.21,1222.42Z"/><path class="cls-3" d="M481,1038.7a77.15,77.15,0,0,1-42.52-27c-16.94-21.24-24.27-48.82-24.61-76.24H343.54a28.62,28.62,0,0,0-28.63,28.62v56.49a28.62,28.62,0,0,0,28.63,28.62H469.18A102.43,102.43,0,0,1,481,1038.7Z"/><path class="cls-1" d="M417.93,896.81c7.31-32.57,26.83-65.74,59-77.31-10.77-6.79-19.77-16.07-27.16-26.63C417.37,746.63,408.84,655.3,470.07,631a88.86,88.86,0,0,1-35.18-39c-10.59-23-12.61-48.73-8.9-73.72A265.33,265.33,0,0,0,295.92,746.65v158.1a30.72,30.72,0,0,0,30.72,30.72h87.23A168.09,168.09,0,0,1,417.93,896.81Z"/></svg>