<svg id="Layer_1" data-name="Layer 1" xmlns="http://www.w3.org/2000/svg" viewBox="0 0 2000 2000"><defs><style>.cls-1{fill:#666;}.cls-2{fill:none;stroke-width:3px;}.cls-2,.cls-3{stroke:#000;}.cls-2,.cls-3,.cls-4{stroke-miterlimit:10;}.cls-4{fill:#fff;stroke:#fff;}</style></defs><path class="cls-1" d="M784,440.91a58.9,58.9,0,0,1-4.7,23.13,53.45,53.45,0,0,1-2.4,4.93,56.14,56.14,0,0,1-5,7.84c-.35.46-.7.91-1.06,1.35s-.51.62-.78.93l-.2.24a54.15,54.15,0,0,1-41.11,19.14,52.87,52.87,0,0,1-26-6.82,48.31,48.31,0,0,1-23.57-14.27c-.23-.24-.45-.48-.66-.73a46.28,46.28,0,0,1-8.33-13.94c-6.73,25.89-29.49,45.1-56.39,45.1-27.42,0-50.53-19.71-56.91-46.27a46.11,46.11,0,0,1-6.46,8.28,48.28,48.28,0,0,1-32.25,14.37h0a52.33,52.33,0,0,1-17.81,3.13A53.48,53.48,0,0,1,461,469.88l-1-1.06c-.17-.18-.33-.37-.48-.56a56.58,56.58,0,0,1-5.6-7.75,48.25,48.25,0,0,1-2.33-4.23,57.66,57.66,0,0,1-6-25.89c0-31.57,24.48-57.15,54.68-57.15h.2c2-33.22,28.42-59.42,60.6-59.42,23.89,0,44.62,14.44,54.48,35.48,8.1-27.85,31-47.86,58-47.86,34,0,61.39,31.36,61.39,70.15a79.52,79.52,0,0,1-1,12c26.22,2.7,47.08,24.36,49.67,51.64C783.92,437.07,784,439,784,440.91Z"/><path class="cls-1" d="M887.92,534.79c-30.17-23.22-77.34-44.61-106.22-53.17-2.13-.63-4.17-1.19-6.09-1.68-1.29-.33-2.54-.62-3.72-.88-.35.46-.7.91-1.06,1.35s-.51.62-.78.93l-.2.24a54.15,54.15,0,0,1-41.11,19.14,52.87,52.87,0,0,1-26-6.82,48.31,48.31,0,0,1-23.57-14.27c-.23-.24-.45-.48-.66-.73A46.28,46.28,0,0,1,670.18,465c-6.73,25.89-29.49,45.1-56.39,45.1-27.42,0-50.53-19.71-56.91-46.27a46.11,46.11,0,0,1-6.46,8.28,48.28,48.28,0,0,1-32.25,14.37h0a52.33,52.33,0,0,1-17.81,3.13A53.48,53.48,0,0,1,461,472.13c-24.44,3.25-84.71,25.05-122.37,49.79-57.14,37.57-94.56,81.57-83.57,98.29s88.37,18.57,123.37-37.75c44.29-71.26,61.93-83,82.68-97.65-.33.53-.66,1.06-1,1.59-25.61,42.2-37.39,96-43.78,153.8-17.85,161.26,25.82,245.32,94,281.51,28.13,15,60.43,21.74,94.29,22.44,1.86,0,3.73.06,5.6.06,105.27.08,216.24-44.45,200.86-304-3.09-52.27-14.3-100.71-35.77-140.59-1-.87-2-1.73-3-2.57,0-.13,0-.25,0-.37.07-.63.16-1.25.25-1.87.19.31.36.62.53.94q1.1,1.92,2.14,3.87c16.16,14.24,32.87,33.75,63.59,98.9C867.74,659.7,948,659.77,961.54,642.17S942.12,576.5,887.92,534.79ZM541.66,651.67c-18,0-32.56-22.51-32.56-50.29s14.58-50.29,32.56-50.29,32.56,22.52,32.56,50.29S559.64,651.67,541.66,651.67Zm121.68,0c-12.87,0-24-11.53-29.27-28.27a73.42,73.42,0,0,1-3.28-22c0-27.77,14.57-50.29,32.55-50.29,11.46,0,21.53,9.14,27.33,23a71,71,0,0,1,5.23,27.33C695.9,629.16,681.33,651.67,663.34,651.67Z"/><path class="cls-1" d="M841.59,1359.44V1585a.85.85,0,0,1-.27.63.84.84,0,0,1-.29.2.81.81,0,0,1-.35.07H752a.81.81,0,0,1-.35-.07,1,1,0,0,1-.48-.48,1,1,0,0,1-.07-.35V1283.72q2.4-1.41,4.74-2.93c1.27.76,2.74,1.53,4,2.3C773.53,1320.55,803.92,1349.36,841.59,1359.44Z"/><path class="cls-1" d="M1009.85,1419.14V1585a.9.9,0,0,1-.91.9H920.22a.9.9,0,0,1-.91-.9v-232.3a111.86,111.86,0,0,0,11.2-6.06,6.86,6.86,0,0,0,2.19-1.35,7.09,7.09,0,0,0,.73,2.11C947.24,1381.92,975.31,1408.49,1009.85,1419.14Z"/><path class="cls-1" d="M1310.56,1409.32V1585a.85.85,0,0,1-.27.63.88.88,0,0,1-.64.27h-88.71a.81.81,0,0,1-.35-.07.84.84,0,0,1-.29-.2.85.85,0,0,1-.27-.63v-166a114.81,114.81,0,0,0,90.53-9.76Z"/><path class="cls-1" d="M1472.27,1349.44V1585a1,1,0,0,1-.07.35.84.84,0,0,1-.2.29.91.91,0,0,1-.64.26h-88.71a.91.91,0,0,1-.64-.26,1,1,0,0,1-.2-.29,1,1,0,0,1-.07-.35v-227.4a115,115,0,0,0,90.53-8.19Z"/><path class="cls-1" d="M751.06,1530.51h90.53a0,0,0,0,1,0,0V1585a.91.91,0,0,1-.91.91H752a.91.91,0,0,1-.91-.91v-54.52A0,0,0,0,1,751.06,1530.51Z"/><path class="cls-1" d="M919.31,1530.51h90.53a0,0,0,0,1,0,0V1585a.91.91,0,0,1-.91.91H920.22a.91.91,0,0,1-.91-.91v-54.52A0,0,0,0,1,919.31,1530.51Z"/><path class="cls-1" d="M1220,1530.51h90.53a0,0,0,0,1,0,0V1585a.91.91,0,0,1-.91.91h-88.72a.91.91,0,0,1-.91-.91v-54.52A0,0,0,0,1,1220,1530.51Z"/><path class="cls-1" d="M1381.74,1530.51h90.53a0,0,0,0,1,0,0V1585a.91.91,0,0,1-.91.91h-88.72a.91.91,0,0,1-.91-.91v-54.52A0,0,0,0,1,1381.74,1530.51Z"/><path class="cls-1" d="M1701.73,889.55a126.89,126.89,0,0,1,23.39,74.11c0,51.9-30.15,96.52-72.92,115.67a124.79,124.79,0,0,1,4.39,33.32c0,69.32-53.55,125.43-119.52,125.43,0,48.48-26.32,90.55-64.8,111.36a115,115,0,0,1-90.53,8.19,108.41,108.41,0,0,1-18.47-8.09,123.16,123.16,0,0,1-52.71,59.78,114.81,114.81,0,0,1-90.53,9.76c-30.11-9.34-55.27-30.8-70.22-59a8,8,0,0,1-.91-1.72,8,8,0,0,1-1.28,2.1c-20.29,38.11-59.21,63.77-104,63.77a114.2,114.2,0,0,1-33.78-5.08c-34.54-10.65-62.61-37.22-76.42-71.71a7.09,7.09,0,0,1-.73-2.11,6.86,6.86,0,0,1-2.19,1.35,111.81,111.81,0,0,1-59.21,16.66,114.71,114.71,0,0,1-29.71-3.89c-37.67-10.08-68.06-38.89-81.77-76.35-1.28-.77-2.75-1.54-4-2.3q-2.34,1.51-4.74,2.93A112.51,112.51,0,0,1,694.21,1299c-66.16,0-119.71-56.11-119.71-125.24a103,103,0,0,1,1.47-18.58,100,100,0,0,1-10.79.58c-66,0-119.52-56.11-119.52-125.24,0-48.32,26.32-90.4,64.65-111,28.13,15,60.43,21.74,94.29,22.44,1.86,0,3.73.06,5.6.06,105.27.08,216.24-44.45,200.86-304-3.09-52.27-14.3-100.71-35.77-140.59,16.16,14.24,32.87,33.75,63.59,98.9,28.86,61.19,109.12,61.26,122.66,43.66s-19.42-65.67-73.62-107.38c-30.17-23.22-77.34-44.61-106.22-53.17-2.13-.63-4.17-1.19-6.09-1.68a127.22,127.22,0,0,1,10.55-27.17c20.36-38.63,59.63-64.81,104.69-64.81,39.66,0,74.75,20.11,96.31,51.32,21.38-31.21,56.47-51.32,96.13-51.32,33.44,0,63.78,14.36,85.53,37.73,21.56-23.37,51.72-37.73,85.16-37.73,50.08,0,93,32.37,110.75,78.13a112.25,112.25,0,0,1,52.82-13c54.46,0,100.51,38.3,114.77,90.39a38.16,38.16,0,0,1,4.75-.19c66,0,119.52,56.11,119.52,125.24a27.29,27.29,0,0,1-.18,3.83c51.9,13.6,90.46,62.81,90.46,121.41C1746.87,831.33,1729.32,866.57,1701.73,889.55Z"/><path class="cls-2" d="M841.59,1359.44V1585a.85.85,0,0,1-.27.63.84.84,0,0,1-.29.2.81.81,0,0,1-.35.07H752a.81.81,0,0,1-.35-.07,1,1,0,0,1-.48-.48,1,1,0,0,1-.07-.35V1283.72q2.4-1.41,4.74-2.93c1.27.76,2.74,1.53,4,2.3C773.53,1320.55,803.92,1349.36,841.59,1359.44Z"/><path class="cls-2" d="M1009.85,1419.14V1585a.9.9,0,0,1-.91.9H920.22a.9.9,0,0,1-.91-.9v-232.3a111.86,111.86,0,0,0,11.2-6.06,6.86,6.86,0,0,0,2.19-1.35,7.09,7.09,0,0,0,.73,2.11C947.24,1381.92,975.31,1408.49,1009.85,1419.14Z"/><path class="cls-2" d="M1310.56,1409.32V1585a.85.85,0,0,1-.27.63.88.88,0,0,1-.64.27h-88.71a.81.81,0,0,1-.35-.07.84.84,0,0,1-.29-.2.85.85,0,0,1-.27-.63v-166a114.81,114.81,0,0,0,90.53-9.76Z"/><path class="cls-2" d="M1472.27,1349.44V1585a1,1,0,0,1-.07.35.84.84,0,0,1-.2.29.91.91,0,0,1-.64.26h-88.71a.91.91,0,0,1-.64-.26,1,1,0,0,1-.2-.29,1,1,0,0,1-.07-.35v-227.4a115,115,0,0,0,90.53-8.19Z"/><path class="cls-2" d="M1701.73,889.55a126.89,126.89,0,0,1,23.39,74.11c0,51.9-30.15,96.52-72.92,115.67a124.79,124.79,0,0,1,4.39,33.32c0,69.32-53.55,125.43-119.52,125.43,0,48.48-26.32,90.55-64.8,111.36a115,115,0,0,1-90.53,8.19,108.41,108.41,0,0,1-18.47-8.09,123.16,123.16,0,0,1-52.71,59.78,114.81,114.81,0,0,1-90.53,9.76c-30.11-9.34-55.27-30.8-70.22-59a8,8,0,0,1-.91-1.72,8,8,0,0,1-1.28,2.1c-20.29,38.11-59.21,63.77-104,63.77a114.2,114.2,0,0,1-33.78-5.08c-34.54-10.65-62.61-37.22-76.42-71.71a7.09,7.09,0,0,1-.73-2.11,6.86,6.86,0,0,1-2.19,1.35,111.81,111.81,0,0,1-59.21,16.66,114.71,114.71,0,0,1-29.71-3.89c-37.67-10.08-68.06-38.89-81.77-76.35-1.28-.77-2.75-1.54-4-2.3q-2.34,1.51-4.74,2.93A112.51,112.51,0,0,1,694.21,1299c-66.16,0-119.71-56.11-119.71-125.24a103,103,0,0,1,1.47-18.58,100,100,0,0,1-10.79.58c-66,0-119.52-56.11-119.52-125.24,0-48.32,26.32-90.4,64.65-111,28.13,15,60.43,21.74,94.29,22.44,1.86,0,3.73.06,5.6.06,105.27.08,216.24-44.45,200.86-304-3.09-52.27-14.3-100.71-35.77-140.59,16.16,14.24,32.87,33.75,63.59,98.9,28.86,61.19,109.12,61.26,122.66,43.66s-19.42-65.67-73.62-107.38c-30.17-23.22-77.34-44.61-106.22-53.17-2.13-.63-4.17-1.19-6.09-1.68a127.22,127.22,0,0,1,10.55-27.17c20.36-38.63,59.63-64.81,104.69-64.81,39.66,0,74.75,20.11,96.31,51.32,21.38-31.21,56.47-51.32,96.13-51.32,33.44,0,63.78,14.36,85.53,37.73,21.56-23.37,51.72-37.73,85.16-37.73,50.08,0,93,32.37,110.75,78.13a112.25,112.25,0,0,1,52.82-13c54.46,0,100.51,38.3,114.77,90.39a38.16,38.16,0,0,1,4.75-.19c66,0,119.52,56.11,119.52,125.24a27.29,27.29,0,0,1-.18,3.83c51.9,13.6,90.46,62.81,90.46,121.41C1746.87,831.33,1729.32,866.57,1701.73,889.55Z"/><path class="cls-2" d="M690.67,571.8a71,71,0,0,1,5.23,27.33c0,27.78-14.57,50.29-32.56,50.29-12.87,0-24-11.53-29.27-28.27A516.22,516.22,0,0,1,690.67,571.8Z"/><path class="cls-2" d="M773.15,493.49q1.1,1.92,2.14,3.87c-1-.87-2-1.73-3-2.57,0-.13,0-.25,0-.37.07-.63.16-1.25.25-1.87C772.81,492.86,773,493.17,773.15,493.49Z"/><ellipse class="cls-2" cx="541.66" cy="599.13" rx="32.56" ry="50.29"/><path class="cls-2" d="M690.67,571.8a71,71,0,0,1,5.23,27.33c0,27.78-14.57,50.29-32.56,50.29-12.87,0-24-11.53-29.27-28.27a73.42,73.42,0,0,1-3.28-22c0-27.77,14.57-50.29,32.55-50.29C674.8,548.84,684.87,558,690.67,571.8Z"/><path class="cls-2" d="M775.29,497.36c-1-.87-2-1.73-3-2.57,0-.13,0-.25,0-.37.07-.63.16-1.25.25-1.87.19.31.36.62.53.94Q774.25,495.41,775.29,497.36Z"/><path class="cls-2" d="M887.92,532.54c-30.17-23.22-77.34-44.61-106.22-53.17-2.13-.63-4.17-1.19-6.09-1.68-1.29-.33-2.54-.62-3.72-.88-.35.46-.7.91-1.06,1.35s-.51.62-.78.93l-.2.24a54.15,54.15,0,0,1-41.11,19.14,52.87,52.87,0,0,1-26-6.82,48.31,48.31,0,0,1-23.57-14.27c-.23-.24-.45-.48-.66-.73a46.28,46.28,0,0,1-8.33-13.94c-6.73,25.89-29.49,45.1-56.39,45.1-27.42,0-50.53-19.71-56.91-46.27a46.11,46.11,0,0,1-6.46,8.28,48.28,48.28,0,0,1-32.25,14.37h0a52.33,52.33,0,0,1-17.81,3.13A53.48,53.48,0,0,1,461,469.88c-24.44,3.25-84.71,25.05-122.37,49.79-57.14,37.57-94.56,81.57-83.57,98.29s88.37,18.57,123.37-37.75c44.29-71.26,61.93-83,82.68-97.65-.33.53-.66,1.06-1,1.59-25.61,42.2-37.39,96-43.78,153.8-17.85,161.26,25.82,245.32,94,281.51,28.13,15,60.43,21.74,94.29,22.44,1.86,0,3.73.06,5.6.06,105.27.08,216.24-44.45,200.86-304-3.09-52.27-14.3-100.71-35.77-140.59-1-.87-2-1.73-3-2.57,0-.13,0-.25,0-.37.07-.63.16-1.25.25-1.87.19.31.36.62.53.94q1.1,1.92,2.14,3.87c16.16,14.24,32.87,33.75,63.59,98.9,28.86,61.19,109.12,61.26,122.66,43.66S942.12,574.25,887.92,532.54ZM541.66,649.42c-18,0-32.56-22.51-32.56-50.29s14.58-50.29,32.56-50.29,32.56,22.52,32.56,50.29S559.64,649.42,541.66,649.42Zm121.68,0c-12.87,0-24-11.53-29.27-28.27a73.42,73.42,0,0,1-3.28-22c0-27.77,14.57-50.29,32.55-50.29,11.46,0,21.53,9.14,27.33,23a71,71,0,0,1,5.23,27.33C695.9,626.91,681.33,649.42,663.34,649.42Z"/><path class="cls-2" d="M775.29,497.36c-1-.87-2-1.73-3-2.57,0-.13,0-.25,0-.37.07-.63.16-1.25.25-1.87.19.31.36.62.53.94Q774.25,495.41,775.29,497.36Z"/><ellipse class="cls-3" cx="541.66" cy="599.13" rx="32.56" ry="50.29"/><circle class="cls-4" cx="547.77" cy="572.13" r="9.39"/><path class="cls-3" d="M695.9,599.13c0,27.78-14.57,50.29-32.56,50.29-12.87,0-24-11.53-29.27-28.27a73.42,73.42,0,0,1-3.28-22c0-27.77,14.57-50.29,32.55-50.29,11.46,0,21.53,9.14,27.33,23A71,71,0,0,1,695.9,599.13Z"/><circle class="cls-4" cx="669.45" cy="572.13" r="9.39"/><line class="cls-2" x1="604.59" y1="836.24" x2="604.59" y2="941.96"/><line class="cls-2" x1="550.81" y1="782.46" x2="604.59" y2="836.24"/><line class="cls-2" x1="660.57" y1="781.36" x2="604.59" y2="837.34"/><path class="cls-2" d="M784,440.91a58.9,58.9,0,0,1-4.7,23.13,53.45,53.45,0,0,1-2.4,4.93,56.14,56.14,0,0,1-5,7.84c-.35.46-.7.91-1.06,1.35s-.51.62-.78.93l-.2.24a54.15,54.15,0,0,1-41.11,19.14,52.87,52.87,0,0,1-26-6.82,48.31,48.31,0,0,1-23.57-14.27c-.23-.24-.45-.48-.66-.73a46.28,46.28,0,0,1-8.33-13.94c-6.73,25.89-29.49,45.1-56.39,45.1-27.42,0-50.53-19.71-56.91-46.27a46.11,46.11,0,0,1-6.46,8.28,48.28,48.28,0,0,1-32.25,14.37h0a52.33,52.33,0,0,1-17.81,3.13A53.48,53.48,0,0,1,461,469.88l-1-1.06c-.17-.18-.33-.37-.48-.56a56.58,56.58,0,0,1-5.6-7.75,48.25,48.25,0,0,1-2.33-4.23,57.66,57.66,0,0,1-6-25.89c0-31.57,24.48-57.15,54.68-57.15h.2c2-33.22,28.42-59.42,60.6-59.42,23.89,0,44.62,14.44,54.48,35.48,8.1-27.85,31-47.86,58-47.86,34,0,61.39,31.36,61.39,70.15a79.52,79.52,0,0,1-1,12c26.22,2.7,47.08,24.36,49.67,51.64C783.92,437.07,784,439,784,440.91Z"/><path class="cls-2" d="M751.06,1530.51h90.53a0,0,0,0,1,0,0V1585a.91.91,0,0,1-.91.91H752a.91.91,0,0,1-.91-.91v-54.52A0,0,0,0,1,751.06,1530.51Z"/><path class="cls-2" d="M919.31,1530.51h90.53a0,0,0,0,1,0,0V1585a.91.91,0,0,1-.91.91H920.22a.91.91,0,0,1-.91-.91v-54.52A0,0,0,0,1,919.31,1530.51Z"/><path class="cls-2" d="M1220,1530.51h90.53a0,0,0,0,1,0,0V1585a.91.91,0,0,1-.91.91h-88.72a.91.91,0,0,1-.91-.91v-54.52A0,0,0,0,1,1220,1530.51Z"/><path class="cls-2" d="M1381.74,1530.51h90.53a0,0,0,0,1,0,0V1585a.91.91,0,0,1-.91.91h-88.72a.91.91,0,0,1-.91-.91v-54.52A0,0,0,0,1,1381.74,1530.51Z"/></svg>