<svg id="Layer_1" data-name="Layer 1" xmlns="http://www.w3.org/2000/svg" xmlns:xlink="http://www.w3.org/1999/xlink" viewBox="0 0 1000 686"><defs><style>.cls-1{fill:url(#linear-gradient);}.cls-2{fill:#f7edbe;}.cls-3{fill:#d0e9f4;}.cls-4{fill:#d4dbe8;}.cls-5{fill:#b43115;}.cls-6{fill:url(#linear-gradient-2);}.cls-7{fill:url(#linear-gradient-3);}.cls-14,.cls-8,.cls-9{fill:none;}.cls-8,.cls-9{stroke:#fbb03b;stroke-linecap:round;stroke-linejoin:bevel;stroke-width:7px;}.cls-9{stroke-dasharray:11.95 11.95;}.cls-10{fill:url(#linear-gradient-4);}.cls-11{fill:#b3d2ff;}.cls-12{fill:url(#linear-gradient-5);}.cls-13{fill:#61e5b9;}.cls-14{stroke:#42210b;stroke-miterlimit:10;stroke-width:3px;}</style><linearGradient id="linear-gradient" x1="498.5" y1="679.6" x2="501.61" y2="-19.19" gradientUnits="userSpaceOnUse"><stop offset="0" stop-color="#fefefe"/><stop offset="0.62" stop-color="#f1faff"/><stop offset="0.8" stop-color="#edf9ff"/></linearGradient><linearGradient id="linear-gradient-2" x1="109.78" y1="-677.59" x2="110" y2="-741.24" gradientTransform="matrix(1, 0, 0, -1, 694, -226.53)" gradientUnits="userSpaceOnUse"><stop offset="0.46" stop-color="#d1f1b8"/><stop offset="1" stop-color="#f6fdf1"/></linearGradient><linearGradient id="linear-gradient-3" x1="-10.21" y1="-734.57" x2="-9.97" y2="-805.21" xlink:href="#linear-gradient-2"/><linearGradient id="linear-gradient-4" x1="-357.12" y1="-679.45" x2="-356.91" y2="-738.93" xlink:href="#linear-gradient-2"/><linearGradient id="linear-gradient-5" x1="-532.98" y1="-606.24" x2="-532.6" y2="-713.3" xlink:href="#linear-gradient-2"/></defs><rect class="cls-1" width="1000" height="686" rx="23.47"/><circle class="cls-2" cx="923.68" cy="68.02" r="24.68"/><ellipse class="cls-3" cx="871.35" cy="89.88" rx="23.84" ry="21.37"/><ellipse class="cls-3" cx="844.12" cy="96.72" rx="19.41" ry="17.4"/><ellipse class="cls-3" cx="897.07" cy="92.81" rx="19.41" ry="17.4"/><ellipse class="cls-3" cx="863.53" cy="103.38" rx="15.06" ry="13.5"/><ellipse class="cls-3" cx="111.62" cy="142.85" rx="22.95" ry="22.62"/><ellipse class="cls-3" cx="85.41" cy="150.08" rx="18.68" ry="18.41"/><ellipse class="cls-3" cx="136.37" cy="145.94" rx="18.68" ry="18.41"/><ellipse class="cls-3" cx="104.1" cy="157.13" rx="14.5" ry="14.29"/><path class="cls-4" d="M12.18,648.65c-2-5.17,11.2-18.4,27.68-17.47,12.67.71,24.34,9.63,22.93,14.67C60.29,654.76,15.37,656.79,12.18,648.65Z"/><path class="cls-5" d="M83.46,603.25a7.67,7.67,0,0,0-4.87,1.68,5.11,5.11,0,0,0,0,8.12,7.88,7.88,0,0,0,9.73,0,5.11,5.11,0,0,0,0-8.12A7.66,7.66,0,0,0,83.46,603.25ZM64.2,614.73c-3.27,0-6,1.91-6.69,4.47l-2.72,9.09a5.15,5.15,0,0,0-.21,1.36c0,3.17,3.08,5.73,6.87,5.73a8,8,0,0,0,1.49-.15,8.33,8.33,0,0,1-.11-1,8.46,8.46,0,0,1,.25-2l4.16-16.83A7.68,7.68,0,0,0,64.2,614.73ZM105.44,617a1.6,1.6,0,0,0-.53.09,1.5,1.5,0,0,0-.44.26,1,1,0,0,0-.29.37,1,1,0,0,0-.1.44v2.29L97,625.72l-6.62-3.45c0,.12,0,.23,0,.34L89,628.72a69.83,69.83,0,0,0,8.37,2.07,3.08,3.08,0,0,0,1.83-.57l4.88-3.62v30.59a1,1,0,0,0,.1.44,1.2,1.2,0,0,0,.3.38,1.41,1.41,0,0,0,.45.25,1.55,1.55,0,0,0,.53.09,1.6,1.6,0,0,0,.53-.09,1.41,1.41,0,0,0,.45-.25,1.17,1.17,0,0,0,.29-.38.86.86,0,0,0,.1-.44V624.56l1-.71a2,2,0,0,0,.24-3.24,2.85,2.85,0,0,0-1.2-.61v-1.83a.92.92,0,0,0-.1-.45,1.2,1.2,0,0,0-.3-.38,1.46,1.46,0,0,0-.46-.25A1.37,1.37,0,0,0,105.44,617ZM78,617c-3.38,0-6.17,2-6.75,4.72h0l-2.72,11.31v0h0a4.83,4.83,0,0,0-.14,1.15,5.38,5.38,0,0,0,2.49,4.38l0,.06,10.71,7,3,9.62.26,1.08a2.24,2.24,0,0,0,.94,1.38,3.15,3.15,0,0,0,3.73-.13,2.13,2.13,0,0,0,.8-1.62,2.3,2.3,0,0,0,0-.45l-2.75-11.47a2.31,2.31,0,0,0-.44-.87l-5.15-7.86s0,0,0-.06l2.7-11.28h0a4.63,4.63,0,0,0,.19-1.29C84.83,619.6,81.75,617,78,617Zm-9.74,24.62-1.41,3.89-6.13,9-.21.29h0l-.09.13,0,0a1.89,1.89,0,0,0-.28,1,2.13,2.13,0,0,0,.8,1.62,3.08,3.08,0,0,0,1.95.68,3.32,3.32,0,0,0,1.25-.25,2.78,2.78,0,0,0,1-.7h0l0,0h0l9.14-11.59Z"/><path class="cls-4" d="M97.49,671.7c-1.63-3.78,9-13.44,22.33-12.77,10.23.53,19.64,7.05,18.5,10.73C136.31,676.17,100.06,677.65,97.49,671.7Z"/><path class="cls-4" d="M43.59,670.6c-1.22-2.86,6.8-10.17,16.81-9.66,7.69.4,14.78,5.33,13.92,8.11C72.8,674,45.53,675.1,43.59,670.6Z"/><path class="cls-4" d="M121.11,643.64c-1.6-3.69,8.89-13.14,22-12.48,10.06.51,19.32,6.89,18.19,10.48C159.28,648,123.64,649.46,121.11,643.64Z"/><path class="cls-6" d="M759.23,499.75l-9.05-7.39-5.71,6.83L736.38,508H871.57l-12.85-28.28h-21.9L809.21,451l-35.7,28.7h-5.24Z"/><path class="cls-7" d="M633.42,562.08l-10.23-8.21-6.46,7.58-9.15,9.8H760.43L745.9,539.88H721.14L689.93,508l-40.37,31.86h-5.92Z"/><path class="cls-8" d="M149.92,660.21c2,.61,3.87,1.18,5.75,1.71"/><path class="cls-9" d="M167.26,664.84c34.33,7.52,53.93,1.21,65.82-7.32,17-12.18,17.3-28.23,44.6-48.66a140.52,140.52,0,0,1,39.75-20.8c20.26-6.69,36.74-6.82,55.85-6.82,36.22,0,38.67,6.47,61.71,4.53,28.49-2.4,36.59-13.27,60.85-20.1,18.94-5.33,46.41-7.84,84.15,4.48"/><path class="cls-8" d="M585.64,572.08q2.77,1,5.63,2.09"/><ellipse class="cls-3" cx="206.41" cy="201.38" rx="15.76" ry="14.05"/><ellipse class="cls-3" cx="188.41" cy="205.88" rx="12.83" ry="11.44"/><ellipse class="cls-3" cx="223.41" cy="203.3" rx="12.83" ry="11.44"/><ellipse class="cls-3" cx="201.24" cy="210.26" rx="9.96" ry="8.88"/><path class="cls-10" d="M296,498.43l-8.31-6.91-5.25,6.38L275,506.15H399.16l-11.81-26.42H367.24L341.88,452.9l-32.8,26.83h-4.81Z"/><path class="cls-11" d="M924.31,625c-.48,17.64-59.25,44.55-112.69,30.74-68.43-17.69-128-14.31-128-32s57.74-24.11,128-32C882.71,583.86,924.52,617.3,924.31,625Z"/><path class="cls-12" d="M105.26,461.7,93.92,449.25l-7.16,11.5L76.62,475.62H246.1L230,428H202.53l-34.61-48.34L123.16,428H116.6Z"/><path class="cls-4" d="M697.63,661.76c-1.22-2.86,6.8-10.17,16.8-9.66,7.7.4,14.78,5.33,13.93,8.11C726.84,665.14,699.57,666.26,697.63,661.76Z"/><path class="cls-4" d="M657.26,651.73c-1.6-3.7,8.89-13.14,22-12.48,10.06.51,19.32,6.88,18.2,10.48C695.43,656.09,659.79,657.55,657.26,651.73Z"/><path class="cls-4" d="M904.27,583.76c-1.6-3.69,8.88-13.14,22-12.48,10,.51,19.31,6.89,18.19,10.48C942.44,588.13,906.8,589.58,904.27,583.76Z"/><polygon class="cls-13" points="640.69 592.53 598.55 592.53 619.62 556.04 640.69 592.53"/><polygon class="cls-13" points="644.04 608.24 595.21 608.24 619.62 565.96 644.04 608.24"/><polygon class="cls-13" points="647.98 625.14 591.27 625.14 619.62 576.03 647.98 625.14"/><line class="cls-14" x1="619.62" y1="618.18" x2="619.62" y2="639.22"/></svg>