<svg id="Layer_1" data-name="Layer 1" xmlns="http://www.w3.org/2000/svg" xmlns:xlink="http://www.w3.org/1999/xlink" viewBox="0 0 1000 686"><defs><style>.cls-1{fill:url(#linear-gradient);}.cls-2{fill:#f7edbe;}.cls-3{fill:#d0e9f4;}.cls-4{fill:#d4dbe8;}.cls-5{fill:#b43115;}.cls-6{fill:url(#linear-gradient-2);}.cls-7{fill:url(#linear-gradient-3);}</style><linearGradient id="linear-gradient" x1="498.5" y1="679.6" x2="501.61" y2="-19.19" gradientUnits="userSpaceOnUse"><stop offset="0" stop-color="#fefefe"/><stop offset="0.62" stop-color="#f1faff"/><stop offset="0.8" stop-color="#edf9ff"/></linearGradient><linearGradient id="linear-gradient-2" x1="109.78" y1="843.14" x2="110" y2="779.49" gradientTransform="matrix(1, 0, 0, -1, 694, 1292)" gradientUnits="userSpaceOnUse"><stop offset="0.46" stop-color="#d1f1b8"/><stop offset="1" stop-color="#f6fdf1"/></linearGradient><linearGradient id="linear-gradient-3" x1="-10.21" y1="786.16" x2="-9.97" y2="715.52" xlink:href="#linear-gradient-2"/></defs><rect class="cls-1" width="1000" height="686" rx="23.47"/><circle class="cls-2" cx="923.68" cy="65.82" r="24.68"/><ellipse class="cls-3" cx="871.35" cy="87.69" rx="23.84" ry="21.37"/><ellipse class="cls-3" cx="844.12" cy="94.53" rx="19.41" ry="17.4"/><ellipse class="cls-3" cx="897.07" cy="90.61" rx="19.41" ry="17.4"/><ellipse class="cls-3" cx="863.53" cy="101.19" rx="15.06" ry="13.5"/><ellipse class="cls-3" cx="111.62" cy="140.65" rx="22.95" ry="22.62"/><ellipse class="cls-3" cx="85.41" cy="147.89" rx="18.68" ry="18.41"/><ellipse class="cls-3" cx="136.37" cy="143.74" rx="18.68" ry="18.41"/><ellipse class="cls-3" cx="104.1" cy="154.94" rx="14.5" ry="14.29"/><path class="cls-4" d="M12.18,646.45c-2-5.17,11.2-18.4,27.68-17.47,12.67.71,24.34,9.64,22.93,14.67C60.29,652.56,15.37,654.6,12.18,646.45Z"/><path class="cls-5" d="M83.46,601.06a7.61,7.61,0,0,0-4.87,1.68,5.1,5.1,0,0,0,0,8.11,7.88,7.88,0,0,0,9.73,0,5.1,5.1,0,0,0,0-8.11A7.6,7.6,0,0,0,83.46,601.06ZM64.2,612.53c-3.27,0-6,1.91-6.69,4.47l-2.72,9.1a5,5,0,0,0-.21,1.35c0,3.17,3.08,5.74,6.87,5.74a8,8,0,0,0,1.49-.15,6.67,6.67,0,0,1,.14-3l4.16-16.83A7.68,7.68,0,0,0,64.2,612.53Zm41.24,2.28a1.6,1.6,0,0,0-.53.09,1.5,1.5,0,0,0-.44.26,1.13,1.13,0,0,0-.29.37,1,1,0,0,0-.1.45v2.29L97,623.52l-6.62-3.44c0,.11,0,.22,0,.34L89,626.52a70.64,70.64,0,0,0,8.37,2.08A3.09,3.09,0,0,0,99.2,628l4.88-3.62V655a1,1,0,0,0,.1.45,1.17,1.17,0,0,0,.3.37,1.43,1.43,0,0,0,.45.26,1.84,1.84,0,0,0,.53.08,1.89,1.89,0,0,0,.53-.08,1.43,1.43,0,0,0,.45-.26,1.13,1.13,0,0,0,.29-.37.92.92,0,0,0,.1-.45V622.37l1-.72a2,2,0,0,0,.24-3.24,2.85,2.85,0,0,0-1.2-.61V616a.87.87,0,0,0-.1-.45,1,1,0,0,0-.3-.38,1.48,1.48,0,0,0-.46-.26A1.89,1.89,0,0,0,105.44,614.81Zm-27.49,0c-3.38,0-6.17,2-6.75,4.71h0l-2.72,11.32h0a4.89,4.89,0,0,0-.14,1.15,5.38,5.38,0,0,0,2.49,4.38l0,.06,10.71,7,3,9.61.26,1.08a2.24,2.24,0,0,0,.94,1.38,3,3,0,0,0,1.78.55,3.07,3.07,0,0,0,2-.67,2.15,2.15,0,0,0,.8-1.63,2.12,2.12,0,0,0,0-.44l-2.75-11.48a2.31,2.31,0,0,0-.44-.87l-5.15-7.85s0-.05,0-.07l2.7-11.27h0a4.56,4.56,0,0,0,.19-1.28C84.83,617.4,81.75,614.83,78,614.83Zm-9.74,24.61-1.41,3.9-6.13,9-.21.28h0l-.09.13,0,0a1.92,1.92,0,0,0-.28,1,2.15,2.15,0,0,0,.8,1.63,3.07,3.07,0,0,0,1.95.67,3.32,3.32,0,0,0,1.25-.25,2.66,2.66,0,0,0,1-.7h0l0-.05h0l9.14-11.59Z"/><path class="cls-4" d="M97.49,669.5c-1.63-3.77,9-13.44,22.33-12.76,10.23.52,19.64,7,18.5,10.72C136.31,674,100.06,675.46,97.49,669.5Z"/><path class="cls-4" d="M43.59,668.4c-1.22-2.86,6.8-10.17,16.81-9.66,7.69.4,14.78,5.33,13.92,8.11C72.8,671.78,45.53,672.9,43.59,668.4Z"/><path class="cls-4" d="M121.11,641.44c-1.6-3.69,8.89-13.14,22-12.47,10.06.51,19.32,6.88,18.19,10.48C159.28,645.81,123.64,647.26,121.11,641.44Z"/><path class="cls-6" d="M759.23,497.56l-9.05-7.4L744.47,497l-8.09,8.83H871.57l-12.85-28.27h-21.9l-27.61-28.71-35.7,28.71h-5.24Z"/><path class="cls-7" d="M633.42,559.88l-10.23-8.2-6.46,7.57-9.15,9.8H760.43L745.9,537.68H721.14l-31.21-31.86-40.37,31.86h-5.92Z"/><path d="M318.6,253.79l-1.23,3.43H315.8l4-10.9h1.83l4,10.9H324l-1.26-3.43Zm3.86-1.1-1.16-3.13c-.26-.72-.43-1.36-.61-2h0c-.18.64-.37,1.31-.6,2l-1.15,3.15Z"/><path d="M334.43,245.74v9.46c0,.7,0,1.49.07,2h-1.38l-.07-1.36h0a3.16,3.16,0,0,1-2.88,1.54,3.67,3.67,0,0,1-3.62-4,3.86,3.86,0,0,1,3.79-4.2,2.87,2.87,0,0,1,2.55,1.19h0v-4.67Zm-1.54,6.84a2.46,2.46,0,0,0-.07-.6,2.24,2.24,0,0,0-2.22-1.65c-1.59,0-2.53,1.3-2.53,3,0,1.58.84,2.89,2.5,2.89a2.27,2.27,0,0,0,2.25-1.7,2.37,2.37,0,0,0,.07-.61Z"/><path d="M344.28,245.74v9.46c0,.7,0,1.49.07,2H343l-.07-1.36h0A3.16,3.16,0,0,1,340,257.4a3.67,3.67,0,0,1-3.62-4,3.85,3.85,0,0,1,3.79-4.2,2.89,2.89,0,0,1,2.55,1.19h0v-4.67Zm-1.53,6.84a2.46,2.46,0,0,0-.07-.6,2.24,2.24,0,0,0-2.22-1.65c-1.59,0-2.54,1.3-2.54,3,0,1.58.84,2.89,2.5,2.89a2.29,2.29,0,0,0,2.26-1.7,2.37,2.37,0,0,0,.07-.61Z"/><path d="M352.39,247.15v2.24h2.21v1.09h-2.21v4.22c0,1,.3,1.52,1.16,1.52a3.56,3.56,0,0,0,.89-.1l.07,1.07a4.15,4.15,0,0,1-1.36.19,2.24,2.24,0,0,1-1.66-.59,2.76,2.76,0,0,1-.6-2v-4.27h-1.31v-1.09h1.31v-1.87Z"/><path d="M363.87,253.24a4,4,0,0,1-4.21,4.16,3.86,3.86,0,0,1-4.05-4,4,4,0,0,1,4.19-4.15A3.84,3.84,0,0,1,363.87,253.24Zm-6.7.08a2.72,2.72,0,0,0,2.56,3,2.75,2.75,0,0,0,2.57-3c0-1.33-.71-3-2.53-3S357.17,251.84,357.17,253.32Z"/><path d="M370.08,249.39l1.85,4.63c.19.52.4,1.13.54,1.6h0c.16-.47.33-1.07.54-1.63l1.68-4.6h1.62l-2.3,5.58c-1.1,2.69-1.85,4.06-2.9,4.9a4.36,4.36,0,0,1-1.89.93l-.38-1.2a4,4,0,0,0,1.34-.7,4.27,4.27,0,0,0,1.29-1.58,1.06,1.06,0,0,0,.13-.34,1.23,1.23,0,0,0-.11-.37l-3.13-7.22Z"/><path d="M385.23,253.24A4,4,0,0,1,381,257.4a3.86,3.86,0,0,1-4-4,4,4,0,0,1,4.19-4.15A3.84,3.84,0,0,1,385.23,253.24Zm-6.71.08a2.6,2.6,0,1,0,5.14,0c0-1.33-.72-3-2.53-3S378.52,251.84,378.52,253.32Z"/><path d="M394.25,255.09c0,.81,0,1.52.07,2.13H393l-.09-1.28h0A3.22,3.22,0,0,1,390,257.4c-1.33,0-2.92-.68-2.92-3.43v-4.58h1.54v4.34c0,1.49.49,2.49,1.88,2.49a2.2,2.2,0,0,0,2-1.3,1.85,1.85,0,0,0,.14-.72v-4.81h1.54Z"/><path d="M396.8,251.84c0-.93,0-1.72-.07-2.45h1.35l.05,1.54h.07a2.5,2.5,0,0,1,2.34-1.71,1.94,1.94,0,0,1,.44,0v1.35a2.12,2.12,0,0,0-.53-.05,2.09,2.09,0,0,0-2.06,1.83,4.18,4.18,0,0,0-.07.66v4.17H396.8Z"/><path d="M406.22,245.74h1.54v4.88h0a2.78,2.78,0,0,1,1.11-1,3.35,3.35,0,0,1,1.57-.4c1.13,0,2.95.64,2.95,3.34v4.66h-1.54v-4.49c0-1.27-.5-2.33-1.95-2.33a2.19,2.19,0,0,0-2.07,1.42,1.71,1.71,0,0,0-.1.68v4.72h-1.54Z"/><path d="M420.6,257.22l-.12-1h-.05a3.22,3.22,0,0,1-2.59,1.17,2.33,2.33,0,0,1-2.58-2.25c0-1.89,1.81-2.93,5.08-2.91v-.16c0-.65-.19-1.81-1.92-1.81a4.39,4.39,0,0,0-2.2.58l-.35-.94a5.57,5.57,0,0,1,2.78-.69,2.86,2.86,0,0,1,3.21,3.2v2.93a10.63,10.63,0,0,0,.14,1.87Zm-.22-4c-1.68,0-3.59.24-3.59,1.76a1.32,1.32,0,0,0,1.46,1.36,2.1,2.1,0,0,0,2-1.31,1.5,1.5,0,0,0,.09-.45Z"/><path d="M424.28,257.22c0-.53.07-1.32.07-2v-9.46h1.52v4.91h0a3.21,3.21,0,0,1,2.88-1.43c2.1,0,3.58,1.61,3.57,4a3.84,3.84,0,0,1-3.79,4.19,3.06,3.06,0,0,1-2.83-1.47h-.06l-.07,1.29Zm1.59-3.14a2.85,2.85,0,0,0,.06.52,2.35,2.35,0,0,0,2.31,1.67c1.61,0,2.57-1.22,2.57-3,0-1.57-.87-2.91-2.52-2.91a2.43,2.43,0,0,0-2.34,1.74,3.12,3.12,0,0,0-.08.59Z"/><path d="M436,247.19a1,1,0,0,1-1.9,0,.9.9,0,0,1,1-.89A.88.88,0,0,1,436,247.19Zm-1.71,10v-7.83h1.54v7.83Z"/><path d="M440.23,247.15v2.24h2.2v1.09h-2.2v4.22c0,1,.3,1.52,1.15,1.52a3.5,3.5,0,0,0,.89-.1l.07,1.07a4.06,4.06,0,0,1-1.36.19,2.27,2.27,0,0,1-1.66-.59,2.8,2.8,0,0,1-.59-2v-4.27h-1.31v-1.09h1.31v-1.87Z"/><path d="M449.72,247.15v2.24h2.2v1.09h-2.2v4.22c0,1,.3,1.52,1.15,1.52a3.56,3.56,0,0,0,.89-.1l.07,1.07a4.06,4.06,0,0,1-1.36.19,2.25,2.25,0,0,1-1.66-.59,2.76,2.76,0,0,1-.59-2v-4.27h-1.31v-1.09h1.31v-1.87Z"/><path d="M453.65,251.84c0-.93,0-1.72-.07-2.45h1.35l.05,1.54h.07a2.5,2.5,0,0,1,2.34-1.71,1.94,1.94,0,0,1,.44,0v1.35a2.12,2.12,0,0,0-.53-.05,2.09,2.09,0,0,0-2.06,1.83,4.18,4.18,0,0,0-.07.66v4.17h-1.52Z"/><path d="M464,257.22l-.12-1h0a3.22,3.22,0,0,1-2.59,1.17,2.33,2.33,0,0,1-2.58-2.25c0-1.89,1.81-2.93,5.08-2.91v-.16c0-.65-.19-1.81-1.92-1.81a4.39,4.39,0,0,0-2.2.58l-.35-.94a5.57,5.57,0,0,1,2.78-.69,2.86,2.86,0,0,1,3.21,3.2v2.93a10.63,10.63,0,0,0,.14,1.87Zm-.22-4c-1.68,0-3.59.24-3.59,1.76a1.32,1.32,0,0,0,1.45,1.36,2.12,2.12,0,0,0,2-1.31,1.5,1.5,0,0,0,.09-.45Z"/><path d="M473.73,256.93a6.12,6.12,0,0,1-2.43.45,3.87,3.87,0,0,1-4.21-4c0-2.41,1.78-4.16,4.54-4.16a5.41,5.41,0,0,1,2.14.41l-.35,1.1a3.75,3.75,0,0,0-1.79-.38,2.81,2.81,0,0,0-3,3,2.78,2.78,0,0,0,2.93,2.93,4.62,4.62,0,0,0,1.89-.39Z"/><path d="M477.05,253h0c.21-.27.5-.61.75-.89l2.48-2.7h1.85l-3.26,3.22,3.72,4.61h-1.87l-2.92-3.75-.79.81v2.94h-1.52V245.74h1.52Z"/><path d="M484.59,253.57a2.61,2.61,0,0,0,2.9,2.71,5.9,5.9,0,0,0,2.34-.4l.26,1a7.48,7.48,0,0,1-2.81.48c-2.61,0-4.16-1.58-4.16-3.94a3.91,3.91,0,0,1,4-4.22,3.4,3.4,0,0,1,3.5,3.68c0,.29,0,.52-.05.67Zm4.5-1a2.08,2.08,0,0,0-2.13-2.32,2.46,2.46,0,0,0-2.36,2.32Z"/><path d="M492.49,251.84c0-.93,0-1.72-.07-2.45h1.34l.05,1.54h.07a2.51,2.51,0,0,1,2.34-1.71,1.94,1.94,0,0,1,.44,0v1.35a2,2,0,0,0-.52-.05,2.08,2.08,0,0,0-2.06,1.83,3.26,3.26,0,0,0-.07.66v4.17h-1.52Z"/><path d="M498,255.77a4.32,4.32,0,0,0,2,.56c1.12,0,1.64-.52,1.64-1.16s-.44-1-1.57-1.44c-1.52-.5-2.24-1.28-2.24-2.22,0-1.26,1.1-2.29,2.92-2.29a4.49,4.49,0,0,1,2.08.48l-.39,1a3.4,3.4,0,0,0-1.73-.46c-.9,0-1.41.49-1.41,1.07s.51.94,1.61,1.33c1.46.51,2.21,1.19,2.21,2.36,0,1.37-1.15,2.34-3.16,2.34a5.16,5.16,0,0,1-2.37-.53Z"/><path d="M510.68,247.15v2.24h2.2v1.09h-2.2v4.22c0,1,.3,1.52,1.15,1.52a3.56,3.56,0,0,0,.89-.1l.07,1.07a4.15,4.15,0,0,1-1.36.19,2.25,2.25,0,0,1-1.66-.59,2.76,2.76,0,0,1-.59-2v-4.27h-1.32v-1.09h1.32v-1.87Z"/><path d="M522.16,253.24A4,4,0,0,1,518,257.4a3.87,3.87,0,0,1-4.06-4,4,4,0,0,1,4.2-4.15A3.84,3.84,0,0,1,522.16,253.24Zm-6.71.08a2.73,2.73,0,0,0,2.57,3,2.76,2.76,0,0,0,2.57-3c0-1.33-.72-3-2.54-3S515.45,251.84,515.45,253.32Z"/><path d="M534.88,255.09c0,.81,0,1.52.07,2.13h-1.36l-.09-1.28h0a3.26,3.26,0,0,1-2.8,1.46c-1.33,0-2.92-.68-2.92-3.43v-4.58h1.54v4.34c0,1.49.49,2.49,1.89,2.49a2.2,2.2,0,0,0,2-1.3,1.85,1.85,0,0,0,.14-.72v-4.81h1.54Z"/><path d="M537.43,251.51c0-.81,0-1.47-.07-2.12h1.37l.08,1.3h0a3.14,3.14,0,0,1,2.79-1.47c1.18,0,3,.64,3,3.33v4.67H543.1v-4.51c0-1.26-.51-2.31-2-2.31a2.16,2.16,0,0,0-2.06,1.45,1.92,1.92,0,0,0-.11.67v4.7h-1.54Z"/><path d="M547.13,245.74h1.54v11.48h-1.54Z"/><path d="M558.91,253.24a4,4,0,0,1-4.21,4.16,3.86,3.86,0,0,1-4.05-4,4,4,0,0,1,4.19-4.15A3.84,3.84,0,0,1,558.91,253.24Zm-6.71.08a2.6,2.6,0,1,0,5.14,0c0-1.33-.72-3-2.53-3S552.2,251.84,552.2,253.32Z"/><path d="M566.88,256.93a6.12,6.12,0,0,1-2.43.45,3.87,3.87,0,0,1-4.21-4c0-2.41,1.78-4.16,4.54-4.16a5.41,5.41,0,0,1,2.14.41l-.35,1.1a3.75,3.75,0,0,0-1.79-.38,2.95,2.95,0,1,0,0,5.89,4.66,4.66,0,0,0,1.89-.39Z"/><path d="M570.2,253h0c.21-.27.5-.61.75-.89l2.48-2.7h1.85l-3.27,3.22,3.73,4.61h-1.87L571,253.47l-.79.81v2.94h-1.52V245.74h1.52Z"/><path d="M582.43,247.15v2.24h2.21v1.09h-2.21v4.22c0,1,.3,1.52,1.16,1.52a3.56,3.56,0,0,0,.89-.1l.07,1.07a4.15,4.15,0,0,1-1.36.19,2.24,2.24,0,0,1-1.66-.59,2.76,2.76,0,0,1-.6-2v-4.27h-1.31v-1.09h1.31v-1.87Z"/><path d="M586.37,245.74h1.53v4.88h0a2.75,2.75,0,0,1,1.1-1,3.38,3.38,0,0,1,1.57-.4c1.14,0,3,.64,3,3.34v4.66H592v-4.49c0-1.27-.51-2.33-2-2.33a2.19,2.19,0,0,0-2.06,1.42,1.54,1.54,0,0,0-.11.68v4.72h-1.53Z"/><path d="M596.92,253.57a2.62,2.62,0,0,0,2.9,2.71,5.92,5.92,0,0,0,2.35-.4l.26,1a7.49,7.49,0,0,1-2.82.48c-2.6,0-4.15-1.58-4.15-3.94a3.91,3.91,0,0,1,4-4.22,3.4,3.4,0,0,1,3.5,3.68,4.55,4.55,0,0,1-.06.67Zm4.51-1a2.08,2.08,0,0,0-2.13-2.32,2.45,2.45,0,0,0-2.36,2.32Z"/><path d="M608.53,245.74h1.53v11.48h-1.53Z"/><path d="M617.34,257.22l-.13-1h-.05a3.22,3.22,0,0,1-2.59,1.17,2.33,2.33,0,0,1-2.58-2.25c0-1.89,1.82-2.93,5.08-2.91v-.16c0-.65-.19-1.81-1.92-1.81a4.39,4.39,0,0,0-2.2.58l-.35-.94a5.57,5.57,0,0,1,2.78-.69,2.86,2.86,0,0,1,3.21,3.2v2.93a10.63,10.63,0,0,0,.14,1.87Zm-.23-4c-1.68,0-3.58.24-3.58,1.76a1.31,1.31,0,0,0,1.45,1.36,2.09,2.09,0,0,0,2-1.31,1.5,1.5,0,0,0,.09-.45Z"/><path d="M621.08,251.51c0-.81,0-1.47-.07-2.12h1.36l.09,1.3h0a3.15,3.15,0,0,1,2.8-1.47c1.17,0,3,.64,3,3.33v4.67h-1.53v-4.51c0-1.26-.51-2.31-2-2.31a2.16,2.16,0,0,0-2.06,1.45,1.92,1.92,0,0,0-.11.67v4.7h-1.53Z"/><path d="M638.08,245.74v9.46c0,.7,0,1.49.07,2h-1.38l-.07-1.36h0a3.16,3.16,0,0,1-2.88,1.54,3.68,3.68,0,0,1-3.62-4,3.86,3.86,0,0,1,3.79-4.2,2.91,2.91,0,0,1,2.56,1.19h0v-4.67Zm-1.54,6.84a2.46,2.46,0,0,0-.07-.6,2.24,2.24,0,0,0-2.22-1.65c-1.59,0-2.53,1.3-2.53,3,0,1.58.84,2.89,2.5,2.89a2.27,2.27,0,0,0,2.25-1.7,2.37,2.37,0,0,0,.07-.61Z"/><path d="M640.42,255.77a4.35,4.35,0,0,0,2,.56c1.12,0,1.64-.52,1.64-1.16s-.44-1-1.57-1.44c-1.52-.5-2.24-1.28-2.24-2.22,0-1.26,1.1-2.29,2.92-2.29a4.46,4.46,0,0,1,2.08.48l-.39,1a3.39,3.39,0,0,0-1.72-.46c-.91,0-1.42.49-1.42,1.07s.51.94,1.61,1.33c1.47.51,2.22,1.19,2.22,2.36,0,1.37-1.16,2.34-3.17,2.34a5.16,5.16,0,0,1-2.37-.53Z"/><path d="M653.58,256.93a6.12,6.12,0,0,1-2.43.45,3.87,3.87,0,0,1-4.21-4c0-2.41,1.78-4.16,4.54-4.16a5.32,5.32,0,0,1,2.13.41l-.34,1.1a3.75,3.75,0,0,0-1.79-.38,2.95,2.95,0,1,0-.05,5.89,4.66,4.66,0,0,0,1.89-.39Z"/><path d="M660.06,257.22l-.12-1h-.05a3.22,3.22,0,0,1-2.59,1.17,2.33,2.33,0,0,1-2.58-2.25c0-1.89,1.82-2.93,5.08-2.91v-.16c0-.65-.19-1.81-1.92-1.81a4.39,4.39,0,0,0-2.2.58l-.35-.94a5.57,5.57,0,0,1,2.78-.69,2.86,2.86,0,0,1,3.21,3.2v2.93a10.63,10.63,0,0,0,.14,1.87Zm-.22-4c-1.68,0-3.58.24-3.58,1.76a1.31,1.31,0,0,0,1.45,1.36,2.09,2.09,0,0,0,2-1.31,1.5,1.5,0,0,0,.09-.45Z"/><path d="M663.81,252c0-1,0-1.81-.07-2.56h1.38l.07,1.35h0a3.39,3.39,0,0,1,3-1.52,3.65,3.65,0,0,1,3.58,4c0,2.82-1.85,4.21-3.85,4.21a3,3,0,0,1-2.6-1.23h0v4.25h-1.52Zm1.52,2.09a2.63,2.63,0,0,0,.07.58,2.34,2.34,0,0,0,2.3,1.66c1.63,0,2.57-1.23,2.57-3,0-1.57-.89-2.91-2.52-2.91a2.42,2.42,0,0,0-2.32,1.76,2.27,2.27,0,0,0-.1.58Z"/><path d="M674.61,253.57a2.61,2.61,0,0,0,2.9,2.71,5.9,5.9,0,0,0,2.34-.4l.26,1a7.48,7.48,0,0,1-2.81.48c-2.61,0-4.16-1.58-4.16-3.94a3.91,3.91,0,0,1,4-4.22,3.4,3.4,0,0,1,3.5,3.68c0,.29,0,.52-.05.67Zm4.5-1a2.08,2.08,0,0,0-2.13-2.32,2.46,2.46,0,0,0-2.36,2.32Z"/><path d="M681.93,256.38a1,1,0,0,1,1.05-1,1,1,0,1,1,0,2A1,1,0,0,1,681.93,256.38Z"/><path d="M392.92,265.73h1.52V271h.06c.31-.42.62-.8.92-1.16l3.6-4.09h1.89l-4.27,4.62,4.6,6.28h-1.8l-3.88-5.35-1.12,1.19v4.16h-1.52Z"/><path d="M403.2,273a2.61,2.61,0,0,0,2.9,2.72,6.09,6.09,0,0,0,2.34-.4l.26,1a7.48,7.48,0,0,1-2.81.48c-2.6,0-4.16-1.58-4.16-4a3.92,3.92,0,0,1,4-4.22,3.4,3.4,0,0,1,3.49,3.69,4.54,4.54,0,0,1-.05.66Zm4.51-1a2.08,2.08,0,0,0-2.13-2.31,2.44,2.44,0,0,0-2.36,2.31Z"/><path d="M412,273a2.62,2.62,0,0,0,2.9,2.72,6.11,6.11,0,0,0,2.35-.4l.26,1a7.48,7.48,0,0,1-2.81.48c-2.61,0-4.16-1.58-4.16-4a3.91,3.91,0,0,1,4-4.22,3.41,3.41,0,0,1,3.5,3.69,4.26,4.26,0,0,1-.06.66Zm4.51-1a2.07,2.07,0,0,0-2.13-2.31A2.45,2.45,0,0,0,412,272Z"/><path d="M419.85,271.36c0-1,0-1.82-.07-2.56h1.38l.07,1.34h0a3.39,3.39,0,0,1,3-1.52c2.05,0,3.59,1.6,3.59,4,0,2.82-1.86,4.21-3.85,4.21a3.05,3.05,0,0,1-2.6-1.23h0v4.25h-1.52Zm1.52,2.08a3.29,3.29,0,0,0,.07.58,2.35,2.35,0,0,0,2.31,1.67c1.62,0,2.57-1.23,2.57-3,0-1.57-.89-2.92-2.52-2.92a2.42,2.42,0,0,0-2.32,1.77,2.29,2.29,0,0,0-.11.58Z"/><path d="M438.18,276.63l-.12-1H438a3.22,3.22,0,0,1-2.59,1.17,2.33,2.33,0,0,1-2.58-2.25c0-1.89,1.82-2.93,5.08-2.91v-.16c0-.65-.19-1.82-1.92-1.82a4.43,4.43,0,0,0-2.2.59l-.35-.94a5.57,5.57,0,0,1,2.78-.7,2.87,2.87,0,0,1,3.21,3.21v2.92a10.67,10.67,0,0,0,.14,1.88Zm-.22-4c-1.68,0-3.58.25-3.58,1.77a1.31,1.31,0,0,0,1.45,1.36,2.09,2.09,0,0,0,2-1.31A1.5,1.5,0,0,0,438,274Z"/><path d="M441.93,270.92c0-.81,0-1.47-.07-2.12h1.36l.09,1.29h0a3.17,3.17,0,0,1,2.8-1.47c1.17,0,3,.65,3,3.33v4.68h-1.53v-4.51c0-1.27-.51-2.32-2-2.32a2.17,2.17,0,0,0-2.06,1.46,1.9,1.9,0,0,0-.11.66v4.71h-1.53Z"/><path d="M456.19,273a2.61,2.61,0,0,0,2.9,2.72,6.09,6.09,0,0,0,2.34-.4l.26,1a7.48,7.48,0,0,1-2.81.48c-2.61,0-4.16-1.58-4.16-4a3.91,3.91,0,0,1,4-4.22,3.4,3.4,0,0,1,3.5,3.69c0,.29,0,.52-.05.66Zm4.5-1a2.07,2.07,0,0,0-2.13-2.31A2.46,2.46,0,0,0,456.2,272Z"/><path d="M464.65,268.8l1.85,4.63c.19.51.4,1.13.54,1.6h0c.16-.47.34-1.07.55-1.64l1.67-4.59h1.63l-2.31,5.58c-1.1,2.69-1.85,4.06-2.9,4.9a4.15,4.15,0,0,1-1.89.92l-.38-1.19a4.37,4.37,0,0,0,1.35-.7,4.55,4.55,0,0,0,1.29-1.58,1,1,0,0,0,.12-.34,1.17,1.17,0,0,0-.1-.38L463,268.8Z"/><path d="M473,273a2.61,2.61,0,0,0,2.9,2.72,6.09,6.09,0,0,0,2.34-.4l.26,1a7.43,7.43,0,0,1-2.81.48c-2.6,0-4.16-1.58-4.16-4a3.92,3.92,0,0,1,4-4.22,3.4,3.4,0,0,1,3.49,3.69,4.54,4.54,0,0,1-.05.66Zm4.51-1a2.08,2.08,0,0,0-2.13-2.31A2.44,2.44,0,0,0,473,272Z"/><path d="M492.26,272.65a4,4,0,0,1-4.21,4.16,3.87,3.87,0,0,1-4.06-4,4,4,0,0,1,4.19-4.16A3.86,3.86,0,0,1,492.26,272.65Zm-6.71.08a2.72,2.72,0,0,0,2.57,3,2.75,2.75,0,0,0,2.56-3c0-1.33-.71-3-2.53-3S485.55,271.24,485.55,272.73Z"/><path d="M501.27,274.49c0,.81,0,1.52.07,2.14H500l-.09-1.28h0a3.23,3.23,0,0,1-2.8,1.46c-1.32,0-2.91-.68-2.91-3.43V268.8h1.53v4.34c0,1.48.49,2.49,1.89,2.49a2.23,2.23,0,0,0,2-1.3,2.11,2.11,0,0,0,.14-.73v-4.8h1.53Z"/><path d="M505.68,266.55v2.25h2.2v1.08h-2.2v4.23c0,1,.3,1.52,1.15,1.52a3.56,3.56,0,0,0,.89-.1l.07,1.07a4.11,4.11,0,0,1-1.36.19,2.22,2.22,0,0,1-1.66-.6,2.73,2.73,0,0,1-.59-2v-4.27h-1.31V268.8h1.31v-1.88Z"/><path d="M513.47,276.63v-6.75h-1.18V268.8h1.18v-.37a3.54,3.54,0,0,1,1-2.73,3.08,3.08,0,0,1,2.06-.73,3.84,3.84,0,0,1,1.31.22l-.21,1.1a2.56,2.56,0,0,0-1-.17c-1.31,0-1.65,1.06-1.65,2.26v.42h2v1.08h-2v6.75Z"/><path d="M525.85,272.65a4,4,0,0,1-4.21,4.16,3.87,3.87,0,0,1-4.06-4,4,4,0,0,1,4.19-4.16A3.86,3.86,0,0,1,525.85,272.65Zm-6.71.08a2.72,2.72,0,0,0,2.57,3,2.75,2.75,0,0,0,2.56-3c0-1.33-.71-3-2.53-3S519.14,271.24,519.14,272.73Z"/><path d="M527.79,271.24c0-.92,0-1.71-.07-2.44h1.34l.06,1.54h.07a2.51,2.51,0,0,1,2.34-1.72,1.88,1.88,0,0,1,.43.05V270a2.54,2.54,0,0,0-.52-.05,2.1,2.1,0,0,0-2.06,1.83,3.36,3.36,0,0,0-.07.67v4.17h-1.52Z"/><path d="M537,275.17a4.19,4.19,0,0,0,2,.57c1.12,0,1.65-.52,1.65-1.17s-.44-1.05-1.58-1.43c-1.52-.51-2.23-1.28-2.23-2.22,0-1.26,1.1-2.3,2.92-2.3a4.44,4.44,0,0,1,2.07.49l-.38,1a3.51,3.51,0,0,0-1.73-.45c-.91,0-1.41.49-1.41,1.07s.5.94,1.6,1.32c1.47.52,2.22,1.2,2.22,2.37,0,1.37-1.15,2.34-3.16,2.34a5.2,5.2,0,0,1-2.38-.53Z"/><path d="M551.2,274.49c0,.81,0,1.52.07,2.14h-1.36l-.09-1.28h0a3.23,3.23,0,0,1-2.8,1.46c-1.32,0-2.91-.68-2.91-3.43V268.8h1.53v4.34c0,1.48.49,2.49,1.89,2.49a2.23,2.23,0,0,0,2-1.3,2.11,2.11,0,0,0,.14-.73v-4.8h1.53Z"/><path d="M553.76,271.24c0-.92,0-1.71-.07-2.44H555l.06,1.54h.07a2.51,2.51,0,0,1,2.34-1.72,1.88,1.88,0,0,1,.43.05V270a2.54,2.54,0,0,0-.52-.05,2.1,2.1,0,0,0-2.06,1.83,3.36,3.36,0,0,0-.07.67v4.17h-1.52Z"/><path d="M559.54,271.36c0-1,0-1.82-.07-2.56h1.38l.07,1.34h0a3.39,3.39,0,0,1,3-1.52c2,0,3.58,1.6,3.58,4,0,2.82-1.85,4.21-3.84,4.21a3,3,0,0,1-2.6-1.23h0v4.25h-1.52Zm1.52,2.08a3.29,3.29,0,0,0,.07.58,2.35,2.35,0,0,0,2.31,1.67c1.62,0,2.57-1.23,2.57-3,0-1.57-.89-2.92-2.52-2.92a2.41,2.41,0,0,0-2.32,1.77,1.92,1.92,0,0,0-.11.58Z"/><path d="M569.49,271.24c0-.92,0-1.71-.07-2.44h1.34l0,1.54h.07a2.53,2.53,0,0,1,2.35-1.72,1.88,1.88,0,0,1,.43.05V270a2.62,2.62,0,0,0-.52-.05,2.1,2.1,0,0,0-2.06,1.83,3.36,3.36,0,0,0-.07.67v4.17h-1.52Z"/><path d="M577,266.6a1,1,0,0,1-1.9,0,.9.9,0,0,1,1-.89A.88.88,0,0,1,577,266.6Zm-1.71,10V268.8h1.54v7.83Z"/><path d="M579.15,275.17a4.2,4.2,0,0,0,2,.57c1.12,0,1.64-.52,1.64-1.17s-.44-1.05-1.57-1.43c-1.52-.51-2.24-1.28-2.24-2.22,0-1.26,1.1-2.3,2.92-2.3a4.49,4.49,0,0,1,2.08.49l-.39,1a3.51,3.51,0,0,0-1.73-.45c-.91,0-1.41.49-1.41,1.07s.5.94,1.61,1.32c1.46.52,2.21,1.2,2.21,2.37,0,1.37-1.15,2.34-3.16,2.34a5.16,5.16,0,0,1-2.37-.53Z"/><path d="M587.14,273a2.61,2.61,0,0,0,2.9,2.72,6.09,6.09,0,0,0,2.34-.4l.26,1a7.48,7.48,0,0,1-2.81.48c-2.61,0-4.16-1.58-4.16-4a3.92,3.92,0,0,1,4-4.22,3.4,3.4,0,0,1,3.49,3.69c0,.29,0,.52,0,.66Zm4.5-1a2.07,2.07,0,0,0-2.13-2.31,2.46,2.46,0,0,0-2.36,2.31Z"/><path d="M594.83,275.17a4.16,4.16,0,0,0,2,.57c1.12,0,1.65-.52,1.65-1.17s-.44-1.05-1.58-1.43c-1.52-.51-2.23-1.28-2.23-2.22,0-1.26,1.1-2.3,2.91-2.3a4.45,4.45,0,0,1,2.08.49l-.38,1a3.51,3.51,0,0,0-1.73-.45c-.91,0-1.42.49-1.42,1.07s.51.94,1.61,1.32c1.47.52,2.22,1.2,2.22,2.37,0,1.37-1.15,2.34-3.16,2.34a5.2,5.2,0,0,1-2.38-.53Z"/><path d="M601.66,275.8a1,1,0,0,1,1-1,1,1,0,0,1,1,1,1,1,0,0,1-1,1A1,1,0,0,1,601.66,275.8Zm.44-2.31-.25-7.76h1.68l-.25,7.76Z"/></svg>