<svg id="Layer_1" data-name="Layer 1" xmlns="http://www.w3.org/2000/svg" xmlns:xlink="http://www.w3.org/1999/xlink" viewBox="0 0 1000 686"><defs><style>.cls-1{fill:url(#linear-gradient);}.cls-2{fill:#f7edbe;}.cls-3{fill:#d0e9f4;}.cls-4{fill:#d4dbe8;}.cls-5{fill:#b43115;}.cls-6{fill:url(#linear-gradient-2);}.cls-7{fill:url(#linear-gradient-3);}.cls-14,.cls-16,.cls-17,.cls-8,.cls-9{fill:none;}.cls-16,.cls-17,.cls-8,.cls-9{stroke:#fbb03b;stroke-linecap:round;stroke-width:7px;}.cls-8,.cls-9{stroke-linejoin:bevel;}.cls-9{stroke-dasharray:11.95 11.95;}.cls-10{fill:url(#linear-gradient-4);}.cls-11{fill:#b3d2ff;}.cls-12{fill:url(#linear-gradient-5);}.cls-13{fill:#61e5b9;}.cls-14{stroke:#42210b;stroke-width:3px;}.cls-14,.cls-16,.cls-17{stroke-miterlimit:10;}.cls-15{fill:#10fff3;}.cls-17{stroke-dasharray:12.03 12.03;}.cls-18{fill:url(#linear-gradient-6);}.cls-19{fill:url(#linear-gradient-7);}.cls-20{fill:url(#linear-gradient-8);}.cls-21{fill:url(#linear-gradient-9);}.cls-22{fill:url(#linear-gradient-10);}</style><linearGradient id="linear-gradient" x1="498.5" y1="679.6" x2="501.61" y2="-19.19" gradientUnits="userSpaceOnUse"><stop offset="0" stop-color="#fefefe"/><stop offset="0.62" stop-color="#f1faff"/><stop offset="0.8" stop-color="#edf9ff"/></linearGradient><linearGradient id="linear-gradient-2" x1="109.78" y1="-2229.13" x2="110" y2="-2292.78" gradientTransform="matrix(1, 0, 0, -1, 694, -1778.08)" gradientUnits="userSpaceOnUse"><stop offset="0.46" stop-color="#d1f1b8"/><stop offset="1" stop-color="#f6fdf1"/></linearGradient><linearGradient id="linear-gradient-3" x1="-10.21" y1="-2286.12" x2="-9.97" y2="-2356.76" xlink:href="#linear-gradient-2"/><linearGradient id="linear-gradient-4" x1="-357.12" y1="-2231" x2="-356.91" y2="-2290.48" xlink:href="#linear-gradient-2"/><linearGradient id="linear-gradient-5" x1="-532.98" y1="-2157.78" x2="-532.6" y2="-2264.85" xlink:href="#linear-gradient-2"/><linearGradient id="linear-gradient-6" x1="465.09" y1="369.82" x2="464.08" y2="207.9" gradientUnits="userSpaceOnUse"><stop offset="0" stop-color="#fefefe"/><stop offset="0.09" stop-color="#f6f1fc"/><stop offset="0.27" stop-color="#e2d0f6"/><stop offset="0.5" stop-color="#c29aec"/><stop offset="0.78" stop-color="#9650df"/><stop offset="0.82" stop-color="#8f45dd"/></linearGradient><linearGradient id="linear-gradient-7" x1="340.63" y1="375.87" x2="340.11" y2="292.94" xlink:href="#linear-gradient-6"/><linearGradient id="linear-gradient-8" x1="565.91" y1="403.13" x2="565.45" y2="328.94" xlink:href="#linear-gradient-6"/><linearGradient id="linear-gradient-9" x1="149.92" y1="338.12" x2="148.92" y2="176.21" xlink:href="#linear-gradient-6"/><linearGradient id="linear-gradient-10" x1="892.24" y1="398.06" x2="891.69" y2="309.75" xlink:href="#linear-gradient-6"/></defs><rect class="cls-1" width="1000" height="686" rx="23.47"/><circle class="cls-2" cx="923.68" cy="68.02" r="24.68"/><ellipse class="cls-3" cx="871.35" cy="89.88" rx="23.84" ry="21.37"/><ellipse class="cls-3" cx="844.12" cy="96.72" rx="19.41" ry="17.4"/><ellipse class="cls-3" cx="897.07" cy="92.81" rx="19.41" ry="17.4"/><ellipse class="cls-3" cx="863.53" cy="103.38" rx="15.06" ry="13.5"/><ellipse class="cls-3" cx="111.62" cy="142.85" rx="22.95" ry="22.62"/><ellipse class="cls-3" cx="85.41" cy="150.08" rx="18.68" ry="18.41"/><ellipse class="cls-3" cx="136.37" cy="145.94" rx="18.68" ry="18.41"/><ellipse class="cls-3" cx="104.1" cy="157.13" rx="14.5" ry="14.29"/><path class="cls-4" d="M12.18,648.65c-2-5.17,11.2-18.4,27.68-17.47,12.67.71,24.34,9.63,22.93,14.67C60.29,654.76,15.37,656.79,12.18,648.65Z"/><path class="cls-5" d="M277.26,531.79a7.58,7.58,0,0,0-4.86,1.68,5.08,5.08,0,0,0,0,8.11,7.87,7.87,0,0,0,9.72,0,5.1,5.1,0,0,0,0-8.11A7.6,7.6,0,0,0,277.26,531.79ZM258,543.26c-3.28,0-6,1.91-6.7,4.47l-2.71,9.1a4.65,4.65,0,0,0-.22,1.35c0,3.17,3.08,5.74,6.88,5.74a8.94,8.94,0,0,0,1.48-.15,8.49,8.49,0,0,1-.11-1,9,9,0,0,1,.25-2l4.17-16.83A7.75,7.75,0,0,0,258,543.26Zm41.23,2.28a1.6,1.6,0,0,0-.53.09,1.5,1.5,0,0,0-.44.26,1.28,1.28,0,0,0-.29.37,1,1,0,0,0-.09.44V549l-7.1,5.25-6.61-3.44c0,.11,0,.22-.05.34l-1.32,6.1a70.16,70.16,0,0,0,8.37,2.08,3.08,3.08,0,0,0,1.82-.58l4.89-3.62v30.59a1,1,0,0,0,.09.44,1.1,1.1,0,0,0,.3.38,1.43,1.43,0,0,0,.45.26,1.8,1.8,0,0,0,1.06,0,1.43,1.43,0,0,0,.45-.26,1.1,1.1,0,0,0,.3-.38,1.13,1.13,0,0,0,.1-.44V553.1l1-.72a2,2,0,0,0,.23-3.24,2.76,2.76,0,0,0-1.19-.61V546.7a1.13,1.13,0,0,0-.1-.44,1,1,0,0,0-.31-.38,1.43,1.43,0,0,0-.45-.26A2,2,0,0,0,299.24,545.54Zm-27.49,0c-3.37,0-6.17,2-6.74,4.71h0l-2.72,11.32h0a4.89,4.89,0,0,0-.14,1.15,5.38,5.38,0,0,0,2.49,4.38l0,.06,10.7,7,3.06,9.61.26,1.08a2.19,2.19,0,0,0,.93,1.38,3.16,3.16,0,0,0,3.73-.12,2.15,2.15,0,0,0,.8-1.63,1.73,1.73,0,0,0-.05-.45l-2.75-11.47a2.05,2.05,0,0,0-.44-.87l-5.15-7.85s0,0,0-.07l2.7-11.27h0a5,5,0,0,0,.18-1.29C278.63,548.13,275.55,545.56,271.75,545.56ZM262,570.17l-1.41,3.9-6.13,9-.2.28h0l-.09.13,0,0a2,2,0,0,0-.28,1,2.12,2.12,0,0,0,.81,1.63,3,3,0,0,0,1.94.67,3.28,3.28,0,0,0,1.25-.25,2.7,2.7,0,0,0,1-.7h0l0,0h0l9.15-11.59Z"/><path class="cls-4" d="M97.49,671.7c-1.63-3.78,9-13.44,22.33-12.77,10.23.53,19.64,7.05,18.5,10.73C136.31,676.17,100.06,677.65,97.49,671.7Z"/><path class="cls-4" d="M43.59,670.6c-1.22-2.86,6.8-10.17,16.81-9.66,7.69.4,14.78,5.33,13.92,8.11C72.8,674,45.53,675.1,43.59,670.6Z"/><path class="cls-4" d="M121.11,643.64c-1.6-3.69,8.89-13.14,22-12.48,10.06.51,19.32,6.89,18.19,10.48C159.28,648,123.64,649.46,121.11,643.64Z"/><path class="cls-6" d="M759.23,499.75l-9.05-7.39-5.71,6.83L736.38,508H871.57l-12.85-28.28h-21.9L809.21,451l-35.7,28.7h-5.24Z"/><path class="cls-7" d="M633.42,562.08l-10.23-8.21-6.46,7.58-9.15,9.8H760.43L745.9,539.88H721.14L689.93,508l-40.37,31.86h-5.92Z"/><path class="cls-8" d="M149.92,660.21c2,.61,3.87,1.18,5.75,1.71"/><path class="cls-9" d="M167.26,664.84c34.33,7.52,53.93,1.21,65.82-7.32,17-12.18,17.3-28.23,44.6-48.66a140.52,140.52,0,0,1,39.75-20.8c20.26-6.69,36.74-6.82,55.85-6.82,36.22,0,38.67,6.47,61.71,4.53,28.49-2.4,36.59-13.27,60.85-20.1,18.94-5.33,46.41-7.84,84.15,4.48"/><path class="cls-8" d="M585.64,572.08q2.77,1,5.63,2.09"/><path class="cls-10" d="M296,498.43l-8.31-6.91-5.25,6.38L275,506.15H399.16l-11.81-26.42H367.24L341.88,452.9l-32.8,26.83h-4.81Z"/><path class="cls-11" d="M924.31,625c-.48,17.64-59.25,44.55-112.69,30.74-68.43-17.69-128-14.31-128-32s57.74-24.11,128-32C882.71,583.86,924.52,617.3,924.31,625Z"/><path class="cls-12" d="M105.26,461.7,93.92,449.25l-7.16,11.5L76.62,475.62H246.1L230,428H202.53l-34.61-48.34L123.16,428H116.6Z"/><path class="cls-4" d="M697.63,661.76c-1.22-2.86,6.8-10.17,16.8-9.66,7.7.4,14.78,5.33,13.93,8.11C726.84,665.14,699.57,666.26,697.63,661.76Z"/><path class="cls-4" d="M657.26,651.73c-1.6-3.7,8.89-13.14,22-12.48,10.06.51,19.32,6.88,18.2,10.48C695.43,656.09,659.79,657.55,657.26,651.73Z"/><path class="cls-4" d="M904.27,583.76c-1.6-3.69,8.88-13.14,22-12.48,10,.51,19.31,6.89,18.19,10.48C942.44,588.13,906.8,589.58,904.27,583.76Z"/><polygon class="cls-13" points="640.69 592.53 598.55 592.53 619.62 556.04 640.69 592.53"/><polygon class="cls-13" points="644.04 608.24 595.21 608.24 619.62 565.96 644.04 608.24"/><polygon class="cls-13" points="647.98 625.14 591.27 625.14 619.62 576.03 647.98 625.14"/><line class="cls-14" x1="619.62" y1="618.18" x2="619.62" y2="639.22"/><polygon class="cls-13" points="237.23 563.11 195.1 563.11 216.16 526.62 237.23 563.11"/><polygon class="cls-13" points="240.58 578.82 191.75 578.82 216.16 536.54 240.58 578.82"/><polygon class="cls-13" points="244.52 595.72 187.81 595.72 216.16 546.61 244.52 595.72"/><line class="cls-14" x1="216.16" y1="584.74" x2="216.16" y2="605.77"/><polygon class="cls-15" points="70.72 472.93 38.44 472.93 54.58 444.97 70.72 472.93"/><polygon class="cls-15" points="73.28 484.96 35.87 484.96 54.58 452.56 73.28 484.96"/><polygon class="cls-15" points="76.3 497.91 32.85 497.91 54.58 460.28 76.3 497.91"/><line class="cls-14" x1="54.58" y1="489.85" x2="54.58" y2="510.88"/><polygon class="cls-15" points="887.72 541.12 855.43 541.12 871.57 513.16 887.72 541.12"/><polygon class="cls-15" points="890.28 553.16 852.87 553.16 871.57 520.76 890.28 553.16"/><polygon class="cls-15" points="893.3 566.11 849.85 566.11 871.57 528.48 893.3 566.11"/><line class="cls-14" x1="871.57" y1="559.34" x2="871.57" y2="580.37"/><path class="cls-16" d="M251.46,441.67s2.35-.75,5.74-1.71"/><path class="cls-17" d="M268.83,436.84l3.3-.8c22.75-5.32,45.27-10.59,64.37-1.37,13.47,6.5,10.55,13.11,27.4,23.28,6.18,3.74,15.87,8.46,39.72,12.33,17.11,2.78,32.83,3.71,76.7,2.74,32.36-.71,48.54-1.07,56.16-2.74,28.77-6.32,30-15.58,64.37-28.76,22.95-8.8,56.45-21.13,90.4-9.59,9.69,3.29,23.88,8.35,30.13,21.92,6.48,14,.87,29.43-4.43,39.23"/><path class="cls-16" d="M713.89,498.26c-1.81,2.81-3.21,4.58-3.46,4.89"/><polygon class="cls-18" points="353.82 369.13 397.44 252.89 419.25 267.94 448.91 213.75 467.89 226.16 489.13 207.75 519.33 270.51 538.87 263.4 576.35 369.13 353.82 369.13"/><polygon class="cls-19" points="274.97 375.47 322.02 293.05 345.44 311.56 363.69 304.72 406.27 375.47 274.97 375.47"/><polygon class="cls-20" points="501.34 402.73 547.61 329.05 570.65 345.6 588.6 339.48 630.49 402.73 501.34 402.73"/><ellipse class="cls-3" cx="645.49" cy="65.7" rx="23.84" ry="21.37"/><ellipse class="cls-3" cx="618.26" cy="72.54" rx="19.41" ry="17.4"/><ellipse class="cls-3" cx="671.21" cy="68.63" rx="19.41" ry="17.4"/><ellipse class="cls-3" cx="637.67" cy="79.2" rx="15.06" ry="13.5"/><ellipse class="cls-3" cx="714.23" cy="103.46" rx="14" ry="10.76"/><ellipse class="cls-3" cx="698.24" cy="106.9" rx="11.4" ry="8.76"/><ellipse class="cls-3" cx="729.33" cy="104.93" rx="11.4" ry="8.76"/><ellipse class="cls-3" cx="709.64" cy="110.25" rx="8.85" ry="6.8"/><polygon class="cls-13" points="757.45 377.41 715.31 377.41 736.38 340.92 757.45 377.41"/><polygon class="cls-13" points="760.79 393.12 711.97 393.12 736.38 350.83 760.79 393.12"/><polygon class="cls-13" points="764.73 410.02 708.02 410.02 736.38 360.9 764.73 410.02"/><line class="cls-14" x1="736.38" y1="402.72" x2="736.38" y2="423.76"/><path class="cls-4" d="M763.73,439.75c-1.6-3.69,8.89-13.14,22-12.47,10.06.51,19.32,6.88,18.19,10.48C801.9,444.12,766.26,445.57,763.73,439.75Z"/><polygon class="cls-21" points="38.66 337.43 82.27 221.2 104.08 236.24 133.74 182.06 152.72 194.46 173.97 176.05 204.16 238.82 223.7 231.71 261.18 337.43 38.66 337.43"/><ellipse class="cls-3" cx="206.41" cy="201.38" rx="15.76" ry="14.05"/><ellipse class="cls-3" cx="188.41" cy="205.88" rx="12.83" ry="11.44"/><ellipse class="cls-3" cx="223.41" cy="203.3" rx="12.83" ry="11.44"/><ellipse class="cls-3" cx="201.24" cy="210.26" rx="9.96" ry="8.88"/><polygon class="cls-22" points="815.8 397.59 870.58 309.88 897.84 329.58 919.1 322.3 968.68 397.59 815.8 397.59"/><rect class="cls-11" x="141.15" y="214.75" width="26.7" height="128.25" rx="5.99"/><path class="cls-11" d="M215.1,354.74c-.24,8.83-29.62,22.28-56.35,15.37-34.21-8.84-64-7.15-64-16s28.86-12.05,64-16C194.3,334.18,215.2,350.9,215.1,354.74Z"/><path class="cls-11" d="M183,369.13c.43,5.67,31.93,29.16,38.47,36.56,4.95,5.59,13.78,11.45,36.85,12.28,45.41,1.64,57.36-19.38,82.31-9.83,5.69,2.18,14.43,8.83,31.93,22.11,18.24,13.85,17.28,15.28,24.57,19.66,12.24,7.34,20.75,6.79,63.88,8.6,47.13,2,48.26,3.09,59,1.23,10.43-1.82,23.48-7,49.14-17.2,38.1-15.19,40-18.21,56.5-22.11,11.86-2.81,29.42-6.81,51.6-3.69,13.63,1.92,45.51,6.41,56.5,29.48,4.35,9.13,3.93,18,3.69,22.11-1.52,25.9-21.82,33.42-18.43,46.68,2.39,9.34,12.65,6.39,41.77,27,19.53,13.84,25.14,22.41,27,30.71.69,3,.81,5.71,2.46,12.28,3,12.14,4.65,18.54,9.83,22.11,5,3.44,13.62,5,18.42,1.23,8-6.35,2.35-25.29-3.68-45.45-5.1-17-7.65-25.55-14.74-31.94s-16.28-8.83-34.4-13.51c-19.86-5.13-27.58-4.48-29.26-9.45-1.92-5.65,7-9.66,14.52-26.17,2.52-5.52,6.38-14,6.14-23.34-.45-17.62-15.31-30.22-20.66-34.75C723.8,413.1,707.86,409.4,676,402c-18.89-4.38-26.92-4.8-30.71-4.91-3.26-.1-15.12-.32-38.08,4.91-23.12,5.26-41.79,12.47-60.19,19.66-19.91,7.76-20.64,9.1-29.48,11-4,.88-12.86,2.61-44.23,1.23-27.57-1.21-41.53-1.91-50.36-6.14-9.77-4.69-10.68-8.13-29.48-19.66a229.45,229.45,0,0,0-24.57-13.51c-33.14-15-66.58-11.58-71.25-11.06-21.43,2.41-26.84,8.51-41.76,4.92-12.86-3.1-41-24.61-47-31"/></svg>