<svg id="Layer_1" data-name="Layer 1" xmlns="http://www.w3.org/2000/svg" xmlns:xlink="http://www.w3.org/1999/xlink" viewBox="0 0 1000 686"><defs><style>.cls-1{fill:url(#linear-gradient);}.cls-2{fill:#f7edbe;}.cls-3{fill:#d0e9f4;}.cls-4{fill:#d4dbe8;}.cls-5{fill:#b43115;}.cls-6{fill:url(#linear-gradient-2);}.cls-7{fill:url(#linear-gradient-3);}.cls-8,.cls-9{fill:none;stroke:#fbb03b;stroke-linecap:round;stroke-linejoin:bevel;stroke-width:7px;}.cls-9{stroke-dasharray:11.95 11.95;}.cls-10{fill:url(#linear-gradient-4);}.cls-11{fill:#b3d2ff;}</style><linearGradient id="linear-gradient" x1="498.5" y1="679.6" x2="501.61" y2="-19.19" gradientUnits="userSpaceOnUse"><stop offset="0" stop-color="#fefefe"/><stop offset="0.62" stop-color="#f1faff"/><stop offset="0.8" stop-color="#edf9ff"/></linearGradient><linearGradient id="linear-gradient-2" x1="109.78" y1="843.14" x2="110" y2="779.49" gradientTransform="matrix(1, 0, 0, -1, 694, 1292)" gradientUnits="userSpaceOnUse"><stop offset="0.46" stop-color="#d1f1b8"/><stop offset="1" stop-color="#f6fdf1"/></linearGradient><linearGradient id="linear-gradient-3" x1="-10.21" y1="786.16" x2="-9.97" y2="715.52" xlink:href="#linear-gradient-2"/><linearGradient id="linear-gradient-4" x1="-357.12" y1="841.28" x2="-356.91" y2="781.8" xlink:href="#linear-gradient-2"/></defs><rect class="cls-1" width="1000" height="686" rx="23.47"/><circle class="cls-2" cx="923.68" cy="65.82" r="24.68"/><ellipse class="cls-3" cx="871.35" cy="87.69" rx="23.84" ry="21.37"/><ellipse class="cls-3" cx="844.12" cy="94.53" rx="19.41" ry="17.4"/><ellipse class="cls-3" cx="897.07" cy="90.61" rx="19.41" ry="17.4"/><ellipse class="cls-3" cx="863.53" cy="101.19" rx="15.06" ry="13.5"/><ellipse class="cls-3" cx="111.62" cy="140.65" rx="22.95" ry="22.62"/><ellipse class="cls-3" cx="85.41" cy="147.89" rx="18.68" ry="18.41"/><ellipse class="cls-3" cx="136.37" cy="143.74" rx="18.68" ry="18.41"/><ellipse class="cls-3" cx="104.1" cy="154.94" rx="14.5" ry="14.29"/><path class="cls-4" d="M12.18,646.45c-2-5.17,11.2-18.4,27.68-17.47,12.67.71,24.34,9.64,22.93,14.67C60.29,652.56,15.37,654.6,12.18,646.45Z"/><path class="cls-5" d="M83.46,601.06a7.61,7.61,0,0,0-4.87,1.68,5.1,5.1,0,0,0,0,8.11,7.88,7.88,0,0,0,9.73,0,5.1,5.1,0,0,0,0-8.11A7.6,7.6,0,0,0,83.46,601.06ZM64.2,612.53c-3.27,0-6,1.91-6.69,4.47l-2.72,9.1a5,5,0,0,0-.21,1.35c0,3.17,3.08,5.74,6.87,5.74a8,8,0,0,0,1.49-.15,6.67,6.67,0,0,1,.14-3l4.16-16.83A7.68,7.68,0,0,0,64.2,612.53Zm41.24,2.28a1.6,1.6,0,0,0-.53.09,1.5,1.5,0,0,0-.44.26,1.13,1.13,0,0,0-.29.37,1,1,0,0,0-.1.45v2.29L97,623.52l-6.62-3.44c0,.11,0,.22,0,.34L89,626.52a70.64,70.64,0,0,0,8.37,2.08A3.09,3.09,0,0,0,99.2,628l4.88-3.62V655a1,1,0,0,0,.1.45,1.17,1.17,0,0,0,.3.37,1.43,1.43,0,0,0,.45.26,1.84,1.84,0,0,0,.53.08,1.89,1.89,0,0,0,.53-.08,1.43,1.43,0,0,0,.45-.26,1.13,1.13,0,0,0,.29-.37.92.92,0,0,0,.1-.45V622.37l1-.72a2,2,0,0,0,.24-3.24,2.85,2.85,0,0,0-1.2-.61V616a.87.87,0,0,0-.1-.45,1,1,0,0,0-.3-.38,1.48,1.48,0,0,0-.46-.26A1.89,1.89,0,0,0,105.44,614.81Zm-27.49,0c-3.38,0-6.17,2-6.75,4.71h0l-2.72,11.32h0a4.89,4.89,0,0,0-.14,1.15,5.38,5.38,0,0,0,2.49,4.38l0,.06,10.71,7,3,9.61.26,1.08a2.24,2.24,0,0,0,.94,1.38,3,3,0,0,0,1.78.55,3.07,3.07,0,0,0,2-.67,2.15,2.15,0,0,0,.8-1.63,2.12,2.12,0,0,0,0-.44l-2.75-11.48a2.31,2.31,0,0,0-.44-.87l-5.15-7.85s0-.05,0-.07l2.7-11.27h0a4.56,4.56,0,0,0,.19-1.28C84.83,617.4,81.75,614.83,78,614.83Zm-9.74,24.61-1.41,3.9-6.13,9-.21.28h0l-.09.13,0,0a1.92,1.92,0,0,0-.28,1,2.15,2.15,0,0,0,.8,1.63,3.07,3.07,0,0,0,1.95.67,3.32,3.32,0,0,0,1.25-.25,2.66,2.66,0,0,0,1-.7h0l0-.05h0l9.14-11.59Z"/><path class="cls-4" d="M97.49,669.5c-1.63-3.77,9-13.44,22.33-12.76,10.23.52,19.64,7,18.5,10.72C136.31,674,100.06,675.46,97.49,669.5Z"/><path class="cls-4" d="M43.59,668.4c-1.22-2.86,6.8-10.17,16.81-9.66,7.69.4,14.78,5.33,13.92,8.11C72.8,671.78,45.53,672.9,43.59,668.4Z"/><path class="cls-4" d="M121.11,641.44c-1.6-3.69,8.89-13.14,22-12.47,10.06.51,19.32,6.88,18.19,10.48C159.28,645.81,123.64,647.26,121.11,641.44Z"/><path class="cls-6" d="M759.23,497.56l-9.05-7.4L744.47,497l-8.09,8.83H871.57l-12.85-28.27h-21.9l-27.61-28.71-35.7,28.71h-5.24Z"/><path class="cls-7" d="M633.42,559.88l-10.23-8.2-6.46,7.58-9.15,9.79H760.43L745.9,537.68H721.14l-31.21-31.86-40.37,31.86h-5.92Z"/><path class="cls-8" d="M149.92,658c2,.61,3.87,1.18,5.75,1.71"/><path class="cls-9" d="M167.26,662.64c34.33,7.52,53.93,1.21,65.82-7.32,17-12.17,17.3-28.22,44.6-48.66a140.69,140.69,0,0,1,39.75-20.79c20.26-6.7,36.74-6.83,55.85-6.82,36.22,0,38.67,6.46,61.71,4.52,28.49-2.4,36.59-13.27,60.85-20.1,18.94-5.33,46.41-7.84,84.15,4.48"/><path class="cls-8" d="M585.64,569.89q2.77,1,5.63,2.08"/><ellipse class="cls-3" cx="206.41" cy="199.18" rx="15.76" ry="14.05"/><ellipse class="cls-3" cx="188.41" cy="203.68" rx="12.83" ry="11.44"/><ellipse class="cls-3" cx="223.41" cy="201.11" rx="12.83" ry="11.44"/><ellipse class="cls-3" cx="201.24" cy="208.06" rx="9.96" ry="8.88"/><path class="cls-10" d="M296,496.23l-8.31-6.91-5.25,6.38L275,504H399.16l-11.81-26.43H367.24l-25.36-26.82-32.8,26.82h-4.81Z"/><path class="cls-11" d="M924.31,622.78c-.48,17.65-59.25,44.56-112.69,30.74-68.43-17.69-128-14.31-128-32s57.74-24.11,128-32C882.71,581.66,924.52,615.1,924.31,622.78Z"/></svg>