<svg id="Layer_1" data-name="Layer 1" xmlns="http://www.w3.org/2000/svg" xmlns:xlink="http://www.w3.org/1999/xlink" viewBox="0 0 1000 686"><defs><style>.cls-1{fill:url(#linear-gradient);}.cls-2{fill:#f7edbe;}.cls-3{fill:#d0e9f4;}.cls-4{fill:#d4dbe8;}.cls-5{fill:#b43115;}.cls-6{fill:url(#linear-gradient-2);}.cls-7{fill:url(#linear-gradient-3);}.cls-14,.cls-16,.cls-17,.cls-8,.cls-9{fill:none;}.cls-16,.cls-17,.cls-8,.cls-9{stroke:#fbb03b;stroke-linecap:round;stroke-width:7px;}.cls-8,.cls-9{stroke-linejoin:bevel;}.cls-9{stroke-dasharray:11.95 11.95;}.cls-10{fill:url(#linear-gradient-4);}.cls-11{fill:#b3d2ff;}.cls-12{fill:url(#linear-gradient-5);}.cls-13{fill:#61e5b9;}.cls-14{stroke:#42210b;stroke-width:3px;}.cls-14,.cls-16,.cls-17{stroke-miterlimit:10;}.cls-15{fill:#10fff3;}.cls-17{stroke-dasharray:12.03 12.03;}.cls-18{fill:url(#linear-gradient-6);}.cls-19{fill:url(#linear-gradient-7);}.cls-20{fill:url(#linear-gradient-8);}.cls-21{fill:url(#linear-gradient-9);}.cls-22{fill:url(#linear-gradient-10);}.cls-23{fill:url(#linear-gradient-11);}</style><linearGradient id="linear-gradient" x1="497.46" y1="679.76" x2="500.57" y2="-19.03" gradientUnits="userSpaceOnUse"><stop offset="0" stop-color="#fefefe"/><stop offset="0.62" stop-color="#f1faff"/><stop offset="0.8" stop-color="#edf9ff"/></linearGradient><linearGradient id="linear-gradient-2" x1="108.73" y1="-2274.75" x2="108.95" y2="-2338.4" gradientTransform="matrix(1, 0, 0, -1, 694, -1823.54)" gradientUnits="userSpaceOnUse"><stop offset="0.46" stop-color="#d1f1b8"/><stop offset="1" stop-color="#f6fdf1"/></linearGradient><linearGradient id="linear-gradient-3" x1="-11.26" y1="-2331.73" x2="-11.01" y2="-2402.37" xlink:href="#linear-gradient-2"/><linearGradient id="linear-gradient-4" x1="-358.16" y1="-2276.61" x2="-357.96" y2="-2336.09" xlink:href="#linear-gradient-2"/><linearGradient id="linear-gradient-5" x1="-534.02" y1="-2203.4" x2="-533.65" y2="-2310.46" xlink:href="#linear-gradient-2"/><linearGradient id="linear-gradient-6" x1="715.25" y1="546.17" x2="703.06" y2="93.09" gradientUnits="userSpaceOnUse"><stop offset="0.37" stop-color="#fefefe"/><stop offset="0.42" stop-color="#f1f7fb"/><stop offset="0.52" stop-color="#d0e4f2"/><stop offset="0.66" stop-color="#9ac6e4"/><stop offset="0.82" stop-color="#509dd1"/><stop offset="0.98" stop-color="#0071bc"/></linearGradient><linearGradient id="linear-gradient-7" x1="464.05" y1="369.98" x2="463.04" y2="208.06" gradientUnits="userSpaceOnUse"><stop offset="0" stop-color="#fefefe"/><stop offset="0.09" stop-color="#f6f1fc"/><stop offset="0.27" stop-color="#e2d0f6"/><stop offset="0.5" stop-color="#c29aec"/><stop offset="0.78" stop-color="#9650df"/><stop offset="0.82" stop-color="#8f45dd"/></linearGradient><linearGradient id="linear-gradient-8" x1="339.58" y1="376.03" x2="339.06" y2="293.1" xlink:href="#linear-gradient-7"/><linearGradient id="linear-gradient-9" x1="564.87" y1="403.28" x2="564.41" y2="329.09" xlink:href="#linear-gradient-7"/><linearGradient id="linear-gradient-10" x1="148.88" y1="338.28" x2="147.87" y2="176.36" xlink:href="#linear-gradient-7"/><linearGradient id="linear-gradient-11" x1="891.2" y1="398.22" x2="890.65" y2="309.91" xlink:href="#linear-gradient-7"/></defs><rect class="cls-1" x="-1.04" y="0.16" width="1000" height="686" rx="23.47"/><circle class="cls-2" cx="922.64" cy="68.18" r="24.68"/><ellipse class="cls-3" cx="870.31" cy="90.04" rx="23.84" ry="21.37"/><ellipse class="cls-3" cx="843.07" cy="96.88" rx="19.41" ry="17.4"/><ellipse class="cls-3" cx="896.03" cy="92.96" rx="19.41" ry="17.4"/><ellipse class="cls-3" cx="862.49" cy="103.54" rx="15.06" ry="13.5"/><ellipse class="cls-3" cx="110.58" cy="143" rx="22.95" ry="22.62"/><ellipse class="cls-3" cx="84.37" cy="150.24" rx="18.68" ry="18.41"/><ellipse class="cls-3" cx="135.33" cy="146.09" rx="18.68" ry="18.41"/><ellipse class="cls-3" cx="103.05" cy="157.29" rx="14.5" ry="14.29"/><path class="cls-4" d="M11.14,648.8c-2-5.17,11.2-18.39,27.67-17.47,12.68.72,24.35,9.64,22.94,14.68C59.25,654.92,14.32,657,11.14,648.8Z"/><path class="cls-5" d="M314.62,601.31a7.6,7.6,0,0,0-4.86,1.68,5.1,5.1,0,0,0,0,8.11,7.88,7.88,0,0,0,9.73,0,5.1,5.1,0,0,0,0-8.11A7.61,7.61,0,0,0,314.62,601.31Zm-19.25,11.47c-3.27,0-6,1.92-6.69,4.47l-2.72,9.1a5,5,0,0,0-.21,1.35c0,3.17,3.07,5.74,6.87,5.74a8,8,0,0,0,1.49-.15,8.49,8.49,0,0,1-.11-1,9,9,0,0,1,.24-2l4.17-16.83A7.68,7.68,0,0,0,295.37,612.78Zm41.24,2.28a1.55,1.55,0,0,0-.53.09,1.39,1.39,0,0,0-.44.26,1,1,0,0,0-.29.37,1,1,0,0,0-.1.45v2.29l-7.09,5.25-6.62-3.44c0,.11,0,.22,0,.34l-1.33,6.1a70.64,70.64,0,0,0,8.37,2.08,3.11,3.11,0,0,0,1.83-.58l4.88-3.62v30.59a1,1,0,0,0,.1.45,1.17,1.17,0,0,0,.3.37,1.43,1.43,0,0,0,.45.26,1.78,1.78,0,0,0,.53.09,1.9,1.9,0,0,0,.53-.09,1.43,1.43,0,0,0,.45-.26,1.28,1.28,0,0,0,.29-.37,1,1,0,0,0,.1-.45V622.62l1-.72a2,2,0,0,0,.23-3.24,2.76,2.76,0,0,0-1.19-.61v-1.82a1,1,0,0,0-.1-.45,1,1,0,0,0-.3-.38,1.48,1.48,0,0,0-.46-.26A1.89,1.89,0,0,0,336.61,615.06Zm-27.49,0c-3.38,0-6.17,2-6.75,4.71h0l-2.72,11.32h0a4.89,4.89,0,0,0-.14,1.15,5.38,5.38,0,0,0,2.49,4.38l0,.06,10.71,7,3,9.61.26,1.08a2.24,2.24,0,0,0,.94,1.38,3.15,3.15,0,0,0,3.72-.12,2,2,0,0,0,.76-2.07l-2.75-11.48a2.2,2.2,0,0,0-.44-.86l-5.15-7.86a.17.17,0,0,1,0-.07l2.7-11.27h0a4.56,4.56,0,0,0,.19-1.28C316,617.65,312.92,615.08,309.12,615.08Zm-9.74,24.61-1.41,3.9-6.13,9-.21.28h0l-.09.13,0,0a1.92,1.92,0,0,0-.28,1,2.15,2.15,0,0,0,.8,1.63,3.07,3.07,0,0,0,1.95.67,3.32,3.32,0,0,0,1.25-.25,2.66,2.66,0,0,0,1-.7h0l0-.05h0l9.14-11.59Z"/><path class="cls-4" d="M96.45,671.86c-1.63-3.78,9-13.45,22.33-12.77,10.22.52,19.64,7,18.5,10.72C135.26,676.32,99,677.81,96.45,671.86Z"/><path class="cls-4" d="M42.55,670.75c-1.23-2.85,6.8-10.17,16.8-9.65,7.7.39,14.78,5.32,13.92,8.11C71.75,674.13,44.48,675.26,42.55,670.75Z"/><path class="cls-4" d="M120.07,643.8c-1.61-3.69,8.88-13.14,22-12.48,10.05.51,19.31,6.88,18.19,10.48C158.24,648.16,122.59,649.62,120.07,643.8Z"/><path class="cls-6" d="M758.18,499.91l-9-7.39-5.72,6.82-8.09,8.83h135.2L857.68,479.9h-21.9l-27.61-28.71L772.46,479.9h-5.23Z"/><path class="cls-7" d="M632.37,562.24,622.15,554l-6.46,7.58-9.15,9.8H759.39L744.86,540H720.1l-31.22-31.86L648.52,540H642.6Z"/><path class="cls-8" d="M148.87,660.37c2,.61,3.88,1.17,5.76,1.71"/><path class="cls-9" d="M166.22,665c34.32,7.52,53.93,1.21,65.81-7.31,17-12.18,17.3-28.23,44.61-48.67a140.67,140.67,0,0,1,39.74-20.79c20.26-6.7,36.74-6.83,55.86-6.82,36.22,0,38.67,6.46,61.7,4.52,28.49-2.4,36.59-13.26,60.86-20.1,18.93-5.33,46.41-7.84,84.14,4.49"/><path class="cls-8" d="M584.6,572.24c1.85.66,3.72,1.35,5.62,2.09"/><path class="cls-10" d="M294.92,498.58l-8.31-6.91-5.25,6.39-7.43,8.25H398.12l-11.81-26.42H366.19l-25.36-26.83L308,479.89h-4.81Z"/><path class="cls-11" d="M923.26,625.14c-.48,17.64-59.24,44.55-112.69,30.73-68.43-17.69-128-14.3-128-32s57.73-24.11,128-32C881.66,584,923.47,617.45,923.26,625.14Z"/><path class="cls-12" d="M104.22,461.86,92.88,449.41l-7.17,11.5L75.57,475.77H245.05l-16.11-47.6H201.49l-34.61-48.33-44.76,48.33h-6.56Z"/><path class="cls-4" d="M696.59,661.92c-1.23-2.86,6.8-10.17,16.8-9.66,7.69.39,14.78,5.33,13.92,8.11C725.79,665.29,698.52,666.42,696.59,661.92Z"/><path class="cls-4" d="M656.22,651.88c-1.6-3.69,8.88-13.14,22-12.48,10.05.51,19.31,6.89,18.19,10.49C694.39,656.25,658.75,657.7,656.22,651.88Z"/><path class="cls-4" d="M903.22,583.92c-1.6-3.69,8.89-13.14,22-12.48,10.06.51,19.32,6.88,18.2,10.48C941.39,588.28,905.75,589.74,903.22,583.92Z"/><polygon class="cls-13" points="639.65 592.69 597.51 592.69 618.58 556.19 639.65 592.69"/><polygon class="cls-13" points="642.99 608.4 594.16 608.4 618.58 566.11 642.99 608.4"/><polygon class="cls-13" points="646.93 625.29 590.22 625.29 618.58 576.18 646.93 625.29"/><line class="cls-14" x1="618.58" y1="618.34" x2="618.58" y2="639.37"/><polygon class="cls-13" points="236.19 563.27 194.05 563.27 215.12 526.78 236.19 563.27"/><polygon class="cls-13" points="239.53 578.98 190.71 578.98 215.12 536.69 239.53 578.98"/><polygon class="cls-13" points="243.47 595.88 186.76 595.88 215.12 546.76 243.47 595.88"/><line class="cls-14" x1="215.12" y1="584.89" x2="215.12" y2="605.93"/><polygon class="cls-15" points="69.67 473.08 37.39 473.08 53.53 445.12 69.67 473.08"/><polygon class="cls-15" points="72.24 485.12 34.83 485.12 53.53 452.72 72.24 485.12"/><polygon class="cls-15" points="75.26 498.06 31.81 498.06 53.53 460.44 75.26 498.06"/><line class="cls-14" x1="53.53" y1="490" x2="53.53" y2="511.03"/><polygon class="cls-15" points="886.67 541.28 854.39 541.28 870.53 513.32 886.67 541.28"/><polygon class="cls-15" points="889.23 553.32 851.83 553.32 870.53 520.92 889.23 553.32"/><polygon class="cls-15" points="892.25 566.26 848.81 566.26 870.53 528.63 892.25 566.26"/><line class="cls-14" x1="870.53" y1="559.49" x2="870.53" y2="580.52"/><path class="cls-16" d="M250.41,441.82s2.36-.74,5.75-1.7"/><path class="cls-17" d="M267.78,437c1.13-.29,2.24-.56,3.3-.8,22.76-5.33,45.28-10.59,64.38-1.37,13.46,6.5,10.55,13.11,27.39,23.28,6.18,3.73,15.87,8.46,39.72,12.33,17.11,2.77,32.84,3.7,76.7,2.74,32.37-.71,48.55-1.07,56.16-2.74,28.77-6.32,30-15.59,64.38-28.77,23-8.79,56.45-21.13,90.4-9.58,9.68,3.29,23.88,8.35,30.13,21.91,6.47,14,.86,29.43-4.44,39.24"/><path class="cls-16" d="M712.84,498.41a59,59,0,0,1-3.46,4.9"/><polygon class="cls-18" points="481.97 298.63 531.2 213.2 564.74 240.29 617.2 148.88 634.2 164.62 666.02 133.76 682.48 113.44 698.79 134.81 718.69 158.99 774.33 142.53 809.29 183.67 824.02 201.72 862.72 179.41 894.93 201.72 924.93 223.79 935.21 298.63 481.97 298.63"/><polygon class="cls-19" points="352.78 369.28 396.39 253.05 418.2 268.09 447.86 213.91 466.84 226.31 488.09 207.9 518.28 270.67 537.83 263.56 575.3 369.28 352.78 369.28"/><polygon class="cls-20" points="273.93 375.62 320.97 293.21 344.39 311.72 362.64 304.87 405.23 375.62 273.93 375.62"/><polygon class="cls-21" points="500.29 402.88 546.57 329.2 569.6 345.75 587.55 339.63 629.44 402.88 500.29 402.88"/><ellipse class="cls-3" cx="644.45" cy="65.86" rx="23.84" ry="21.37"/><ellipse class="cls-3" cx="617.21" cy="72.7" rx="19.41" ry="17.4"/><ellipse class="cls-3" cx="670.16" cy="68.78" rx="19.41" ry="17.4"/><ellipse class="cls-3" cx="636.63" cy="79.36" rx="15.06" ry="13.5"/><ellipse class="cls-3" cx="713.18" cy="103.61" rx="14" ry="10.76"/><ellipse class="cls-3" cx="697.19" cy="107.06" rx="11.4" ry="8.76"/><ellipse class="cls-3" cx="728.28" cy="105.08" rx="11.4" ry="8.76"/><ellipse class="cls-3" cx="708.59" cy="110.41" rx="8.85" ry="6.8"/><polygon class="cls-13" points="756.4 377.56 714.26 377.56 735.33 341.07 756.4 377.56"/><polygon class="cls-13" points="759.75 393.28 710.92 393.28 735.33 350.99 759.75 393.28"/><polygon class="cls-13" points="763.69 410.17 706.98 410.17 735.33 361.06 763.69 410.17"/><line class="cls-14" x1="735.33" y1="402.88" x2="735.33" y2="423.91"/><path class="cls-4" d="M762.69,439.91c-1.61-3.69,8.88-13.14,22-12.48,10.05.51,19.31,6.89,18.19,10.48C800.86,444.28,765.21,445.73,762.69,439.91Z"/><polygon class="cls-22" points="37.61 337.59 81.22 221.35 103.04 236.4 132.69 182.21 151.68 194.62 172.92 176.21 203.12 238.97 222.66 231.86 260.14 337.59 37.61 337.59"/><ellipse class="cls-3" cx="205.37" cy="201.54" rx="15.76" ry="14.05"/><ellipse class="cls-3" cx="187.37" cy="206.04" rx="12.83" ry="11.44"/><ellipse class="cls-3" cx="222.36" cy="203.46" rx="12.83" ry="11.44"/><ellipse class="cls-3" cx="200.2" cy="210.42" rx="9.96" ry="8.88"/><polygon class="cls-23" points="814.75 397.74 869.53 310.04 896.8 329.74 918.05 322.45 967.63 397.74 814.75 397.74"/><rect class="cls-11" x="140.11" y="214.9" width="26.7" height="128.25" rx="5.99"/><path class="cls-11" d="M214.06,354.9c-.24,8.82-29.63,22.28-56.35,15.37-34.21-8.85-64-7.16-64-16s28.87-12.06,64-16C193.26,334.34,214.16,351.06,214.06,354.9Z"/><path class="cls-11" d="M181.94,369.28c.43,5.67,31.93,29.17,38.48,36.56,4.94,5.59,13.78,11.45,36.85,12.29,45.41,1.64,57.35-19.39,82.3-9.83,5.69,2.18,14.44,8.82,31.94,22.11,18.24,13.85,17.27,15.28,24.57,19.65,12.23,7.34,20.75,6.8,63.87,8.6,47.14,2,48.26,3.1,59,1.23,10.43-1.82,23.47-7,49.13-17.2,38.1-15.18,40.05-18.2,56.51-22.11,11.85-2.81,29.42-6.81,51.59-3.68,13.64,1.92,45.52,6.41,56.51,29.48,4.34,9.12,3.92,18,3.68,22.11-1.51,25.89-21.82,33.41-18.42,46.68,2.39,9.34,12.64,6.38,41.76,27,19.53,13.84,25.14,22.42,27,30.71.69,3,.8,5.71,2.45,12.29,3.05,12.13,4.66,18.54,9.83,22.11,5,3.44,13.63,5,18.43,1.23,8-6.35,2.34-25.3-3.69-45.45-5.09-17-7.64-25.56-14.74-31.94s-16.28-8.84-34.39-13.51c-19.87-5.13-27.58-4.49-29.27-9.46-1.91-5.64,7-9.66,14.53-26.17,2.51-5.51,6.38-14,6.14-23.34-.46-17.62-15.32-30.21-20.67-34.75-12.57-10.66-28.52-14.36-60.41-21.75-18.88-4.38-26.92-4.8-30.71-4.92-3.26-.09-15.11-.31-38.08,4.92s-41.78,12.47-60.19,19.65c-19.9,7.77-20.64,9.1-29.48,11.06-4,.87-12.86,2.6-44.22,1.23-27.57-1.22-41.54-1.91-50.37-6.15-9.76-4.68-10.68-8.12-29.48-19.65a226.74,226.74,0,0,0-24.57-13.51c-33.14-15-66.58-11.58-71.24-11.06-21.44,2.41-26.85,8.51-41.77,4.91-12.85-3.09-41-24.6-47-31"/><ellipse class="cls-3" cx="359.86" cy="118.75" rx="20.77" ry="17.45"/><ellipse class="cls-3" cx="336.14" cy="124.34" rx="16.91" ry="14.21"/><ellipse class="cls-3" cx="382.25" cy="121.14" rx="16.91" ry="14.21"/><ellipse class="cls-3" cx="353.05" cy="129.78" rx="13.12" ry="11.03"/><ellipse class="cls-3" cx="783.39" cy="251.04" rx="20.77" ry="17.45"/><ellipse class="cls-3" cx="759.67" cy="256.63" rx="16.91" ry="14.21"/><ellipse class="cls-3" cx="805.79" cy="253.43" rx="16.91" ry="14.21"/><ellipse class="cls-3" cx="776.58" cy="262.07" rx="13.12" ry="11.03"/><polygon class="cls-13" points="571.56 627.33 539.36 628.01 556.04 599.1 571.56 627.33"/><polygon class="cls-13" points="573.86 639.58 536.55 640.36 555.88 606.87 573.86 639.58"/><polygon class="cls-13" points="576.6 652.74 533.26 653.65 555.72 614.75 576.6 652.74"/><line class="cls-14" x1="555.65" y1="641.79" x2="555.65" y2="662.83"/></svg>