<svg xmlns="http://www.w3.org/2000/svg" viewBox="0 0 1543.44 869.14"><defs><style>.cls-1{fill:#ead288;}.cls-2{fill:#5eaf10;}.cls-3{fill:#ffe52c;}.cls-4{fill:#db0000;}.cls-5{fill:#ffebb3;}</style></defs><g id="Layer_2" data-name="Layer 2"><g id="Layer_1-2" data-name="Layer 1"><path class="cls-1" d="M1486.69,512.77H26.52a1.68,1.68,0,0,0-1.67,1.68v88.3a118,118,0,0,0,118,118H1411.26a118,118,0,0,0,118-118v-53C1513.15,540.14,1498.89,526.86,1486.69,512.77Z"/><path class="cls-2" d="M1476.53,500.3a244.52,244.52,0,0,1-30.67-51.89,170.4,170.4,0,0,1-10.58-32.19q-2.21,1.23-4.33,2.62a73.21,73.21,0,0,0-40.27-12,74.78,74.78,0,0,0-43.33,14A100.57,100.57,0,0,0,1237.21,426c-15.72-26.29-43-43.76-73.84-43.76a83.43,83.43,0,0,0-57.36,23.3c-14.49-14.64-33.1-23.3-53.54-23.3-23.65,0-45.16,11.82-60.26,31.12a88,88,0,0,0-9.92,15,112.05,112.05,0,0,0-6.86-20c-12.67-27.29-34.63-45.43-59.65-45.43-33.41,0-61.33,32.12-68.8,75.71-15.11-26.29-41.8-43.76-72.31-43.76-26.7,0-50.5,13.48-66.21,34.61-14.5-39.6-43.94-66.56-77.65-66.56-27.92,0-52.79,18.47-68.65,47.09-16.48-17.3-38.75-27.79-63.46-27.79-34.17,0-63.92,20.3-79.64,50.42-16.62-16.14-38.44-25.79-62.39-25.79-34.93,0-65.45,20.63-81.62,51.41a119.84,119.84,0,0,0-98.85-51.41,118.62,118.62,0,0,0-53.7,12.64,74.31,74.31,0,0,0-41.65-12.64C36.31,406.86,0,446.29,0,495,0,541,32.49,578.73,73.68,582.55c20.75,34.27,58.89,57.07,102.52,57.07,47,0,87.56-26.62,106.94-65.22,17.24,23.46,43.78,38.43,73.53,38.43,35.7,0,66.82-21.63,82.84-53.57,16,14.81,36.61,23.79,59.19,23.79,23.49,0,45-9.65,61.17-25.62,15.87,31.11,41.65,51.24,70.94,51.24,33,0,61.78-25.79,76.73-63.72,15.56,22,39.82,35.94,67.13,35.94,38.13,0,70.48-27.29,81.31-65.06a93.1,93.1,0,0,0,17.08,25.79c12.66,39.1,47,66.89,87,66.89,25.93,0,49.43-11.65,66.36-30.45a72.39,72.39,0,0,0,26.09,5c22.73,0,43-10.81,58.12-28.28a81.54,81.54,0,0,0,52.78,19.46c23,0,43.94-9.65,59.65-25.62,17.24,19.63,43.63,32.28,73.23,32.28a99.69,99.69,0,0,0,51.1-14,74.72,74.72,0,0,0,43.33,14,69.82,69.82,0,0,0,19.68-2.83c15.25,18.8,36.46,30.61,60.1,30.61,31.39,0,58.69-20.79,73-51.58C1516.51,545.52,1493.85,522.9,1476.53,500.3Z"/><path class="cls-2" d="M1019.38,470a81,81,0,0,0-9.91,13.73,96.69,96.69,0,0,0-6.87-18.31A77.93,77.93,0,0,1,1019.38,470Z"/><circle class="cls-2" cx="871.33" cy="527.08" r="52.51"/><path class="cls-3" d="M1205.48,332.87,637.7,861a30.37,30.37,0,0,1-49.3-12.06l-206-579.15a30.38,30.38,0,0,1,30.62-40.49l773.74,51C1213.36,282.07,1225,314.74,1205.48,332.87Z"/><path class="cls-4" d="M1445.86,448.41c-6-14.07-10.93-28.89-12.46-44.19-13.14-.42-26.38-2.49-38.22-8.44-18-9-27.53-26.63-32.22-45.48H72.46a28.62,28.62,0,0,0-28.63,28.62v56.49A28.62,28.62,0,0,0,72.46,464H1453.31Q1449.29,456.37,1445.86,448.41Z"/><path class="cls-1" d="M1362.56,348.68c-5-21.67-5.75-44.12-8.88-66.11-14.72-.38-29.52-2.42-43.46-7.23-22.66-7.82-42.33-22.93-53.5-44.4-12-23-13.45-49.47-10-74.79-17.38-6-34-14.14-48.3-25.88-38.76-31.87-44-82.12-44.29-130.27H292.4C145.78,0,26.92,118.86,26.92,265.49v61.24a30.71,30.71,0,0,0,30.71,30.71H1365C1364.07,354.57,1363.25,351.64,1362.56,348.68Z"/><path class="cls-5" d="M350.14,0h19a43.8,43.8,0,0,1,43.8,43.8V255.39a2.87,2.87,0,0,1-2.87,2.87H309.21a2.87,2.87,0,0,1-2.87-2.87V43.8A43.8,43.8,0,0,1,350.14,0Z" transform="translate(719.23 258.26) rotate(180)"/><path class="cls-5" d="M622.12,0h19a43.8,43.8,0,0,1,43.8,43.8V255.39a2.87,2.87,0,0,1-2.87,2.87H581.19a2.87,2.87,0,0,1-2.87-2.87V43.8A43.8,43.8,0,0,1,622.12,0Z" transform="translate(1263.19 258.26) rotate(180)"/><path class="cls-5" d="M894.1,0h19a43.8,43.8,0,0,1,43.8,43.8V255.39a2.87,2.87,0,0,1-2.87,2.87H853.17a2.87,2.87,0,0,1-2.87-2.87V43.8A43.8,43.8,0,0,1,894.1,0Z" transform="translate(1807.15 258.26) rotate(180)"/><path class="cls-5" d="M1198.47,130.27c-38.76-31.87-44-82.12-44.29-130.27h-29a2.87,2.87,0,0,0-2.87,2.87V214.46a43.8,43.8,0,0,0,43.8,43.8h19a43.8,43.8,0,0,0,43.8-43.8V149A139,139,0,0,1,1198.47,130.27Z"/></g></g></svg>