<svg xmlns="http://www.w3.org/2000/svg" viewBox="0 0 1028.74 869.14"><defs><style>.cls-1{fill:#ead288;}.cls-2{fill:#5eaf10;}.cls-3{fill:#ffe52c;}.cls-4{fill:#db0000;}.cls-5{fill:#ffebb3;}</style></defs><g id="Layer_2" data-name="Layer 2"><g id="Layer_1-2" data-name="Layer 1"><path class="cls-1" d="M977,643.22c-.46-42.65,22.66-80.31,51.73-109.88-11.91-5.45-23.54-12-33.42-20.57H26.52a1.68,1.68,0,0,0-1.67,1.68v88.3a118,118,0,0,0,118,118h861.6C988.12,698,977.32,671.63,977,643.22Z"/><path class="cls-2" d="M1028.74,533.34c-16.15-7.39-31.81-16.8-43.24-30.53-18.71-22.47-19.55-50.87-11.56-77.92q1.68-5.7,3.7-11.27c-.71-1.79-1.45-3.55-2.21-5.26-12.67-27.29-34.63-45.43-59.65-45.43-33.41,0-61.33,32.12-68.8,75.71-15.11-26.29-41.8-43.76-72.31-43.76-26.7,0-50.5,13.48-66.21,34.61-14.5-39.6-43.94-66.56-77.65-66.56-27.92,0-52.79,18.47-68.65,47.09-16.48-17.3-38.75-27.79-63.46-27.79-34.18,0-63.92,20.3-79.64,50.42-16.62-16.14-38.44-25.79-62.39-25.79-34.93,0-65.45,20.63-81.62,51.41a119.84,119.84,0,0,0-98.85-51.41,118.62,118.62,0,0,0-53.7,12.64,74.31,74.31,0,0,0-41.65-12.64C36.31,406.86,0,446.29,0,495,0,541,32.49,578.73,73.68,582.55c20.75,34.27,58.89,57.07,102.52,57.07,47,0,87.56-26.62,106.94-65.22,17.24,23.46,43.78,38.43,73.53,38.43,35.7,0,66.82-21.63,82.84-53.57,16,14.81,36.61,23.79,59.19,23.79,23.49,0,45-9.65,61.17-25.62,15.87,31.11,41.65,51.24,70.94,51.24,33,0,61.78-25.79,76.73-63.72,15.56,22,39.82,35.94,67.13,35.94,38.13,0,70.48-27.29,81.31-65.06a93.1,93.1,0,0,0,17.08,25.79c12.66,39.1,47,66.89,87,66.89a85.77,85.77,0,0,0,22.74-3.08C991.32,578.2,1008.6,553.83,1028.74,533.34Z"/><circle class="cls-2" cx="871.33" cy="527.08" r="52.51"/><path class="cls-3" d="M985.5,502.81c-18.71-22.47-19.55-50.87-11.56-77.92,8.71-29.52,24.49-56.59,39-83.61a173,173,0,0,1-46.69-29.69c-14.47-13.06-26.81-29.62-33.59-48L413.05,229.29a30.38,30.38,0,0,0-30.62,40.49l206,579.15A30.37,30.37,0,0,0,637.7,861l366.77-341.15A93.67,93.67,0,0,1,985.5,502.81Z"/><path class="cls-4" d="M973.94,424.89c7.74-26.24,21.07-50.54,34.13-74.59H72.46a28.62,28.62,0,0,0-28.63,28.62v56.49A28.62,28.62,0,0,0,72.46,464H969.55C968.31,451.21,970.1,437.89,973.94,424.89Z"/><path class="cls-1" d="M1012.94,341.28a173,173,0,0,1-46.69-29.69c-23.41-21.13-41.28-51.45-39-83.91,2.52-35.09,26.78-61.9,54.94-80.54-16.48-6.54-32-16-43-30.07C919,91.2,920,57,930.16,27.23A198,198,0,0,1,941.86,0H292.4C145.78,0,26.92,118.86,26.92,265.49v61.24a30.71,30.71,0,0,0,30.71,30.71h946.56C1007.11,352,1010.05,346.66,1012.94,341.28Z"/><path class="cls-5" d="M350.14,0h19a43.8,43.8,0,0,1,43.8,43.8V255.39a2.87,2.87,0,0,1-2.87,2.87H309.21a2.87,2.87,0,0,1-2.87-2.87V43.8A43.8,43.8,0,0,1,350.14,0Z" transform="translate(719.23 258.26) rotate(180)"/><path class="cls-5" d="M622.12,0h19a43.8,43.8,0,0,1,43.8,43.8V255.39a2.87,2.87,0,0,1-2.87,2.87H581.19a2.87,2.87,0,0,1-2.87-2.87V43.8A43.8,43.8,0,0,1,622.12,0Z" transform="translate(1263.19 258.26) rotate(180)"/><path class="cls-5" d="M927.29,227.68c1.71-23.8,13.42-43.78,29.56-60v-34a83.8,83.8,0,0,1-17.64-16.59C919,91.2,920,57,930.16,27.23A198,198,0,0,1,941.86,0H853.17a2.87,2.87,0,0,0-2.87,2.87V214.46a43.8,43.8,0,0,0,43.8,43.8h18.95a43.72,43.72,0,0,0,16.88-3.37A83.45,83.45,0,0,1,927.29,227.68Z"/></g></g></svg>