<svg xmlns="http://www.w3.org/2000/svg" viewBox="0 0 682.09 973.15"><defs><style>.cls-1{fill:#ead288;}.cls-2{fill:#5eaf10;}.cls-3{fill:#ffe52c;}.cls-4{fill:#db0000;}.cls-5{fill:#ffebb3;}</style></defs><g id="Layer_2" data-name="Layer 2"><g id="Layer_1-2" data-name="Layer 1"><path class="cls-1" d="M655.44,862.52c-1.87-8.2-4.92-17.25-4.13-25.69.84-9,3.13-17.78,5.25-26.53,2.07-8.54,4.65-17.4,4.63-26.26,0-7.88-5.55-11.57-12.89-12.57s-14.89-.26-21.56-3.76c-5.91-3.1-10.3-9.91-14.26-15.12a192.83,192.83,0,0,1-22.91-39.75c-12.5-28.6-21-62.82-20.7-96.06H26.52a1.68,1.68,0,0,0-1.67,1.68v161a118,118,0,0,0,118,118H666.15C661.38,886.23,658.13,874.31,655.44,862.52Z"/><path class="cls-2" d="M601.57,526.12a93.31,93.31,0,0,1-29.11-23c-.62-.72-1.23-1.46-1.83-2.21A116.63,116.63,0,0,0,562.16,514c-16.48-17.3-38.75-27.78-63.46-27.78-34.18,0-63.92,20.3-79.64,50.41-16.62-16.14-38.44-25.79-62.39-25.79-34.93,0-65.45,20.63-81.62,51.41a119.86,119.86,0,0,0-98.85-51.41,118.5,118.5,0,0,0-53.7,12.65,74.24,74.24,0,0,0-41.65-12.65C36.31,510.87,0,550.3,0,599.05,0,645,32.49,682.74,73.68,686.56c20.75,34.28,58.89,57.07,102.52,57.07,47,0,87.56-26.62,106.94-65.22,17.24,23.46,43.78,38.43,73.53,38.43,35.7,0,66.82-21.62,82.84-53.57,16,14.81,36.61,23.79,59.19,23.79,23.49,0,45-9.65,61.17-25.62A112.56,112.56,0,0,0,581.19,691C563.11,636.4,561.09,569.39,601.57,526.12Z"/><path class="cls-3" d="M675.69,915.32c-10.55-15.8-16.06-34.45-20.25-52.8-1.87-8.2-4.92-17.25-4.13-25.69.84-9,3.13-17.78,5.25-26.53,2.07-8.54,4.65-17.4,4.63-26.26,0-7.88-5.55-11.57-12.89-12.57s-14.89-.26-21.56-3.76c-5.91-3.1-10.3-9.91-14.26-15.12a192.83,192.83,0,0,1-22.91-39.75c-25.09-57.4-34.1-137.45,12-186.72a93.31,93.31,0,0,1-29.11-23c-33.11-38.86-42.77-105.56-3.34-142.66a57.47,57.47,0,0,1-18.78-18.06L413.05,333.3a30.38,30.38,0,0,0-30.62,40.49l206,579.15A30.37,30.37,0,0,0,637.7,965l44.39-41.28A87.62,87.62,0,0,1,675.69,915.32Z"/><path class="cls-4" d="M601.57,526.12a93.31,93.31,0,0,1-29.11-23,124.72,124.72,0,0,1-25.1-48.77H72.46a28.62,28.62,0,0,0-28.63,28.62v56.49A28.62,28.62,0,0,0,72.46,568H576.71A115.15,115.15,0,0,1,601.57,526.12Z"/><path class="cls-1" d="M569.12,360.42c-10.47-6.15-18.44-15.57-23.65-26.81-13-28-11.83-61.82-4.85-91.25,5.75-24.27,17.06-52.07,38.18-67.22a90.35,90.35,0,0,1-26.76-42c-10.33-34.77-2.69-73.19,8.63-106.71q4.51-13.33,10-26.39H290.33C143.71,0,24.85,118.86,24.85,265.49V423.6a30.71,30.71,0,0,0,30.71,30.71h491.8C538.62,421,543.54,384.49,569.12,360.42Z"/><path class="cls-5" d="M350.14,0h19a43.8,43.8,0,0,1,43.8,43.8V255.39a2.87,2.87,0,0,1-2.87,2.87H309.21a2.87,2.87,0,0,1-2.87-2.87V43.8A43.8,43.8,0,0,1,350.14,0Z" transform="translate(719.23 258.26) rotate(180)"/></g></g></svg>