<svg xmlns="http://www.w3.org/2000/svg" viewBox="0 0 653.39 869.14"><defs><style>.cls-1{fill:#ead288;}.cls-2{fill:#5eaf10;}.cls-3{fill:#ffe52c;}.cls-4{fill:#db0000;}.cls-5{fill:#ffebb3;}</style></defs><g id="Layer_2" data-name="Layer 2"><g id="Layer_1-2" data-name="Layer 1"><path class="cls-1" d="M650.93,632.88a122.72,122.72,0,0,1-37.73-19.34c-19.68-15.17-34.28-38.56-30.14-64.19,2.41-14.91,10.62-27,21.48-36.58h-578a1.68,1.68,0,0,0-1.67,1.68v88.3a118,118,0,0,0,118,118H596.38C603.86,686.51,623.28,654.3,650.93,632.88Z"/><path class="cls-2" d="M583.06,549.35c4.46-27.6,28.76-45.36,53-56.19-10.93-7.73-22.69-14.26-33.07-22.71-22.83-18.6-26.94-49.74-22.17-77.25.58-3.36,1.3-6.77,2.15-10.2a107.72,107.72,0,0,0-20.85,27c-16.48-17.3-38.75-27.79-63.46-27.79-34.18,0-63.92,20.3-79.64,50.42-16.62-16.14-38.44-25.79-62.39-25.79-34.93,0-65.45,20.63-81.62,51.41a119.84,119.84,0,0,0-98.85-51.41,118.62,118.62,0,0,0-53.7,12.64,74.31,74.31,0,0,0-41.65-12.64C36.31,406.86,0,446.29,0,495,0,541,32.49,578.73,73.68,582.55c20.75,34.27,58.89,57.07,102.52,57.07,47,0,87.56-26.62,106.94-65.22,17.24,23.46,43.78,38.43,73.53,38.43,35.7,0,66.82-21.63,82.84-53.57,16,14.81,36.61,23.79,59.19,23.79,23.49,0,45-9.65,61.17-25.62,9.87,19.36,23.58,34.46,39.59,43.11C587.33,586.39,580,568.49,583.06,549.35Z"/><path class="cls-3" d="M648.37,843.88c-17.19-9-33.28-21.42-42.67-38.77C595.07,785.47,591.55,761,593.54,739c3.69-40.76,24.85-80.92,57.39-106.13a122.72,122.72,0,0,1-37.73-19.34c-19.68-15.17-34.28-38.56-30.14-64.19,4.46-27.6,28.76-45.36,53-56.19-10.93-7.73-22.69-14.26-33.07-22.71-22.83-18.6-26.94-49.74-22.17-77.25,4.34-25.09,16-53.23,38.14-67.59-12-6.82-22.34-16.52-30.93-27.14-13.65-16.88-24.75-37.75-29.35-59.57l-145.67-9.61a30.38,30.38,0,0,0-30.62,40.49l206,579.15A30.37,30.37,0,0,0,637.7,861l15.69-14.59C651.71,845.58,650,844.75,648.37,843.88Z"/><path class="cls-4" d="M580.86,393.2c2.48-14.35,7.38-29.7,15.25-42.9H72.46a28.62,28.62,0,0,0-28.63,28.62v56.49A28.62,28.62,0,0,0,72.46,464H596.32C579.43,445.19,576.61,417.75,580.86,393.2Z"/><path class="cls-1" d="M619,325.61c-12-6.82-22.34-16.52-30.93-27.14-19.37-24-33.62-55.93-31.43-87.3,1-14.4,5.78-28.2,15.17-39.29,9-10.63,21.51-17.34,34.72-21.27C593,138.3,578.94,125.26,570.91,108.8c-15.92-32.61-7-73.07,2.68-106.24.25-.85.5-1.7.76-2.56h-282C145.78,0,26.92,118.86,26.92,265.49v61.24a30.71,30.71,0,0,0,30.71,30.71h534.6C598.55,344.64,607.32,333.2,619,325.61Z"/><path class="cls-5" d="M350.14,0h19a43.8,43.8,0,0,1,43.8,43.8V255.39a2.87,2.87,0,0,1-2.87,2.87H309.21a2.87,2.87,0,0,1-2.87-2.87V43.8A43.8,43.8,0,0,1,350.14,0Z" transform="translate(719.23 258.26) rotate(180)"/><path class="cls-5" d="M578.32,121v44.32c8.1-7,17.94-11.69,28.21-14.75C596.51,141.51,586.24,132,578.32,121Z"/></g></g></svg>