<svg xmlns="http://www.w3.org/2000/svg" viewBox="0 0 204.55 100.76"><defs><style>.cls-1{fill:#ead288;}</style></defs><g id="Layer_2" data-name="Layer 2"><g id="Layer_1-2" data-name="Layer 1"><path class="cls-1" d="M143.77,69.54a7.3,7.3,0,0,0-.54-7.2,5.11,5.11,0,0,0-2.48-1.79,6.63,6.63,0,0,0-.77-.18,5.82,5.82,0,0,0-1.3-3.46,3.08,3.08,0,0,0-.64-.58,3.12,3.12,0,0,0-2.19-1.43c-1.6-.15-2.75,1.07-3.61,2.75a4,4,0,0,0-2.91.31A5.87,5.87,0,0,0,125,60.88a12,12,0,0,1-1.25,2.18A9.8,9.8,0,0,0,122,65a15.19,15.19,0,0,0-1.63,5.76c-.25,2.16-.38,4.65,1.06,6a3,3,0,0,0,.61.44c0,.15,0,.31,0,.41v.06c-.06.81-.26,1.58-.36,2.38-.25,2-.23,4.32.82,5.92,1.2,1.83,3.16,1.65,4.73,1.27a9.53,9.53,0,0,0,4.37-2.69c1-1,2.08-2.38,3.39-2.45,1.57-.09,3.1.68,4.67.05a5.35,5.35,0,0,0,2.82-3.63,5.88,5.88,0,0,0,.71-.23,2.27,2.27,0,0,0,1.21-1.78A17,17,0,0,0,143.77,69.54Z"/><path class="cls-1" d="M203.1,41.17c1.91-4.26,2-9.6-1-13.26a10,10,0,0,0-4.82-3.3,13.12,13.12,0,0,0-1.51-.33,10.39,10.39,0,0,0-2.51-6.37A6,6,0,0,0,192,16.84a6,6,0,0,0-4.26-2.64c-3.1-.28-5.35,2-7,5.06a8.14,8.14,0,0,0-5.66.59,11.49,11.49,0,0,0-8.5,5.36c-.84,1.31-1.39,3-2.43,4a17.21,17.21,0,0,0-3.37,3.53c-1.85,3-2.69,6.79-3.17,10.6-.5,4-.74,8.57,2.06,11.09a4.78,4.78,0,0,0,1.18.81c0,.28.05.57.05.77v.11c-.1,1.48-.51,2.9-.69,4.37-.48,3.76-.45,8,1.59,10.9,2.33,3.38,6.14,3,9.19,2.34a18.71,18.71,0,0,0,8.49-5c2-1.89,4.05-4.38,6.59-4.51,3.06-.15,6,1.27,9.07.09,2.68-1,4.5-3.56,5.49-6.67a12.13,12.13,0,0,0,1.37-.43A4.21,4.21,0,0,0,204.33,54,29.71,29.71,0,0,0,203.1,41.17Z"/><path class="cls-1" d="M137.21,24.67c1.66-3.89,1.72-8.77-.89-12.12a8.72,8.72,0,0,0-4.18-3,9.93,9.93,0,0,0-1.31-.3,9.86,9.86,0,0,0-2.18-5.83,5.1,5.1,0,0,0-1.08-1A5.22,5.22,0,0,0,123.87,0c-2.69-.25-4.63,1.81-6.08,4.63a6.76,6.76,0,0,0-4.91.54,9.91,9.91,0,0,0-7.37,4.9c-.73,1.19-1.2,2.78-2.1,3.68A15.8,15.8,0,0,0,100.48,17a25.47,25.47,0,0,0-2.75,9.69c-.43,3.64-.64,7.83,1.79,10.14a4.13,4.13,0,0,0,1,.73c0,.26,0,.52,0,.7s0,.07,0,.1c-.09,1.36-.44,2.66-.61,4-.41,3.44-.38,7.28,1.38,10,2,3.08,5.33,2.77,8,2.14a16,16,0,0,0,7.35-4.53c1.74-1.73,3.52-4,5.72-4.13,2.65-.14,5.22,1.16,7.87.09,2.32-.95,3.9-3.26,4.76-6.11a8.15,8.15,0,0,0,1.18-.39,3.78,3.78,0,0,0,2.05-3A28.55,28.55,0,0,0,137.21,24.67Z"/><path class="cls-1" d="M20.28,70.22A3.17,3.17,0,0,0,19.83,66a4.89,4.89,0,0,0-2.14-1l-.66-.1a2.89,2.89,0,0,0-1.12-2,2.48,2.48,0,0,0-.55-.34,2.92,2.92,0,0,0-1.89-.84,3.51,3.51,0,0,0-3.1,1.61,4.91,4.91,0,0,0-2.5.19A5.58,5.58,0,0,0,4.1,65.14c-.37.41-.61,1-1.07,1.28a7.06,7.06,0,0,0-1.49,1.13,6.82,6.82,0,0,0-1.4,3.37c-.22,1.27-.33,2.73.91,3.54a2.49,2.49,0,0,0,.52.25,2.5,2.5,0,0,1,0,.25v0c0,.47-.22.93-.3,1.39A3.87,3.87,0,0,0,2,79.86c1,1.07,2.72,1,4.07.75A9.45,9.45,0,0,0,9.81,79a6,6,0,0,1,2.92-1.43c1.35,0,2.66.4,4,0a3.7,3.7,0,0,0,2.43-2.13,5.27,5.27,0,0,0,.6-.14,1.44,1.44,0,0,0,1.05-1A6.92,6.92,0,0,0,20.28,70.22Z"/><path class="cls-1" d="M171.61,93.45a1.75,1.75,0,0,0-.45-2.93,6,6,0,0,0-2.14-.73l-.66-.07a2,2,0,0,0-1.12-1.41,3.82,3.82,0,0,0-.55-.24,3.67,3.67,0,0,0-1.89-.58,4.13,4.13,0,0,0-3.1,1.12,12.76,12.76,0,0,0-6.27,1.32,5.5,5.5,0,0,1-1.07.89,7.26,7.26,0,0,0-1.49.78,4.13,4.13,0,0,0-1.4,2.34c-.22.88-.33,1.9.91,2.45a2.28,2.28,0,0,0,.52.18,1.28,1.28,0,0,1,0,.17v0a8.35,8.35,0,0,1-.3,1,2.07,2.07,0,0,0,.7,2.41c1,.75,2.72.67,4.07.52a11.75,11.75,0,0,0,3.75-1.1,7.08,7.08,0,0,1,2.92-1,24.41,24.41,0,0,0,4,0,3.56,3.56,0,0,0,2.43-1.48l.61-.09c.46-.09,1-.38,1-.73A3.51,3.51,0,0,0,171.61,93.45Z"/><path class="cls-1" d="M80.94,53.35c1.42-2.16,1.47-4.87-.76-6.73a8.28,8.28,0,0,0-3.58-1.68c-.37-.07-.74-.12-1.11-.16a4.6,4.6,0,0,0-1.86-3.24A5,5,0,0,0,72.7,41a5.08,5.08,0,0,0-3.16-1.34,6,6,0,0,0-5.2,2.57,8.57,8.57,0,0,0-4.19.3,9.61,9.61,0,0,0-6.31,2.72,11.29,11.29,0,0,1-1.79,2,11.78,11.78,0,0,0-2.5,1.8,10.67,10.67,0,0,0-2.35,5.38c-.37,2-.55,4.34,1.53,5.62a3.46,3.46,0,0,0,.87.41,3.14,3.14,0,0,1,0,.39s0,0,0,.06c-.08.75-.38,1.47-.52,2.22-.35,1.91-.33,4,1.18,5.53,1.73,1.71,4.55,1.54,6.81,1.19a16.24,16.24,0,0,0,6.29-2.52c1.49-1,3-2.22,4.89-2.29,2.27-.08,4.46.64,6.72,0a6.07,6.07,0,0,0,4.07-3.39c.35-.06.69-.13,1-.21a2.46,2.46,0,0,0,1.76-1.67A10.6,10.6,0,0,0,80.94,53.35Z"/><path class="cls-1" d="M96,79.78a3.17,3.17,0,0,0-.46-4.22,4.8,4.8,0,0,0-2.13-1,5.16,5.16,0,0,0-.67-.1,2.93,2.93,0,0,0-1.11-2A3.28,3.28,0,0,0,91,72a3,3,0,0,0-1.89-.84A3.52,3.52,0,0,0,86,72.81a5,5,0,0,0-2.51.18,5.58,5.58,0,0,0-3.76,1.71A6.67,6.67,0,0,1,78.7,76a6.87,6.87,0,0,0-1.5,1.13,7,7,0,0,0-1.4,3.38c-.22,1.27-.32,2.73.91,3.53a2.17,2.17,0,0,0,.53.26c0,.09,0,.18,0,.24v0C77.21,85,77,85.48,77,86a3.87,3.87,0,0,0,.7,3.47c1,1.08,2.72,1,4.07.75a9.41,9.41,0,0,0,3.76-1.58,5.89,5.89,0,0,1,2.91-1.44c1.36-.05,2.67.41,4,0a3.69,3.69,0,0,0,2.43-2.13,5.8,5.8,0,0,0,.6-.13,1.5,1.5,0,0,0,1-1A7.08,7.08,0,0,0,96,79.78Z"/></g></g></svg>