<svg xmlns="http://www.w3.org/2000/svg" viewBox="0 0 1554.06 869.14"><defs><style>.cls-1{fill:#ead288;}.cls-2{fill:#5eaf10;}.cls-3{fill:#ffe52c;}.cls-4{fill:#db0000;}.cls-5{fill:#ffebb3;}</style></defs><g id="Layer_2" data-name="Layer 2"><g id="Layer_1-2" data-name="Layer 1"><path class="cls-1" d="M26.52,512.77h1501a1.68,1.68,0,0,1,1.68,1.68v88.3a118,118,0,0,1-118,118H142.8a118,118,0,0,1-118-118v-88.3a1.68,1.68,0,0,1,1.68-1.68Z"/><path class="cls-2" d="M1554.06,507.85c0,55.73-37.38,100.82-83.6,100.82-23.64,0-44.85-11.81-60.1-30.61a69.82,69.82,0,0,1-19.68,2.83,74.72,74.72,0,0,1-43.33-14,99.7,99.7,0,0,1-51.11,14c-29.59,0-56-12.65-73.22-32.28-15.71,16-36.61,25.62-59.65,25.62a81.54,81.54,0,0,1-52.78-19.46c-15.1,17.47-35.39,28.28-58.13,28.28a72.38,72.38,0,0,1-26.08-5c-16.94,18.8-40.43,30.45-66.36,30.45-40,0-74.3-27.79-87-66.89A93.1,93.1,0,0,1,856,515.83c-10.83,37.77-43.18,65.06-81.31,65.06-27.31,0-51.57-14-67.13-35.94-14.95,37.93-43.78,63.72-76.73,63.72-29.29,0-55.07-20.13-70.94-51.24-16.17,16-37.68,25.62-61.17,25.62-22.58,0-43.18-9-59.19-23.79-16,31.94-47.14,53.57-82.84,53.57-29.75,0-56.29-15-73.53-38.43-19.38,38.6-59.95,65.22-106.94,65.22-43.63,0-81.77-22.8-102.52-57.07C32.49,578.73,0,541,0,495c0-48.75,36.31-88.18,80.85-88.18A74.31,74.31,0,0,1,122.5,419.5a118.62,118.62,0,0,1,53.7-12.64,119.84,119.84,0,0,1,98.85,51.41c16.17-30.78,46.69-51.41,81.62-51.41,23.95,0,45.77,9.65,62.39,25.79,15.72-30.12,45.46-50.42,79.64-50.42,24.71,0,47,10.49,63.46,27.79,15.86-28.62,40.73-47.09,68.65-47.09,33.71,0,63.15,27,77.65,66.56,15.71-21.13,39.51-34.61,66.21-34.61,30.51,0,57.2,17.47,72.31,43.76,7.47-43.59,35.39-75.71,68.8-75.71,25,0,47,18.14,59.65,45.43a112.05,112.05,0,0,1,6.86,20,88,88,0,0,1,9.92-15c15.1-19.3,36.61-31.12,60.25-31.12,20.45,0,39.06,8.66,53.55,23.3a83.43,83.43,0,0,1,57.36-23.3c30.82,0,58.12,17.47,73.84,43.76a100.57,100.57,0,0,1,110.14-5.16,74.78,74.78,0,0,1,43.33-14,73.21,73.21,0,0,1,40.27,12,71.82,71.82,0,0,1,39.51-12C1516.68,406.86,1554.06,452.11,1554.06,507.85Z"/><path class="cls-2" d="M1019.38,470a81,81,0,0,0-9.91,13.73,96.69,96.69,0,0,0-6.87-18.31A77.93,77.93,0,0,1,1019.38,470Z"/><circle class="cls-2" cx="871.33" cy="527.08" r="52.51"/><path class="cls-3" d="M1205.48,332.87,637.7,861a30.37,30.37,0,0,1-49.3-12.06l-206-579.15a30.38,30.38,0,0,1,30.62-40.49l773.74,51C1213.36,282.07,1225,314.74,1205.48,332.87Z"/><rect class="cls-4" x="43.83" y="350.3" width="1470.53" height="113.73" rx="28.62"/><path class="cls-1" d="M292.4,0h973.65a265.23,265.23,0,0,1,265.23,265.23v61.5a30.71,30.71,0,0,1-30.71,30.71H57.63a30.71,30.71,0,0,1-30.71-30.71V265.49A265.49,265.49,0,0,1,292.4,0Z"/><path class="cls-5" d="M350.14,0h19a43.8,43.8,0,0,1,43.8,43.8V255.39a2.87,2.87,0,0,1-2.87,2.87H309.21a2.87,2.87,0,0,1-2.87-2.87V43.8A43.8,43.8,0,0,1,350.14,0Z" transform="translate(719.23 258.26) rotate(180)"/><path class="cls-5" d="M622.12,0h19a43.8,43.8,0,0,1,43.8,43.8V255.39a2.87,2.87,0,0,1-2.87,2.87H581.19a2.87,2.87,0,0,1-2.87-2.87V43.8A43.8,43.8,0,0,1,622.12,0Z" transform="translate(1263.19 258.26) rotate(180)"/><path class="cls-5" d="M894.1,0h19a43.8,43.8,0,0,1,43.8,43.8V255.39a2.87,2.87,0,0,1-2.87,2.87H853.17a2.87,2.87,0,0,1-2.87-2.87V43.8A43.8,43.8,0,0,1,894.1,0Z" transform="translate(1807.15 258.26) rotate(180)"/><path class="cls-5" d="M1166.08,0h19a43.8,43.8,0,0,1,43.8,43.8V255.39a2.87,2.87,0,0,1-2.87,2.87H1125.15a2.87,2.87,0,0,1-2.87-2.87V43.8A43.8,43.8,0,0,1,1166.08,0Z" transform="translate(2351.11 258.26) rotate(180)"/></g></g></svg>