<svg xmlns="http://www.w3.org/2000/svg" viewBox="0 0 210.99 860.33"><defs><style>.cls-1{fill:#ead288;}.cls-2{fill:#5eaf10;}.cls-3{fill:#db0000;}</style></defs><g id="Layer_2" data-name="Layer 2"><g id="Layer_1-2" data-name="Layer 1"><path class="cls-1" d="M168.09,820c-2.83-21-1.61-42.26,7-61.87,8-18.16,21.51-33.26,35.85-46.82a87.45,87.45,0,0,1-32.41-31.56c-17.36-29.07-19.45-66.81-8.91-100.12H26.52a1.68,1.68,0,0,0-1.67,1.68v161a118,118,0,0,0,118,118h35.85A163,163,0,0,1,168.09,820Z"/><path class="cls-2" d="M200.13,704.15a87.79,87.79,0,0,1-21.55-24.36C149,630.21,163.75,555.43,209.92,520.43a77.18,77.18,0,0,1-42.52-27,102,102,0,0,1-11.42-18,117.31,117.31,0,0,0-33.48,11,74.24,74.24,0,0,0-41.65-12.65C36.31,473.76,0,513.19,0,561.94c0,45.92,32.49,83.69,73.68,87.52,20.75,34.27,58.89,57.06,102.52,57.06A122.37,122.37,0,0,0,200.13,704.15Z"/><path class="cls-3" d="M209.92,520.43a77.18,77.18,0,0,1-42.52-27c-16.94-21.24-24.27-48.82-24.61-76.24H72.46a28.63,28.63,0,0,0-28.63,28.62v56.49a28.62,28.62,0,0,0,28.63,28.62H198.1A104.23,104.23,0,0,1,209.92,520.43Z"/><path class="cls-1" d="M146.85,378.54c7.31-32.57,26.83-65.74,59-77.3-10.76-6.8-19.77-16.08-27.16-26.64C146.29,228.36,137.77,137,199,112.76a88.86,88.86,0,0,1-35.18-39C153.22,50.76,151.2,25,154.91,0A265.33,265.33,0,0,0,24.85,228.38V386.49A30.71,30.71,0,0,0,55.56,417.2h87.23A168.09,168.09,0,0,1,146.85,378.54Z"/></g></g></svg>