<svg xmlns="http://www.w3.org/2000/svg" viewBox="0 0 298.01 715.9"><defs><style>.cls-1{fill:#ead288;}.cls-2{fill:#5eaf10;}.cls-3{fill:#db0000;}</style></defs><g id="Layer_2" data-name="Layer 2"><g id="Layer_1-2" data-name="Layer 1"><path class="cls-1" d="M279.78,648c-14.12-3.51-27.26-10.76-35.1-23.51-15-24.48-6-56.94,5.56-80.83A162.4,162.4,0,0,1,273.33,508H26.52a1.68,1.68,0,0,0-1.67,1.68v88.3a118,118,0,0,0,118,118H253C256.78,691.92,266.76,668.87,279.78,648Z"/><path class="cls-2" d="M250.24,543.61c10.33-21.31,26.34-44.3,47.77-56.24a350.07,350.07,0,0,1-27.21-28.08c-9.94-11.43-20.25-24.11-28.65-37.78a120.62,120.62,0,0,0-66-19.46,118.5,118.5,0,0,0-53.7,12.65,74.24,74.24,0,0,0-41.65-12.65C36.31,402.05,0,441.48,0,490.23c0,45.92,32.49,83.69,73.68,87.51C94.43,612,132.57,634.81,176.2,634.81a120.4,120.4,0,0,0,64.45-18.54C231.63,593.07,239.91,564.93,250.24,543.61Z"/><path class="cls-3" d="M224.92,377.68c-1.65-11-.63-22.35,4.4-32.19H72.46a28.62,28.62,0,0,0-28.63,28.62V430.6a28.62,28.62,0,0,0,28.63,28.62H270.74C250.85,436.35,229.53,408.51,224.92,377.68Z"/><path class="cls-1" d="M232.8,339.81c8-11,20-17.91,32.68-22.53-12.19-7.06-23.33-15.95-32.12-27C216,268.37,210,240.67,215,213.35c5.1-28.11,21-53.34,41-73.37-18.23-10.72-34.3-25.94-40.12-46.88-9-32.5,7.3-65.95,26.13-93.1-122.5,23.57-215,131.31-215,260.68v61.24a30.72,30.72,0,0,0,30.71,30.72H226.42A43.27,43.27,0,0,1,232.8,339.81Z"/></g></g></svg>