<svg xmlns="http://www.w3.org/2000/svg" viewBox="0 0 1667.76 1091.63"><defs><style>.cls-1{fill:#dedee0;}.cls-2{fill:#ffefae;}.cls-3{fill:#f9df6e;}.cls-4{fill:#288e06;}</style></defs><g id="Layer_2" data-name="Layer 2"><g id="Layer_1-2" data-name="Layer 1"><ellipse class="cls-1" cx="1026.01" cy="974.75" rx="620.8" ry="116.87"/><path class="cls-2" d="M1580.33,315.92c0,375.6-352.84,723.11-788.09,723.11S4.14,691.52,4.14,315.92,1580.33-59.67,1580.33,315.92Z"/><ellipse class="cls-3" cx="792.24" cy="305.65" rx="788.1" ry="247.72"/><path class="cls-4" d="M325.57,30.16c-30.29-13-57.32-10.25-111.39-4.74C170.34,29.89,148,32.31,133.6,46.75,122,58.42,104.79,85.87,105.16,84.67,98.35,106.47,84.81,96,81.05,105.49c-11.25,28.25-42,45-42,45-4.36,11.7-.56,25.05-7.36,38.5-6.71,13.28-11.64,18.37-19,33.18C5.94,235.89,2.41,243,.88,250.57c-7,34.7,29.81,70.52,45,85.32,22.45,21.83,24.93,14.73,45,35.55,29.24,30.28,25.82,47.18,49.77,61.62,14.51,8.75,28.64,9.78,56.88,11.85,37.86,2.77,46.06-5,78.21,0,18.93,3,32.19,8.21,47.4,14.22,38.92,15.38,58.94,23.29,71.1,42.66,13.22,21.06,2.14,31.75,19,66.36,6.55,13.47,12.14,25,23.7,33.18,22.17,15.74,55.76,10.6,78.21,0C566.71,577,552.75,526.44,610,489.94c26.1-16.65,63-27.8,78.21-14.22,8.73,7.79,4.84,18.83,16.59,33.18s28.61,18.88,37.92,21.33c18.61,4.89,40.31,1.75,82.95-4.74,22.26-3.39,34.55-6.07,49.76,0C886.63,530,894,537,899.1,542.08c20.56,20.18,17,34.81,30.81,47.4,17,15.46,45.17,14.09,61.62,9.48,33.52-9.39,53.75-42.11,68.73-66.36,17.25-27.9,17.49-41.13,30.81-45,17.46-5.11,29.68,13.9,59.25,23.7,20.63,6.84,37.53,4.32,71.1,0,39.73-5.11,67.94-14.88,106.65-28.44,21.73-7.61,46.88-18.5,97.17-40.29,0,0,19.4-8.4,52.14-26.07,10.49-5.66,17.76-9.85,26.07-16.59,12.88-10.44,17.94-18.71,26.07-28.44,14.82-17.74,38.6-46.2,64-45,16.32.76,18.63,13.09,40.29,14.22,5.88.31,12-16.85,21.86-27.56,14.53-15.86,13.83-28.65,8.95-41.17a116,116,0,0,0-33.18-47.4c-30.56-26.06-49.64-14.92-71.1-40.29-16.93-20-21.1-45.88-21.33-47.4-2.7-18,2.08-23.84-2.37-37.92S1522.81,76.08,1503.45,61c-34-26.48-50.94-39.72-64-45-26.42-10.74-61.06-7.16-130.35,0-41.93,4.34-55.84,9.52-66.36,14.22-30.57,13.68-28.62,24.72-52.14,30.81-30.83,8-37.23-10.19-82.95-4.74-10.05,1.2-21.88,3.53-37.92,0a90.43,90.43,0,0,1-28.44-11.85c-40.06-24.11-59.56-37.57-68.73-40.29C941.78-5,938,3.9,865.92,4.09c-51.74.14-64.75-4.42-109,0-28,2.8-44.73,6.82-54.51,9.48-32,8.71-39.79,16.68-61.62,23.7-31.48,10.13-36.18.3-99.54,2.37-56.37,1.85-109,9.48-109,9.48-21.46,3.12-41.18,6.77-66.36,0C346.52,43.93,343.31,37.78,325.57,30.16Z"/></g></g></svg>