<svg xmlns="http://www.w3.org/2000/svg" viewBox="0 0 1667.76 1094.77"><defs><style>.cls-1{fill:#dedee0;}.cls-2{fill:#ffefae;}.cls-3{fill:#f9df6e;}.cls-4{fill:#288e06;}.cls-5{fill:#98dd3e;}.cls-6{fill:#e8951c;}</style></defs><g id="Layer_2" data-name="Layer 2"><g id="Layer_1-2" data-name="Layer 1"><ellipse class="cls-1" cx="1026.01" cy="977.89" rx="620.8" ry="116.87"/><path class="cls-2" d="M1580.33,319.06c0,375.6-352.84,723.11-788.09,723.11S4.14,694.66,4.14,319.06,1580.33-56.54,1580.33,319.06Z"/><ellipse class="cls-3" cx="792.24" cy="308.79" rx="788.1" ry="247.72"/><path class="cls-4" d="M325.57,33.3c-30.29-13-57.32-10.25-111.39-4.74C170.34,33,148,35.44,133.6,49.89,122,61.56,104.79,89,105.16,87.81c-6.81,21.8-20.35,11.37-24.11,20.82-11.25,28.24-42,45-42,45-4.36,11.7-.56,25-7.36,38.5-6.71,13.28-11.64,18.36-19,33.18C5.94,239,2.41,246.17.88,253.71c-7,34.7,29.81,70.52,45,85.32,22.45,21.83,24.93,14.73,45,35.55,29.24,30.28,25.82,47.18,49.77,61.62,14.51,8.75,28.64,9.78,56.88,11.85,37.86,2.77,46.06-5.05,78.21,0,18.93,3,32.19,8.21,47.4,14.22,38.92,15.38,58.94,23.29,71.1,42.66,13.22,21.06,2.14,31.75,19,66.36,6.55,13.47,12.14,25,23.7,33.18,22.17,15.73,55.76,10.59,78.21,0,51.54-24.33,37.58-74.9,94.8-111.39,26.1-16.65,63-27.8,78.21-14.22,8.73,7.79,4.84,18.83,16.59,33.18s28.61,18.88,37.92,21.33c18.61,4.89,40.31,1.75,82.95-4.74,22.26-3.39,34.55-6.08,49.76,0,11.23,4.48,18.56,11.54,23.7,16.59,20.56,20.18,17,34.81,30.81,47.4,17,15.46,45.17,14.09,61.62,9.48,33.52-9.39,53.75-42.11,68.73-66.36,17.25-27.91,17.49-41.13,30.81-45,17.46-5.11,29.68,13.9,59.25,23.7,20.63,6.83,37.53,4.32,71.1,0,39.73-5.12,67.94-14.88,106.65-28.44,21.73-7.61,46.88-18.51,97.17-40.29,0,0,19.4-8.4,52.14-26.07,10.49-5.66,17.76-9.86,26.07-16.59,12.88-10.45,17.94-18.71,26.07-28.44,14.82-17.74,38.6-46.2,64-45,16.32.75,18.63,13.08,40.29,14.22,5.88.31,12-16.85,21.86-27.56,14.53-15.87,13.83-28.65,8.95-41.17a116,116,0,0,0-33.18-47.4c-30.56-26.06-49.64-14.92-71.1-40.29-16.93-20-21.1-45.88-21.33-47.4-2.7-18,2.08-23.84-2.37-37.92s-13.82-22.82-33.18-37.92c-34-26.48-50.94-39.72-64-45-26.42-10.74-61.06-7.16-130.35,0-41.93,4.34-55.84,9.52-66.36,14.22C1212.18,47,1214.13,58,1190.61,64.11c-30.83,8-37.23-10.19-82.95-4.74-10.05,1.2-21.88,3.53-37.92,0a90.67,90.67,0,0,1-28.44-11.85C1001.24,23.4,981.74,10,972.57,7.23,941.78-1.88,938,7,865.92,7.23c-51.74.14-64.75-4.43-109,0-28,2.8-44.73,6.82-54.51,9.48-32,8.71-39.79,16.68-61.62,23.7-31.48,10.13-36.18.3-99.54,2.37-56.37,1.85-109,9.48-109,9.48-21.46,3.11-41.18,6.77-66.36,0C346.52,47.07,343.31,40.92,325.57,33.3Z"/><path class="cls-5" d="M422.94,161.81c-35-13.82-34-20.49-53.37-25.21-27.74-6.76-52,1.51-59,4-22.5,8-35.73,21.2-43.55,29.19-8.66,8.87-28.53,29.19-32.3,61-1,8.51-3,25.74,5.62,43.79,9.53,19.84,21.83,19.47,30.9,42.46,1.83,4.64,6.61,16.78,7,31.85.06,2,0,7.11,0,17.25,0,15.4-.18,15.39,0,17.25.82,8.49,4.45,19.9,11.24,26.54,9.36,9.17,23,7.57,42.13,8,23.17.48,45.87,6.33,68.83,9.28,51.44,6.62,55.31,7.85,75.84,9.29,26.44,1.85,40,2.73,56.19,0,17.27-2.9,30.48-8.61,56.18-19.9,43.92-19.3,40.77-23.65,61.8-29.2,31.56-8.31,38.82,1.44,66-9.29,9.72-3.83,29.89-11.78,40.74-30.52,5.3-9.15,4.49-14.16,5.61-51.75,1.48-49.36,3.27-54-1.4-66.35-8.91-23.5-27-37-30.9-39.81-38.89-28-89-15.56-92.7-14.6-34.83,9.15-59.91,11.58-87.08,9.29-5.54-.47-20.49-13.08-63.21-22.56-14.77-3.27-56.6,1.92-64.61,0-10.66-2.55,52.87,17.45,35.11,11.95C445.89,170,435.39,166.73,422.94,161.81Z"/><path class="cls-5" d="M1183.54,27.81c-35-13.82-34-20.5-53.37-25.21-27.74-6.76-52,1.51-59,4-22.49,8-35.72,21.2-43.54,29.19-8.66,8.87-28.53,29.19-32.3,61-1,8.51-3.05,25.74,5.62,43.79,9.53,19.84,21.83,19.47,30.9,42.46,1.83,4.64,6.61,16.78,7,31.85.05,2,0,7.11,0,17.25-.06,15.4-.18,15.39,0,17.25.81,8.49,4.45,19.9,11.24,26.54,9.36,9.17,23,7.57,42.13,8,23.17.48,45.86,6.34,68.83,9.29,51.44,6.62,55.3,7.85,75.84,9.29,26.44,1.85,40,2.72,56.19,0,17.27-2.9,30.48-8.61,56.18-19.9,43.92-19.3,40.77-23.65,61.8-29.2,31.56-8.31,38.82,1.44,66-9.29,9.72-3.83,29.89-11.78,40.74-30.52,5.29-9.15,4.49-14.16,5.61-51.75,1.48-49.36,3.27-54-1.4-66.35-8.91-23.5-27-37-30.9-39.81-38.89-27.95-89.05-15.56-92.7-14.6-34.83,9.15-59.91,11.58-87.09,9.29-5.53-.47-20.48-13.08-63.2-22.56-14.77-3.28-56.6,1.92-64.61,0-10.66-2.55,52.87,17.45,35.11,12C1206.49,36,1196,32.73,1183.54,27.81Z"/><path class="cls-5" d="M941.29,336.22C916.91,326,917.58,321,904.09,317.51c-19.33-5-36.27,1.13-41.12,3-15.67,5.91-24.9,15.73-30.34,21.66-6,6.57-19.88,21.65-22.52,45.28-.7,6.32-2.12,19.11,3.92,32.49,6.64,14.72,15.22,14.45,21.54,31.51A73,73,0,0,1,840.46,475c0,1.51,0,5.27,0,12.8,0,11.42-.12,11.41,0,12.79.57,6.3,3.1,14.76,7.83,19.69,6.53,6.81,16,5.62,29.37,5.91,16.15.36,32,4.7,48,6.89C961.48,538,964.17,539,978.48,540c18.43,1.38,27.87,2,39.16,0,12-2.15,21.24-6.38,39.16-14.76,30.6-14.32,28.41-17.55,43.07-21.66,22-6.17,27.05,1.06,46-6.89,6.77-2.85,20.82-8.75,28.38-22.65,3.7-6.79,3.13-10.51,3.92-38.39,1-36.62,2.28-40.08-1-49.23a66.5,66.5,0,0,0-21.54-29.54c-27.1-20.73-62.06-11.54-64.6-10.82-24.27,6.78-41.75,8.59-60.69,6.89-3.86-.35-14.28-9.71-44-16.74-10.3-2.43-39.45,1.42-45,0-7.43-1.89,36.85,12.94,24.47,8.86C957.28,342.28,950,339.87,941.29,336.22Z"/><path class="cls-6" d="M178.22,112.3c-8.52-1.07,1.91-38.84,19.37-47.25C254.38,37.69,422.93,265.7,422.93,265.7h0s-10.45,37-18.93,32.6C349.14,270.11,306,128.35,178.22,112.3Z"/><path class="cls-6" d="M582.28,289.81c.17-8.58,38.82-2.16,49,14.33,33.15,53.61-176,245.1-176,245.1h0s-37.85-6.53-34.4-15.42C443.22,476.31,579.68,418.53,582.28,289.81Z"/><path class="cls-6" d="M1204.13,81.08c-8.51-1.09,2-38.82,19.53-47.18,56.88-27.17,224.69,201.38,224.69,201.38h0s-10.57,36.92-19,32.54C1374.55,239.45,1331.83,97.55,1204.13,81.08Z"/><path class="cls-6" d="M1060.39,306.69c.17-8.58,38.82-2.16,49,14.32,33.15,53.62-176,245.11-176,245.11h0s-37.85-6.53-34.4-15.42C921.33,493.19,1057.79,435.41,1060.39,306.69Z"/><path class="cls-6" d="M804.9,138.26c-7.71-3.79,14.45-36.1,33.7-38.37C901.2,92.51,986.35,363,986.35,363h0s-21.92,31.55-28.51,24.67C915.14,343.11,920.46,195,804.9,138.26Z"/></g></g></svg>