<svg xmlns="http://www.w3.org/2000/svg" viewBox="0 0 1667.76 1098.9"><defs><style>.cls-1{fill:#dedee0;}.cls-2{fill:#ffefae;}.cls-3{fill:#f9df6e;}.cls-4{fill:#288e06;}.cls-5{fill:#98dd3e;}.cls-6{fill:#c1272d;}.cls-7{fill:#e8951c;}</style></defs><g id="Layer_2" data-name="Layer 2"><g id="Layer_1-2" data-name="Layer 1"><ellipse class="cls-1" cx="1026.01" cy="982.03" rx="620.8" ry="116.87"/><path class="cls-2" d="M1580.33,323.2c0,375.6-352.84,723.11-788.09,723.11S4.14,698.8,4.14,323.2,1580.33-52.4,1580.33,323.2Z"/><ellipse class="cls-3" cx="792.24" cy="312.92" rx="788.1" ry="247.72"/><path class="cls-4" d="M325.57,37.44c-30.29-13-57.32-10.25-111.39-4.74C170.34,37.17,148,39.58,133.6,54,122,65.7,104.79,93.14,105.16,92c-6.81,21.8-20.35,11.37-24.11,20.81-11.25,28.25-42,45-42,45-4.36,11.69-.56,25-7.36,38.5-6.71,13.28-11.64,18.36-19,33.18C5.94,243.16,2.41,250.31.88,257.85c-7,34.69,29.81,70.52,45,85.32,22.45,21.82,24.93,14.73,45,35.55,29.24,30.27,25.82,47.18,49.77,61.62,14.51,8.74,28.64,9.78,56.88,11.85,37.86,2.77,46.06-5.05,78.21,0,18.93,3,32.19,8.2,47.4,14.22,38.92,15.37,58.94,23.29,71.1,42.65,13.22,21.06,2.14,31.76,19,66.36,6.55,13.48,12.14,25,23.7,33.18,22.17,15.74,55.76,10.6,78.21,0,51.54-24.32,37.58-74.89,94.8-111.39,26.1-16.64,63-27.8,78.21-14.21,8.73,7.79,4.84,18.83,16.59,33.17s28.61,18.89,37.92,21.33c18.61,4.9,40.31,1.75,82.95-4.74,22.26-3.38,34.55-6.07,49.76,0,11.23,4.49,18.56,11.54,23.7,16.59,20.56,20.19,17,34.82,30.81,47.4,17,15.46,45.17,14.09,61.62,9.48,33.52-9.38,53.75-42.11,68.73-66.36,17.25-27.9,17.49-41.13,30.81-45,17.46-5.11,29.68,13.9,59.25,23.69,20.63,6.84,37.53,4.33,71.1,0,39.73-5.11,67.94-14.87,106.65-28.43,21.73-7.62,46.88-18.51,97.17-40.29,0,0,19.4-8.41,52.14-26.07,10.49-5.67,17.76-9.86,26.07-16.59,12.88-10.45,17.94-18.72,26.07-28.44,14.82-17.74,38.6-46.21,64-45,16.32.75,18.63,13.08,40.29,14.22,5.88.3,12-16.85,21.86-27.56,14.53-15.87,13.83-28.65,8.95-41.17a116,116,0,0,0-33.18-47.4c-30.56-26.07-49.64-14.92-71.1-40.29-16.93-20-21.1-45.88-21.33-47.4-2.7-18,2.08-23.85-2.37-37.92s-13.82-22.82-33.18-37.92c-34-26.48-50.94-39.72-64-45-26.42-10.74-61.06-7.16-130.35,0-41.93,4.33-55.84,9.51-66.36,14.22-30.57,13.67-28.62,24.71-52.14,30.81-30.83,8-37.23-10.19-82.95-4.74-10.05,1.2-21.88,3.53-37.92,0a90.91,90.91,0,0,1-28.44-11.85c-40.06-24.12-59.56-37.58-68.73-40.29-30.79-9.12-34.6-.19-106.65,0-51.74.14-64.75-4.43-109,0-28,2.8-44.73,6.81-54.51,9.48-32,8.7-39.79,16.67-61.62,23.7-31.48,10.13-36.18.29-99.54,2.37-56.37,1.84-109,9.48-109,9.48-21.46,3.11-41.18,6.76-66.36,0C346.52,51.2,343.31,45.06,325.57,37.44Z"/><path class="cls-5" d="M422.94,166c-35-13.82-34-20.5-53.37-25.21-27.74-6.76-52,1.51-59,4-22.5,8-35.73,21.2-43.55,29.19-8.66,8.87-28.53,29.18-32.3,61-1,8.51-3,25.75,5.62,43.79,9.53,19.84,21.83,19.48,30.9,42.47,1.83,4.64,6.61,16.78,7,31.85.06,2,0,7.1,0,17.25,0,15.39-.18,15.38,0,17.25.82,8.48,4.45,19.89,11.24,26.54,9.36,9.17,23,7.56,42.13,8,23.17.48,45.87,6.34,68.83,9.29,51.44,6.62,55.31,7.85,75.84,9.29,26.44,1.85,40,2.72,56.19,0,17.27-2.91,30.48-8.61,56.18-19.91,43.92-19.3,40.77-23.65,61.8-29.19,31.56-8.32,38.82,1.44,66-9.29,9.72-3.83,29.89-11.79,40.74-30.52,5.3-9.15,4.49-14.16,5.61-51.75,1.48-49.36,3.27-54-1.4-66.35-8.91-23.51-27-37-30.9-39.81-38.89-27.95-89-15.56-92.7-14.6-34.83,9.14-59.91,11.58-87.08,9.29-5.54-.47-20.49-13.08-63.21-22.56-14.77-3.28-56.6,1.92-64.61,0-10.66-2.55,52.87,17.45,35.11,11.94C445.89,174.12,435.39,170.87,422.94,166Z"/><path class="cls-5" d="M1183.54,32c-35-13.82-34-20.5-53.37-25.22-27.74-6.75-52,1.52-59,4-22.49,8-35.72,21.2-43.54,29.19-8.66,8.86-28.53,29.18-32.3,61-1,8.51-3.05,25.75,5.62,43.79,9.53,19.84,21.83,19.47,30.9,42.47,1.83,4.64,6.61,16.78,7,31.85.05,2,0,7.1,0,17.25-.06,15.39-.18,15.38,0,17.25.81,8.48,4.45,19.89,11.24,26.54,9.36,9.17,23,7.56,42.13,8,23.17.48,45.86,6.33,68.83,9.29,51.44,6.62,55.3,7.85,75.84,9.29,26.44,1.85,40,2.72,56.19,0,17.27-2.91,30.48-8.61,56.18-19.91,43.92-19.3,40.77-23.65,61.8-29.19,31.56-8.32,38.82,1.44,66-9.29,9.72-3.83,29.89-11.79,40.74-30.52,5.29-9.15,4.49-14.17,5.61-51.75,1.48-49.36,3.27-54-1.4-66.35-8.91-23.51-27-37-30.9-39.81-38.89-28-89.05-15.56-92.7-14.6-34.83,9.14-59.91,11.58-87.09,9.29-5.53-.47-20.48-13.08-63.2-22.56-14.77-3.28-56.6,1.92-64.61,0-10.66-2.55,52.87,17.45,35.11,11.94C1206.49,40.12,1196,36.87,1183.54,32Z"/><path class="cls-5" d="M941.29,340.36c-24.38-10.26-23.71-15.21-37.2-18.71-19.33-5-36.27,1.12-41.12,3-15.67,5.92-24.9,15.73-30.34,21.66-6,6.58-19.88,21.65-22.52,45.29-.7,6.31-2.12,19.1,3.92,32.49,6.64,14.72,15.22,14.45,21.54,31.5a73.05,73.05,0,0,1,4.89,23.63c0,1.51,0,5.27,0,12.8,0,11.42-.12,11.42,0,12.8.57,6.29,3.1,14.76,7.83,19.69,6.53,6.8,16,5.61,29.37,5.91,16.15.35,32,4.7,48,6.89,35.86,4.91,38.55,5.82,52.86,6.89,18.43,1.37,27.87,2,39.16,0,12-2.15,21.24-6.39,39.16-14.77,30.6-14.32,28.41-17.54,43.07-21.66,22-6.17,27.05,1.07,46-6.89,6.77-2.84,20.82-8.74,28.38-22.64,3.7-6.79,3.13-10.51,3.92-38.4,1-36.62,2.28-40.08-1-49.22A66.5,66.5,0,0,0,1155.66,361c-27.1-20.74-62.06-11.54-64.6-10.83-24.27,6.79-41.75,8.59-60.69,6.89-3.86-.34-14.28-9.7-44-16.73-10.3-2.44-39.45,1.42-45,0-7.43-1.9,36.85,12.94,24.47,8.86C957.28,346.42,950,344,941.29,340.36Z"/><ellipse class="cls-6" cx="169.04" cy="272.32" rx="68.75" ry="85.93" transform="translate(-61.8 49.95) rotate(-14.24)"/><ellipse class="cls-6" cx="1152.12" cy="187.31" rx="85.93" ry="68.75" transform="translate(304.33 989.63) rotate(-52.66)"/><ellipse class="cls-6" cx="731.9" cy="478.27" rx="85.93" ry="68.75" transform="translate(13.97 977.27) rotate(-67.97)"/><ellipse class="cls-6" cx="527.77" cy="85.01" rx="68.75" ry="85.93" transform="translate(-4.69 132.45) rotate(-14.24)"/><ellipse class="cls-6" cx="1448.35" cy="305.65" rx="85.93" ry="68.75" transform="translate(621.65 1533.54) rotate(-67.97)"/><path class="cls-7" d="M178.22,116.43c-8.52-1.07,1.91-38.83,19.37-47.24,56.79-27.36,225.34,200.65,225.34,200.65h0s-10.45,37-18.93,32.6C349.14,274.24,306,132.49,178.22,116.43Z"/><path class="cls-7" d="M582.28,294c.17-8.58,38.82-2.16,49,14.32,33.15,53.62-176,245.1-176,245.1h0s-37.85-6.53-34.4-15.42C443.22,480.45,579.68,422.67,582.28,294Z"/><path class="cls-7" d="M1204.13,85.22c-8.51-1.1,2-38.83,19.53-47.18,56.88-27.18,224.69,201.37,224.69,201.37h0s-10.57,36.93-19,32.54C1374.55,243.58,1331.83,101.69,1204.13,85.22Z"/><path class="cls-7" d="M1060.39,310.83c.17-8.58,38.82-2.16,49,14.32,33.15,53.62-176,245.1-176,245.1h0s-37.85-6.53-34.4-15.42C921.33,497.33,1057.79,439.55,1060.39,310.83Z"/><path class="cls-7" d="M804.9,142.39c-7.71-3.78,14.45-36.09,33.7-38.36C901.2,96.64,986.35,367.1,986.35,367.1h0s-21.92,31.54-28.51,24.66C915.14,347.25,920.46,199.15,804.9,142.39Z"/></g></g></svg>