<svg width="71" height="78" viewBox="0 0 71 78" fill="none" xmlns="http://www.w3.org/2000/svg">
<path d="M37.2044 0.243901C34.855 0.261506 32.6131 1.11988 30.9718 2.6302C29.3305 4.14051 28.4242 6.17904 28.4524 8.29734C28.4806 10.4156 29.4409 12.4402 31.122 13.9256C32.8032 15.411 35.0675 16.2356 37.4168 16.218C39.7661 16.2004 42.0081 15.342 43.6494 13.8317C45.2907 12.3214 46.1969 10.2829 46.1688 8.16458C46.1406 6.04628 45.1803 4.02173 43.4991 2.53632C41.818 1.0509 39.5537 0.226295 37.2044 0.243901ZM12.6139 16.4039C8.3974 16.4355 4.91932 19.124 4.07375 22.6897L0.740377 35.3767C0.585459 35.9849 0.47991 36.6083 0.48862 37.2632C0.547297 41.6752 4.55976 45.2205 9.45302 45.1839C10.1156 45.1789 10.7488 45.0866 11.3672 44.9573C11.3079 44.4945 11.2097 44.0428 11.2034 43.5732C11.1908 42.6243 11.2874 41.6664 11.4838 40.7192L16.5426 17.2544C15.3554 16.7201 14.0347 16.3932 12.6139 16.4039ZM65.7775 19.1757C65.5448 19.1807 65.3158 19.227 65.1033 19.3119C64.8909 19.3968 64.6992 19.5186 64.5393 19.6705C64.3793 19.8224 64.2543 20.0013 64.1712 20.197C64.0881 20.3927 64.0486 20.6014 64.0551 20.8111L64.0975 23.9997L55.0528 31.3814L46.47 26.653C46.4473 26.8129 46.4438 26.9677 46.414 27.1277L44.8246 35.6392C49.7662 37.107 54.5857 38.4554 55.6451 38.4474C56.492 38.4411 57.3318 38.1602 57.9874 37.6248L64.2111 32.5421L64.7774 75.1231C64.7769 75.3348 64.823 75.5447 64.9132 75.7404C65.0034 75.9362 65.1357 76.114 65.3026 76.2635C65.4694 76.4131 65.6674 76.5313 65.8851 76.6114C66.1028 76.6915 66.3358 76.7318 66.5706 76.73C66.8054 76.7283 67.0372 76.6844 67.2527 76.6011C67.4683 76.5178 67.6631 76.3966 67.8259 76.2446C67.9888 76.0926 68.1164 75.9129 68.2013 75.7158C68.2862 75.5187 68.3268 75.3082 68.3207 75.0966L67.7167 29.6826L68.9423 28.6812C70.39 27.4978 70.4942 25.4773 69.1798 24.1676C68.7463 23.7391 68.2013 23.4918 67.6321 23.3242L67.5983 20.7846C67.5992 20.5706 67.5524 20.3584 67.4606 20.1607C67.3689 19.9631 67.2341 19.7839 67.0643 19.6338C66.8944 19.4837 66.693 19.3659 66.4719 19.2872C66.2509 19.2085 66.0147 19.1705 65.7775 19.1757ZM30.3658 19.466C26.0163 19.4986 22.4577 22.3612 21.761 26.0955L21.7474 26.1081L18.4551 41.8838C18.4532 41.8923 18.4503 41.9003 18.4485 41.9088L18.4486 41.9213C18.3393 42.4383 18.2827 42.9732 18.29 43.5201C18.3227 45.9834 19.6176 48.1477 21.5822 49.5986L21.6109 49.6733L35.5336 59.3666L39.6494 72.7216L40.0016 74.223C40.1464 74.9714 40.582 75.6499 41.2302 76.1368C41.8784 76.6236 42.6969 76.8871 43.539 76.8799C44.4787 76.8728 45.3755 76.5295 46.032 75.9254C46.6886 75.3212 47.051 74.5058 47.0398 73.6585C47.0367 73.449 47.0107 73.2401 46.9623 73.035L43.2066 57.0874C43.1058 56.6557 42.9072 56.2471 42.6231 55.8874L35.8478 44.9986C35.8538 44.9704 35.8479 44.9394 35.8536 44.9111L39.1258 29.1855L39.1188 29.1793C39.2583 28.6007 39.3454 28.0043 39.3371 27.3866C39.2785 22.9799 35.263 19.4327 30.3658 19.466ZM18.2747 53.8233L16.5268 59.2594L8.7979 71.9044L8.54023 72.3057L8.54724 72.3119C8.50651 72.3734 8.46811 72.4362 8.43208 72.5L8.40506 72.5501C8.17491 72.9872 8.0582 73.4661 8.06379 73.9506C8.07505 74.7979 8.45917 75.6077 9.13163 76.2019C9.80409 76.796 10.7098 77.1259 11.6495 77.1188C12.2084 77.1145 12.7577 76.991 13.2526 76.7584C13.7475 76.5259 14.174 76.1909 14.4971 75.7808L14.504 75.7807L14.5584 75.7054C14.5607 75.7033 14.5629 75.7012 14.5652 75.6991L26.1362 59.4744L18.2747 53.8233Z" fill="#B43115"/>
</svg>
