<?xml version="1.0" encoding="utf-8"?>
<svg viewBox="0 0 2000 2000" xmlns="http://www.w3.org/2000/svg" xmlns:xlink="http://www.w3.org/1999/xlink">
  <defs>
    <linearGradient id="linear-gradient" x1="995.65" y1="1978.94" x2="1004.68" y2="-53.36" gradientUnits="userSpaceOnUse" gradientTransform="matrix(1.404391, 0, 0, 1, -460.835857, 1.561493)">
      <stop offset="0" stop-color="#fefefe"/>
      <stop offset="0.62" stop-color="#f1faff"/>
      <stop offset="0.8" stop-color="#edf9ff"/>
    </linearGradient>
    <linearGradient id="linear-gradient-2" x1="911.91" y1="1258.65" x2="912.67" y2="1040.9" gradientTransform="matrix(1, 0, 0, -1, 694, 2606)" gradientUnits="userSpaceOnUse">
      <stop offset="0.46" stop-color="#d1f1b8"/>
      <stop offset="1" stop-color="#f6fdf1"/>
    </linearGradient>
    <linearGradient id="linear-gradient-3" x1="508.27" y1="1188.02" x2="509.23" y2="910.17" xlink:href="#linear-gradient-2"/>
    <style>.cls-1{fill:url(#linear-gradient);}.cls-2{fill:#f7edbe;}.cls-3{fill:#d0e9f4;}.cls-4{fill:#d4dbe8;}.cls-5{fill:#b43115;}.cls-6{fill:url(#linear-gradient-2);}.cls-7{fill:url(#linear-gradient-3);}.cls-8{font-size:60px;font-family:MyriadPro-Regular, Myriad Pro;}.cls-9{letter-spacing:-0.01em;}.cls-10{letter-spacing:0em;}.cls-11{letter-spacing:-0.01em;}.cls-12{letter-spacing:-0.01em;}.cls-13{letter-spacing:0em;}.cls-14{letter-spacing:-0.01em;}.cls-15{letter-spacing:-0.01em;}.cls-16{letter-spacing:0em;}.cls-17{letter-spacing:-0.01em;}.cls-18{letter-spacing:0em;}.cls-19{letter-spacing:0em;}</style>
  </defs>
  <rect class="cls-1" x="-312.041" width="2511.173px" height="2000px" rx="58.91" style="" y="1.562"/>
  <circle class="cls-2" cx="1640.54" cy="227.99" r="83.45"/>
  <circle class="cls-3" cx="1525.38" cy="284.01" r="60.84"/>
  <circle class="cls-3" cx="1455.89" cy="303.48" r="49.54"/>
  <circle class="cls-3" cx="1591" cy="292.33" r="49.54"/>
  <circle class="cls-3" cx="1505.42" cy="322.44" r="38.44"/>
  <circle class="cls-3" cx="439.58" cy="154.95" r="78.35"/>
  <circle class="cls-3" cx="350.09" cy="180.03" r="63.79"/>
  <circle class="cls-3" cx="524.09" cy="165.66" r="63.79"/>
  <circle class="cls-3" cx="413.89" cy="204.45" r="49.5"/>
  <path class="cls-4" d="M119.23,1847.39c-6.65-19.18,36.85-68.25,91.09-64.81,41.71,2.64,80.12,35.75,75.47,54.44C277.56,1870.07,129.71,1877.62,119.23,1847.39Z"/>
  <path class="cls-5" d="M320.91,1710a21.29,21.29,0,1,0,15,6.23A21.29,21.29,0,0,0,320.91,1710Zm-59.6,42.57a21.26,21.26,0,0,0-20.72,16.58l-8.42,33.75a21.06,21.06,0,0,0,25.23,25.74,35.15,35.15,0,0,1-.35-3.69,38.35,38.35,0,0,1,.77-7.6l12.9-62.43A20.55,20.55,0,0,0,261.31,1752.57ZM389,1761a4.28,4.28,0,0,0-1.62.35,4.19,4.19,0,0,0-1.37.94,4.42,4.42,0,0,0-.9,1.4,4.17,4.17,0,0,0-.3,1.63v8.5l-22,19.49-20.47-12.77c-.06.43-.07.84-.15,1.27l-4.09,22.65c11.83,4,23.36,7.7,25.91,7.7a8.54,8.54,0,0,0,5.65-2.15l15.12-13.42v113.48a4.29,4.29,0,0,0,2.61,4,4.26,4.26,0,0,0,1.65.33,4.21,4.21,0,0,0,1.64-.33,4.38,4.38,0,0,0,1.39-.94,4.21,4.21,0,0,0,.92-1.4,4.4,4.4,0,0,0,.31-1.65v-121l3-2.64a8.53,8.53,0,0,0,.72-12,8.39,8.39,0,0,0-3.69-2.28v-6.77a4.3,4.3,0,0,0-.32-1.66,4.26,4.26,0,0,0-2.34-2.35A4.34,4.34,0,0,0,389,1761Zm-85.09.07A21.23,21.23,0,0,0,283,1778.58l0,0-8.41,42a.25.25,0,0,1,0,.07v0a21,21,0,0,0,7.29,20.52l.06.2L315,1867.52l9.46,35.67.8,4a8.52,8.52,0,1,0,16.76-3l-8.51-42.57a8.56,8.56,0,0,0-1.37-3.21l-15.93-29.15c0-.08,0-.16,0-.24l8.36-41.84h0a21.14,21.14,0,0,0-20.72-26.06Zm-30.15,91.31-4.38,14.45-19,33.55-.64,1.06,0,0c-.1.16-.19.33-.28.5l-.07.13a8.51,8.51,0,0,0,14.54,8.73h0l.14-.2v0l28.32-43Z"/>
  <path class="cls-4" d="M331.5,1952.52c-4.84-14,26.82-49.87,66.29-47.36,30.36,1.94,58.32,26.13,54.93,39.78C446.74,1969.09,339.13,1974.61,331.5,1952.52Z"/>
  <path class="cls-4" d="M139.6,1927.11c-3.66-10.59,20.29-37.72,50.15-35.82,23,1.47,44.11,19.76,41.55,30.09C226.77,1939.65,145.37,1943.82,139.6,1927.11Z"/>
  <path class="cls-4" d="M453.49,1869.2c-4.84-14,26.83-49.87,66.3-47.36,30.36,1.93,58.32,26.13,54.93,39.78C568.74,1885.77,461.12,1891.28,453.49,1869.2Z"/>
  <path class="cls-6" d="M1482.2,1514.07l-25.14-25.31-15.89,23.38-22.49,30.23H1794.5l-35.73-96.79H1697.9l-76.75-98.28-99.25,98.28h-14.56Z"/>
  <path class="cls-7" d="M1044.41,1630.72l-32.09-32.3-20.27,29.83-28.7,38.57h479.56l-45.59-123.5h-77.68l-97.93-125.41-126.65,125.41h-18.57Z"/>
  <text class="cls-8" transform="matrix(1, 0, 0, 1, 366.109985, 702.049988)" style="white-space: pre;"><tspan class="cls-9">A</tspan><tspan class="cls-10" x="36" y="0">dd </tspan><tspan class="cls-11" x="116.4" y="0">t</tspan><tspan x="135.9" y="0">o </tspan><tspan class="cls-12" x="181.56" y="0">y</tspan><tspan class="cls-10" x="209.22" y="0">our habit t</tspan><tspan class="cls-13" x="470.39" y="0">r</tspan><tspan x="489.71" y="0">ackers </tspan><tspan class="cls-14" x="659.81" y="0">t</tspan><tspan x="679.31" y="0">o unlock the landscap</tspan><tspan class="cls-15" x="1226.02" y="0">e</tspan><tspan class="cls-16" x="1255.36" y="0">.</tspan><tspan x="261.72" y="72">Keep an e</tspan><tspan class="cls-12" x="506.21" y="72">y</tspan><tspan x="533.87" y="72">e out </tspan><tspan class="cls-17" x="675.23" y="72">f</tspan><tspan x="691.97" y="72">or su</tspan><tspan class="cls-18" x="814.07" y="72">r</tspan><tspan x="833.93" y="72">p</tspan><tspan class="cls-19" x="868.07" y="72">r</tspan><tspan x="887.93" y="72">ises! </tspan></text>
</svg>