<svg id="Layer_1" data-name="Layer 1" xmlns="http://www.w3.org/2000/svg" viewBox="0 0 120 120"><defs><style>.cls-1{fill:#fafaff;}.cls-2{fill:#ead288;}.cls-3{fill:#5eaf10;}.cls-4{fill:#ffe52c;}.cls-5{fill:#db0000;}.cls-6{fill:#ffebb3;}</style></defs><rect class="cls-1" x="0.16" width="119.84" height="120" rx="11.96"/><path class="cls-2" d="M12.37,72h95.26a1.68,1.68,0,0,1,1.68,1.68v0A16.72,16.72,0,0,1,92.59,90.4H27.41A16.72,16.72,0,0,1,10.69,73.68v0A1.68,1.68,0,0,1,12.37,72Z"/><path class="cls-3" d="M110.93,71.68c0,3.66-2.45,6.61-5.47,6.61a5.07,5.07,0,0,1-3.94-2,4.7,4.7,0,0,1-1.3.19,4.86,4.86,0,0,1-2.83-.92,6.56,6.56,0,0,1-3.36.92,6.37,6.37,0,0,1-4.8-2.12,5.37,5.37,0,0,1-7.37.41,5,5,0,0,1-3.81,1.85,4.77,4.77,0,0,1-1.71-.33,5.81,5.81,0,0,1-4.35,2,6.11,6.11,0,0,1-5.7-4.38,6.22,6.22,0,0,1-1.12-1.69,5.65,5.65,0,0,1-5.33,4.26,5.38,5.38,0,0,1-4.39-2.36c-1,2.49-2.87,4.18-5,4.18-1.92,0-3.61-1.32-4.64-3.36a5.62,5.62,0,0,1-7.89.12,6.13,6.13,0,0,1-5.43,3.51A6,6,0,0,1,27.62,76a7.88,7.88,0,0,1-13.72.54,5.81,5.81,0,0,1,.46-11.52,4.91,4.91,0,0,1,2.73.83,7.9,7.9,0,0,1,10,2.54,6.11,6.11,0,0,1,5.36-3.37,5.79,5.79,0,0,1,4.08,1.69,6,6,0,0,1,5.23-3.3,5.65,5.65,0,0,1,4.15,1.82,5.36,5.36,0,0,1,4.5-3.09c2.21,0,4.14,1.77,5.1,4.37a5.37,5.37,0,0,1,4.33-2.27,5.51,5.51,0,0,1,4.75,2.87c.49-2.86,2.32-5,4.5-5a4.57,4.57,0,0,1,3.92,3,9.14,9.14,0,0,1,.45,1.31,5.51,5.51,0,0,1,.64-1,5,5,0,0,1,4-2A4.92,4.92,0,0,1,81.57,65a5.5,5.5,0,0,1,3.76-1.52,5.65,5.65,0,0,1,4.83,2.87A6.58,6.58,0,0,1,97.39,66a4.86,4.86,0,0,1,2.83-.92,4.79,4.79,0,0,1,2.64.79,4.79,4.79,0,0,1,2.6-.79C108.48,65.06,110.93,68,110.93,71.68Z"/><path class="cls-3" d="M75.89,69.2a5.29,5.29,0,0,0-.65.9,6.34,6.34,0,0,0-.45-1.2A5.11,5.11,0,0,1,75.89,69.2Z"/><circle class="cls-3" cx="66.18" cy="72.94" r="3.44"/><path class="cls-4" d="M87.77,60.5,51.07,94.64a2.17,2.17,0,0,1-3.53-.86L34.23,56.34a2.17,2.17,0,0,1,2.19-2.9l50,3.3A2.17,2.17,0,0,1,87.77,60.5Z"/><rect class="cls-5" x="11.94" y="61.35" width="96.39" height="7.46" rx="2.01"/><path class="cls-2" d="M39.54,31.57H80.77a28.69,28.69,0,0,1,28.69,28.69v0a1.09,1.09,0,0,1-1.09,1.09H11.94a1.09,1.09,0,0,1-1.09-1.09v0A28.69,28.69,0,0,1,39.54,31.57Z"/><path class="cls-6" d="M39,31.57h5.74a0,0,0,0,1,0,0V45.63a2.87,2.87,0,0,1-2.87,2.87h0A2.87,2.87,0,0,1,39,45.63V31.57a0,0,0,0,1,0,0Z"/><path class="cls-6" d="M51.83,31.57h5.74a0,0,0,0,1,0,0V45.63A2.87,2.87,0,0,1,54.7,48.5h0a2.87,2.87,0,0,1-2.87-2.87V31.57a0,0,0,0,1,0,0Z"/><path class="cls-6" d="M64.64,31.57h5.74a0,0,0,0,1,0,0V45.63a2.87,2.87,0,0,1-2.87,2.87h0a2.87,2.87,0,0,1-2.87-2.87V31.57a0,0,0,0,1,0,0Z"/><path class="cls-6" d="M77.45,31.57h5.74a0,0,0,0,1,0,0V45.63a2.87,2.87,0,0,1-2.87,2.87h0a2.87,2.87,0,0,1-2.87-2.87V31.57a0,0,0,0,1,0,0Z"/></svg>