<svg id="Layer_1" data-name="Layer 1" xmlns="http://www.w3.org/2000/svg" viewBox="0 0 120 120"><defs><style>.cls-1{fill:#fafaff;}.cls-2{fill:#dedee0;}.cls-3{fill:#ffefae;}.cls-4{fill:#f9df6e;}.cls-5{fill:#288e06;}.cls-6{fill:#c1272d;}.cls-7{fill:#e8951c;}.cls-8{fill:none;stroke:#93278f;stroke-miterlimit:10;stroke-width:3px;}</style></defs><rect class="cls-1" x="0.3" width="119.84" height="120" rx="11.96"/><ellipse class="cls-2" cx="72.81" cy="90.05" rx="37.03" ry="6.97"/><path class="cls-3" d="M105.88,50.76c0,22.4-21,43.12-47,43.12s-47-20.72-47-43.12S105.88,28.36,105.88,50.76Z"/><ellipse class="cls-4" cx="58.87" cy="50.14" rx="47" ry="14.77"/><path class="cls-5" d="M31,33.71c-1.81-.77-3.42-.61-6.65-.28-2.61.27-3.94.41-4.8,1.27A23.09,23.09,0,0,0,17.89,37c-.4,1.31-1.21.68-1.44,1.25A6.17,6.17,0,0,1,14,40.89c-.26.7,0,1.49-.44,2.29s-.69,1.1-1.13,2a7.18,7.18,0,0,0-.71,1.7c-.42,2.07,1.78,4.21,2.69,5.09,1.34,1.3,1.49.88,2.68,2.12,1.75,1.8,1.54,2.81,3,3.67a7,7,0,0,0,3.4.71c2.25.17,2.74-.3,4.66,0a12.37,12.37,0,0,1,2.83.85c2.32.92,3.51,1.39,4.24,2.54s.13,1.9,1.13,4a4.72,4.72,0,0,0,1.41,2c1.32.94,3.33.63,4.67,0,3.07-1.45,2.24-4.47,5.65-6.64,1.56-1,3.76-1.66,4.67-.85.52.46.28,1.12,1,2a4.16,4.16,0,0,0,2.27,1.27c1.11.29,2.4.1,4.94-.28a5.12,5.12,0,0,1,3,0,4,4,0,0,1,1.42,1c1.22,1.2,1,2.07,1.83,2.82a4.16,4.16,0,0,0,3.68.57c2-.56,3.2-2.51,4.1-4,1-1.66,1-2.45,1.83-2.69,1-.3,1.77.83,3.54,1.42,1.23.41,2.24.26,4.24,0a29.07,29.07,0,0,0,6.36-1.7c1.3-.45,2.8-1.1,5.8-2.4,0,0,1.15-.5,3.1-1.56a8.31,8.31,0,0,0,1.56-1,9.37,9.37,0,0,0,1.55-1.69c.89-1.06,2.31-2.76,3.82-2.69,1,0,1.11.78,2.4.85.35,0,.72-1,1.31-1.64a2.13,2.13,0,0,0,.53-2.46,7,7,0,0,0-2-2.83c-1.82-1.55-3-.89-4.24-2.4a6.2,6.2,0,0,1-1.27-2.83c-.16-1.07.12-1.42-.14-2.26s-.83-1.36-2-2.26a20.84,20.84,0,0,0-3.82-2.68c-1.57-.64-3.64-.43-7.77,0a11.69,11.69,0,0,0-4,.84c-1.82.82-1.71,1.48-3.11,1.84-1.84.48-2.22-.61-4.95-.28a6,6,0,0,1-2.26,0,5.39,5.39,0,0,1-1.69-.71,38.73,38.73,0,0,0-4.1-2.4c-1.84-.54-2.07,0-6.36,0-3.09,0-3.87-.27-6.51,0a21.12,21.12,0,0,0-3.25.56c-1.9.52-2.37,1-3.67,1.42-1.88.6-2.16,0-5.94.14-3.36.11-6.5.56-6.5.56a8.81,8.81,0,0,1-4,0A13.51,13.51,0,0,1,31,33.71Z"/><ellipse class="cls-6" cx="24.07" cy="48.16" rx="4.1" ry="5.13" transform="translate(-11.11 7.4) rotate(-14.24)"/><ellipse class="cls-6" cx="82.7" cy="43.09" rx="5.13" ry="4.1" transform="translate(-1.72 82.7) rotate(-52.66)"/><ellipse class="cls-6" cx="57.64" cy="60.44" rx="5.13" ry="4.1" transform="translate(-20.01 91.19) rotate(-67.97)"/><ellipse class="cls-6" cx="45.46" cy="36.98" rx="4.1" ry="5.13" transform="translate(-7.7 12.32) rotate(-14.24)"/><ellipse class="cls-6" cx="100.37" cy="50.14" rx="5.13" ry="4.1" transform="translate(16.23 124.37) rotate(-67.97)"/><path class="cls-7" d="M24.62,38.86c-.51-.06.11-2.32,1.15-2.82,3.39-1.63,13.44,12,13.44,12h0s-.62,2.2-1.13,1.94C34.81,48.27,32.23,39.82,24.62,38.86Z"/><path class="cls-7" d="M48.71,49.45c0-.52,2.32-.13,2.93.85,2,3.2-10.5,14.62-10.5,14.62h0s-2.25-.39-2-.92C40.42,60.57,48.56,57.12,48.71,49.45Z"/><path class="cls-7" d="M85.8,37c-.5-.07.13-2.32,1.17-2.82,3.39-1.62,13.4,12,13.4,12h0s-.63,2.21-1.14,1.94C96,46.44,93.42,38,85.8,37Z"/><path class="cls-7" d="M77.23,50.45c0-.51,2.32-.13,2.92.86,2,3.19-10.49,14.62-10.49,14.62h0s-2.26-.39-2-.92C68.94,61.58,77.08,58.13,77.23,50.45Z"/><path class="cls-7" d="M62,40.41c-.46-.23.86-2.16,2-2.29,3.74-.44,8.81,15.69,8.81,15.69h0s-1.3,1.88-1.7,1.47C68.57,52.63,68.88,43.79,62,40.41Z"/><path class="cls-8" d="M26.94,54.5c3.49,2.76,7.64,3.54,10.78,2C41.37,54.68,43.07,50,41.88,45"/><path class="cls-8" d="M66.68,34.41c-4.22-1.4-8.39-.7-10.81,1.84-2.8,3-2.81,7.88.05,12.25"/><path class="cls-8" d="M95.61,48.86c-4.23-1.39-8.39-.69-10.81,1.85C82,53.65,82,58.59,84.85,63"/></svg>