<svg id="Layer_1" data-name="Layer 1" xmlns="http://www.w3.org/2000/svg" viewBox="0 0 120 120"><defs><style>.cls-1{fill:#2e3192;}.cls-2{fill:#4d4d4d;}.cls-3,.cls-7{fill:#fff;}.cls-4,.cls-5{fill:#666;}.cls-5{stroke:#666;}.cls-5,.cls-6,.cls-7,.cls-8{stroke-miterlimit:10;}.cls-6,.cls-8{stroke:#000;}.cls-7{stroke:#fff;}.cls-8{fill:none;}</style></defs><rect class="cls-1" width="120" height="120" rx="11.96"/><rect class="cls-2" x="42.48" y="70.81" width="5.08" height="25.13" rx="0.91"/><rect class="cls-2" x="51.93" y="70.81" width="5.08" height="25.13" rx="0.91"/><rect class="cls-2" x="68.82" y="70.81" width="5.08" height="25.13" rx="0.91"/><rect class="cls-2" x="77.9" y="70.81" width="5.08" height="25.13" rx="0.9"/><path class="cls-3" d="M95.87,56.83a7.21,7.21,0,0,1-2.78,10.66,6.76,6.76,0,0,1,.25,1.87,6.88,6.88,0,0,1-6.71,7,6.89,6.89,0,0,1-6.72,7,6.23,6.23,0,0,1-3-.78,6.56,6.56,0,0,1-12,.6s0-.07-.06-.1a.75.75,0,0,1-.07.12,6.62,6.62,0,0,1-5.84,3.58,6.73,6.73,0,0,1-6.19-4.31.56.56,0,0,1,0-.12.37.37,0,0,1-.12.07,6.27,6.27,0,0,1-3.33.94A6.72,6.72,0,0,1,43,78.93l-.22-.13a6.29,6.29,0,0,1-3.46,1,6.88,6.88,0,0,1-6.72-7,5.92,5.92,0,0,1,.08-1c-.21,0-.4,0-.61,0a6.88,6.88,0,0,1-6.71-7A7.06,7.06,0,0,1,29,58.49c0-.26,0-.52,0-.78,0-9,5.83-17,14.66-21.58,0-.19,0-.37,0-.56a6.88,6.88,0,0,1,6.71-7,6.55,6.55,0,0,1,5.41,2.89,6.49,6.49,0,0,1,10.2-.77,6.5,6.5,0,0,1,4.79-2.12A6.74,6.74,0,0,1,77,32.92a6.33,6.33,0,0,1,3-.73,6.77,6.77,0,0,1,6.45,5.08h.27a6.88,6.88,0,0,1,6.71,7,1.48,1.48,0,0,1,0,.21,7,7,0,0,1,5.08,6.82A7.13,7.13,0,0,1,95.87,56.83Z"/><path class="cls-4" d="M45.85,42.7c.86,14.58-5.37,17.08-11.28,17.07-6.64,0-12.33-4.07-10.89-17.07.43-3.83,1.27-7.35,3.31-9.85a2.73,2.73,0,0,0,4.59-.06,3.25,3.25,0,0,0,6.36.07,2.74,2.74,0,0,0,4.9.37A17.38,17.38,0,0,1,45.85,42.7Z"/><path class="cls-5" d="M26.25,33.94c2.41-1.72-3.72,0-6.93,2.12s-5.31,4.58-4.7,5.52,5,1,6.93-2.12C24.08,35.4,25.06,34.78,26.25,33.94Z"/><path class="cls-5" d="M43.28,34.33c-2.28-1.9,3.84.11,6.89,2.45s4.89,5,4.13,6-5.27,1-6.89-2.45C45.33,36,44.4,35.26,43.28,34.33Z"/><ellipse class="cls-6" cx="30.72" cy="40.52" rx="1.83" ry="2.82"/><circle class="cls-7" cx="31.06" cy="39" r="0.53"/><ellipse class="cls-6" cx="37.55" cy="40.52" rx="1.83" ry="2.82"/><circle class="cls-7" cx="37.9" cy="39" r="0.53"/><line class="cls-8" x1="34.26" y1="53.23" x2="34.26" y2="59.77"/><line class="cls-8" x1="31.23" y1="50.82" x2="34.26" y2="53.84"/><line class="cls-8" x1="37.23" y1="50.74" x2="34.08" y2="53.88"/><path class="cls-3" d="M44.47,31.89a3.37,3.37,0,0,1-.4,1.58A3.07,3.07,0,0,1,38.42,33a3.71,3.71,0,0,1-7.34-.08A3,3,0,0,1,25.8,33a3.23,3.23,0,0,1,2.62-4.9h0a3.5,3.5,0,0,1,3.43-3.34,3.43,3.43,0,0,1,3.08,2,3.53,3.53,0,0,1,3.29-2.69,4,4,0,0,1,3.41,4.61A3.2,3.2,0,0,1,44.47,31.89Z"/><path d="M42.48,92.83h5.08a0,0,0,0,1,0,0V95a.91.91,0,0,1-.91.91H43.39a.91.91,0,0,1-.91-.91V92.83A0,0,0,0,1,42.48,92.83Z"/><path d="M51.93,92.83H57a0,0,0,0,1,0,0V95a.91.91,0,0,1-.91.91H52.84a.91.91,0,0,1-.91-.91V92.83A0,0,0,0,1,51.93,92.83Z"/><path d="M68.82,92.83H73.9a0,0,0,0,1,0,0V95a.91.91,0,0,1-.91.91H69.73a.91.91,0,0,1-.91-.91V92.83A0,0,0,0,1,68.82,92.83Z"/><path d="M77.9,92.83H83a0,0,0,0,1,0,0V95a.91.91,0,0,1-.91.91H78.81A.91.91,0,0,1,77.9,95V92.83A0,0,0,0,1,77.9,92.83Z"/></svg>