<svg id="Layer_1" data-name="Layer 1" xmlns="http://www.w3.org/2000/svg" viewBox="0 0 120 120"><defs><style>.cls-1{fill:#ce1102;}.cls-2{fill:#fff;}</style></defs><rect class="cls-1" width="120" height="120" rx="11.96"/><path class="cls-2" d="M85.39,58.29a9.82,9.82,0,0,1,2.33,6.44c0,5.13-3.75,9.3-8.39,9.3a7.53,7.53,0,0,1-3-.61,8.17,8.17,0,0,1-6.9,4,8.07,8.07,0,0,1-6.17-3,7.87,7.87,0,0,1-12.43-.11,8.07,8.07,0,0,1-6.26,3.1,8.26,8.26,0,0,1-7.21-4.55,7.7,7.7,0,0,1-4,1.14C28.72,74,25,69.86,25,64.73a10,10,0,0,1,1.36-5.09A9.79,9.79,0,0,1,23.78,53a9.91,9.91,0,0,1,2.06-6.11A9.69,9.69,0,0,1,23.93,41c0-5,3.69-9.15,8.24-9.15a7.63,7.63,0,0,1,4.26,1.31,8.63,8.63,0,0,1,8.16-7.09,8,8,0,0,1,6.26,3.1,7.89,7.89,0,0,1,13,.61,7.92,7.92,0,0,1,5.64-2.41,8.23,8.23,0,0,1,7.07,4.3,7.2,7.2,0,0,1,1.32-.12c4.63,0,8.39,4.17,8.39,9.3a10.07,10.07,0,0,1-1,4.39,10.06,10.06,0,0,1,.15,13Z"/><circle class="cls-2" cx="90.89" cy="76.21" r="3.17"/><path d="M55,46.33a4.2,4.2,0,0,1-2-4.73,3.82,3.82,0,0,1,4.11-2.45,5.07,5.07,0,0,1,3.67,3.41c.25.74.49,2.12-.75,1.83a7.86,7.86,0,0,1-2.41-1.46,6.85,6.85,0,0,0-4.8-1.61,5.23,5.23,0,0,0-4,2.79C47.41,47.07,49,51.92,53,51c1.92-.43,3.68-1.85,5.34-2.86.89-.54,1.77-1.12,2.68-1.62a2.51,2.51,0,0,1,3,.21,10.07,10.07,0,0,1,3.77,5.06c.71,2.45-1.38,3.31-3.38,3.79a17.66,17.66,0,0,1-6.83.27c-1.69-.27-3.83-1.43-5.4-.26a7.47,7.47,0,0,0-2.53,4.76A4.05,4.05,0,0,0,52,64.31c6.46,3.23,15.12-4.38,12.41-11.17-1.29-3.22-4.73-5-8.06-5.1a13,13,0,0,0-5.73,1.21c-1.76.77-3.36,1.59-5.17.42a4.06,4.06,0,0,1-1.59-4.8,7.2,7.2,0,0,1,3.89-4.07A16,16,0,0,1,58.5,40a15.24,15.24,0,0,1,4.64,2.07A11.82,11.82,0,0,1,65,43.65c.61.63,1,1.38,1.54,2,.17.21,0,.35.18.15s-.33.05-.35.06c-.47.16-.92.45-1.4.63a13.42,13.42,0,0,1-3.12.7A27.2,27.2,0,0,1,55.79,47c-3.59-.4-7.24.16-8.67,3.93-.48,1.28-.94,3.33.39,4.27s2.77.19,3.9-.45c3.05-1.75,8-3.6,10.63-.06,1.29,1.73.14,3.65-.69,5.3A11.22,11.22,0,0,0,60,65.4a10.61,10.61,0,0,0,1.5,5.11,1.12,1.12,0,0,0,1.94-1.13,8.12,8.12,0,0,1-1-6c.49-2,1.88-3.59,2.32-5.58.79-3.58-2.15-6.51-5.5-7.14a10.85,10.85,0,0,0-5.85.7,19,19,0,0,0-2.58,1.22,12.66,12.66,0,0,1-1.14.63c-.4.17-.64.37-.77,0-.21-.7.56-2,1-2.56a3.87,3.87,0,0,1,2.58-1.38c2-.29,4.18.28,6.23.36a19.25,19.25,0,0,0,6.09-.61c1.33-.39,3.86-1.09,4.15-2.7.26-1.41-1.34-3.12-2.23-4.06a14.65,14.65,0,0,0-4.06-3c-6-3-16.19-3.18-20.14,3.26a6.54,6.54,0,0,0,1.8,9.14,5.89,5.89,0,0,0,5,.65c2-.64,3.66-1.74,5.79-1.93C59,50,63.55,52.56,62.47,57c-.9,3.69-5.36,6.9-9.16,5.4a1.93,1.93,0,0,1-1.45-2.1c.12-.77,1-2.84,1.93-3a6.6,6.6,0,0,1,1.8.45c.51.12,1,.21,1.56.29a19.44,19.44,0,0,0,3.23.25c3.29,0,9-.65,9.71-4.73.59-3.54-2.9-8-6-9.34-1.89-.83-3.49-.12-5.14.88l-2.78,1.69A19.78,19.78,0,0,1,53,48.69c-2.63,1-2.94-2.85-1.57-4.26,1.66-1.71,3.68-.57,5.27.55,1.41,1,3.26,2.34,5.05,1.42,1.47-.75,1.74-2.47,1.39-4-.75-3.25-4-6-7.38-5.53a6,6,0,0,0-4.93,7.29,7,7,0,0,0,3.08,4.07c1.22.79,2.35-1.15,1.14-1.94Z"/><circle class="cls-2" cx="96.99" cy="83.48" r="3.17"/><circle class="cls-2" cx="103.1" cy="90.76" r="3.17"/></svg>