<svg id="Layer_1" data-name="Layer 1" xmlns="http://www.w3.org/2000/svg" viewBox="0 0 2000 2000"><defs><style>.cls-1{fill:#666;}.cls-2{fill:none;stroke-width:3px;}.cls-2,.cls-3{stroke:#000;}.cls-2,.cls-3,.cls-4{stroke-miterlimit:10;}.cls-4{fill:#fff;stroke:#fff;}</style></defs><path class="cls-1" d="M1658.25,944.13a126.89,126.89,0,0,1,23.39,74.11c0,51.9-30.15,96.52-72.92,115.67a124.79,124.79,0,0,1,4.39,33.32c0,69.32-53.55,125.43-119.52,125.43,0,48.48-26.32,90.55-64.8,111.36a115,115,0,0,1-90.53,8.19,108.41,108.41,0,0,1-18.47-8.09,123.16,123.16,0,0,1-52.71,59.78,114.81,114.81,0,0,1-90.53,9.76c-30.11-9.34-55.27-30.8-70.22-59a8,8,0,0,1-.91-1.72,8,8,0,0,1-1.28,2.1c-20.29,38.11-59.21,63.77-104,63.77a114.2,114.2,0,0,1-33.78-5.08c-34.54-10.65-62.61-37.22-76.42-71.71a7.09,7.09,0,0,1-.73-2.11,6.86,6.86,0,0,1-2.19,1.35,111.81,111.81,0,0,1-59.21,16.66,114.71,114.71,0,0,1-29.71-3.89c-37.67-10.08-68.06-38.89-81.77-76.35-1.28-.77-2.75-1.54-4-2.3q-2.34,1.52-4.74,2.93a112.51,112.51,0,0,1-56.85,15.26c-66.16,0-119.71-56.11-119.71-125.24a103,103,0,0,1,1.47-18.58,100,100,0,0,1-10.79.58c-66,0-119.52-56.11-119.52-125.24,0-48.32,26.32-90.4,64.65-111,28.13,15,60.43,21.74,94.29,22.44,1.86,0,3.73.06,5.6.06,105.27.08,216.24-44.45,200.86-304-3.09-52.27-14.3-100.71-35.77-140.59,16.16,14.24,32.87,33.75,63.59,98.9C824.26,712,904.52,712.1,918.06,694.5s-19.42-65.67-73.62-107.38C814.27,563.9,767.1,542.51,738.22,534c-2.13-.63-4.17-1.19-6.09-1.68a127.22,127.22,0,0,1,10.55-27.17c20.36-38.63,59.63-64.81,104.69-64.81,39.66,0,74.75,20.11,96.31,51.32,21.38-31.21,56.47-51.32,96.13-51.32,33.44,0,63.78,14.36,85.53,37.73,21.56-23.37,51.72-37.73,85.16-37.73,50.08,0,93,32.37,110.75,78.13a112.25,112.25,0,0,1,52.82-13c54.46,0,100.51,38.3,114.77,90.39a38.16,38.16,0,0,1,4.75-.19c66,0,119.52,56.11,119.52,125.24a27.29,27.29,0,0,1-.18,3.83c51.9,13.6,90.46,62.81,90.46,121.41C1703.39,885.91,1685.84,921.15,1658.25,944.13Z"/><path class="cls-2" d="M798.12,1414v225.59a.85.85,0,0,1-.27.63.84.84,0,0,1-.29.2.81.81,0,0,1-.35.07H708.49a.81.81,0,0,1-.35-.07,1,1,0,0,1-.48-.48,1,1,0,0,1-.07-.35V1338.3q2.4-1.41,4.74-2.93c1.27.76,2.74,1.53,4,2.3C730.06,1375.13,760.45,1403.94,798.12,1414Z"/><path class="cls-2" d="M966.38,1473.72v165.89a.9.9,0,0,1-.91.9H876.75a.9.9,0,0,1-.91-.9v-232.3a111.86,111.86,0,0,0,11.2-6.06,6.86,6.86,0,0,0,2.19-1.35A7.09,7.09,0,0,0,890,1402C903.77,1436.5,931.84,1463.07,966.38,1473.72Z"/><path class="cls-2" d="M1267.09,1463.9v175.71a.85.85,0,0,1-.27.63.88.88,0,0,1-.64.27h-88.71a.81.81,0,0,1-.35-.07.84.84,0,0,1-.29-.2.85.85,0,0,1-.27-.63V1473.66a114.81,114.81,0,0,0,90.53-9.76Z"/><path class="cls-2" d="M1428.8,1404v235.59a1,1,0,0,1-.07.35.84.84,0,0,1-.2.29.91.91,0,0,1-.64.26h-88.71a.91.91,0,0,1-.64-.26,1,1,0,0,1-.2-.29,1,1,0,0,1-.07-.35v-227.4a115,115,0,0,0,90.53-8.19Z"/><path class="cls-2" d="M707.58,1585.09h90.53a0,0,0,0,1,0,0v54.52a.91.91,0,0,1-.91.91H708.49a.91.91,0,0,1-.91-.91v-54.52A0,0,0,0,1,707.58,1585.09Z"/><path class="cls-2" d="M875.84,1585.09h90.53a0,0,0,0,1,0,0v54.52a.91.91,0,0,1-.91.91H876.75a.91.91,0,0,1-.91-.91v-54.52A0,0,0,0,1,875.84,1585.09Z"/><path class="cls-2" d="M1176.56,1585.09h90.53a0,0,0,0,1,0,0v54.52a.91.91,0,0,1-.91.91h-88.72a.91.91,0,0,1-.91-.91v-54.52A0,0,0,0,1,1176.56,1585.09Z"/><path class="cls-2" d="M1338.27,1585.09h90.53a0,0,0,0,1,0,0v54.52a.91.91,0,0,1-.91.91h-88.72a.91.91,0,0,1-.91-.91v-54.52A0,0,0,0,1,1338.27,1585.09Z"/><path class="cls-1" d="M798.11,1414v225.59a.85.85,0,0,1-.27.63.84.84,0,0,1-.29.2.81.81,0,0,1-.35.07H708.48a.81.81,0,0,1-.35-.07,1,1,0,0,1-.48-.48,1,1,0,0,1-.07-.35V1338.3q2.4-1.41,4.74-2.93c1.27.76,2.74,1.53,4,2.3C730.05,1375.13,760.44,1403.94,798.11,1414Z"/><path class="cls-1" d="M966.38,1474.78v165.89a.9.9,0,0,1-.91.9H876.75a.9.9,0,0,1-.91-.9v-232.3a111.86,111.86,0,0,0,11.2-6.06,6.86,6.86,0,0,0,2.19-1.35,7.09,7.09,0,0,0,.73,2.11C903.77,1437.56,931.84,1464.13,966.38,1474.78Z"/><path class="cls-1" d="M1267.09,1465.22v175.71a.85.85,0,0,1-.27.63.88.88,0,0,1-.64.27h-88.71a.81.81,0,0,1-.35-.07.84.84,0,0,1-.29-.2.85.85,0,0,1-.27-.63V1475a114.81,114.81,0,0,0,90.53-9.76Z"/><path class="cls-1" d="M1428.8,1404v235.59a1,1,0,0,1-.07.35.84.84,0,0,1-.2.29.91.91,0,0,1-.64.26h-88.71a.91.91,0,0,1-.64-.26,1,1,0,0,1-.2-.29,1,1,0,0,1-.07-.35v-227.4a115,115,0,0,0,90.53-8.19Z"/><path class="cls-2" d="M798.11,1414v225.59a.85.85,0,0,1-.27.63.84.84,0,0,1-.29.2.81.81,0,0,1-.35.07H708.48a.81.81,0,0,1-.35-.07,1,1,0,0,1-.48-.48,1,1,0,0,1-.07-.35V1338.3q2.4-1.41,4.74-2.93c1.27.76,2.74,1.53,4,2.3C730.05,1375.13,760.44,1403.94,798.11,1414Z"/><path class="cls-2" d="M966.37,1473.72v165.89a.9.9,0,0,1-.91.9H876.74a.9.9,0,0,1-.91-.9v-232.3a111.86,111.86,0,0,0,11.2-6.06,6.86,6.86,0,0,0,2.19-1.35A7.09,7.09,0,0,0,890,1402C903.76,1436.5,931.83,1463.07,966.37,1473.72Z"/><path class="cls-2" d="M1267.08,1463.9v175.71a.85.85,0,0,1-.27.63.88.88,0,0,1-.64.27h-88.71a.81.81,0,0,1-.35-.07.84.84,0,0,1-.29-.2.85.85,0,0,1-.27-.63V1473.66a114.81,114.81,0,0,0,90.53-9.76Z"/><path class="cls-2" d="M1428.79,1404v235.59a1,1,0,0,1-.07.35.84.84,0,0,1-.2.29.91.91,0,0,1-.64.26h-88.71a.91.91,0,0,1-.64-.26,1,1,0,0,1-.2-.29,1,1,0,0,1-.07-.35v-227.4a115,115,0,0,0,90.53-8.19Z"/><path class="cls-2" d="M1658.25,944.13a126.89,126.89,0,0,1,23.39,74.11c0,51.9-30.15,96.52-72.92,115.67a124.79,124.79,0,0,1,4.39,33.32c0,69.32-53.55,125.43-119.52,125.43,0,48.48-26.32,90.55-64.8,111.36a115,115,0,0,1-90.53,8.19,108.41,108.41,0,0,1-18.47-8.09,123.16,123.16,0,0,1-52.71,59.78,114.81,114.81,0,0,1-90.53,9.76c-30.11-9.34-55.27-30.8-70.22-59a8,8,0,0,1-.91-1.72,8,8,0,0,1-1.28,2.1c-20.29,38.11-59.21,63.77-104,63.77a114.2,114.2,0,0,1-33.78-5.08c-34.54-10.65-62.61-37.22-76.42-71.71a7.09,7.09,0,0,1-.73-2.11,6.86,6.86,0,0,1-2.19,1.35,111.81,111.81,0,0,1-59.21,16.66,114.71,114.71,0,0,1-29.71-3.89c-37.67-10.08-68.06-38.89-81.77-76.35-1.28-.77-2.75-1.54-4-2.3q-2.34,1.52-4.74,2.93a112.51,112.51,0,0,1-56.85,15.26c-66.16,0-119.71-56.11-119.71-125.24a103,103,0,0,1,1.47-18.58,100,100,0,0,1-10.79.58c-66,0-119.52-56.11-119.52-125.24,0-48.32,26.32-90.4,64.65-111,28.13,15,60.43,21.74,94.29,22.44,1.86,0,3.73.06,5.6.06,105.27.08,216.24-44.45,200.86-304-3.09-52.27-14.3-100.71-35.77-140.59,16.16,14.24,32.87,33.75,63.59,98.9C824.26,712,904.52,712.1,918.06,694.5s-19.42-65.67-73.62-107.38C814.27,563.9,767.1,542.51,738.22,534c-2.13-.63-4.17-1.19-6.09-1.68a127.22,127.22,0,0,1,10.55-27.17c20.36-38.63,59.63-64.81,104.69-64.81,39.66,0,74.75,20.11,96.31,51.32,21.38-31.21,56.47-51.32,96.13-51.32,33.44,0,63.78,14.36,85.53,37.73,21.56-23.37,51.72-37.73,85.16-37.73,50.08,0,93,32.37,110.75,78.13a112.25,112.25,0,0,1,52.82-13c54.46,0,100.51,38.3,114.77,90.39a38.16,38.16,0,0,1,4.75-.19c66,0,119.52,56.11,119.52,125.24a27.29,27.29,0,0,1-.18,3.83c51.9,13.6,90.46,62.81,90.46,121.41C1703.39,885.91,1685.84,921.15,1658.25,944.13Z"/><path class="cls-2" d="M647.19,626.38a71,71,0,0,1,5.23,27.33c0,27.78-14.57,50.29-32.56,50.29-12.87,0-24-11.53-29.27-28.27A516.22,516.22,0,0,1,647.19,626.38Z"/><path class="cls-2" d="M729.67,548.07q1.1,1.92,2.14,3.87c-1-.87-2-1.73-3-2.57,0-.13,0-.25,0-.37.07-.63.16-1.25.25-1.87C729.33,547.44,729.5,547.75,729.67,548.07Z"/><ellipse class="cls-2" cx="498.18" cy="653.71" rx="32.56" ry="50.29"/><path class="cls-2" d="M647.19,626.38a71,71,0,0,1,5.23,27.33c0,27.78-14.57,50.29-32.56,50.29-12.87,0-24-11.53-29.27-28.27a73.42,73.42,0,0,1-3.28-22c0-27.77,14.57-50.29,32.55-50.29C631.32,603.42,641.39,612.56,647.19,626.38Z"/><path class="cls-2" d="M731.81,551.94c-1-.87-2-1.73-3-2.57,0-.13,0-.25,0-.37.07-.63.16-1.25.25-1.87.19.31.36.62.53.94Q730.77,550,731.81,551.94Z"/><path class="cls-2" d="M844.44,587.12C814.27,563.9,767.1,542.51,738.22,534c-2.13-.63-4.17-1.19-6.09-1.68-1.29-.33-2.54-.62-3.72-.88-.35.46-.7.91-1.06,1.35s-.51.62-.78.93l-.2.24a54.15,54.15,0,0,1-41.11,19.14,52.87,52.87,0,0,1-26-6.82A48.31,48.31,0,0,1,635.69,532c-.23-.24-.45-.48-.66-.73a46.28,46.28,0,0,1-8.33-13.94c-6.73,25.89-29.49,45.1-56.39,45.1-27.42,0-50.53-19.71-56.91-46.27a46.11,46.11,0,0,1-6.46,8.28,48.28,48.28,0,0,1-32.25,14.37h0a52.33,52.33,0,0,1-17.81,3.13,53.48,53.48,0,0,1-39.35-17.45c-24.44,3.25-84.71,25-122.37,49.79-57.14,37.57-94.56,81.57-83.57,98.29s88.37,18.57,123.37-37.75c44.29-71.26,61.93-82.95,82.68-97.65-.33.53-.66,1.06-1,1.59-25.61,42.2-37.39,96-43.78,153.8C355,853.79,398.69,937.85,466.83,974c28.13,15,60.43,21.74,94.29,22.44,1.86,0,3.73.06,5.6.06,105.27.08,216.24-44.45,200.86-304-3.09-52.27-14.3-100.71-35.77-140.59-1-.87-2-1.73-3-2.57,0-.13,0-.25,0-.37.07-.63.16-1.25.25-1.87.19.31.36.62.53.94q1.1,1.92,2.14,3.87c16.16,14.24,32.87,33.75,63.59,98.9C824.26,712,904.52,712.1,918.06,694.5S898.64,628.83,844.44,587.12ZM498.18,704c-18,0-32.56-22.51-32.56-50.29s14.58-50.29,32.56-50.29,32.56,22.52,32.56,50.29S516.16,704,498.18,704Zm121.68,0c-12.87,0-24-11.53-29.27-28.27a73.42,73.42,0,0,1-3.28-22c0-27.77,14.57-50.29,32.55-50.29,11.46,0,21.53,9.14,27.33,23a71,71,0,0,1,5.23,27.33C652.42,681.49,637.85,704,619.86,704Z"/><path class="cls-2" d="M731.81,551.94c-1-.87-2-1.73-3-2.57,0-.13,0-.25,0-.37.07-.63.16-1.25.25-1.87.19.31.36.62.53.94Q730.77,550,731.81,551.94Z"/><ellipse class="cls-3" cx="498.18" cy="653.71" rx="32.56" ry="50.29"/><circle class="cls-4" cx="504.3" cy="626.72" r="9.39"/><path class="cls-3" d="M652.42,653.71c0,27.78-14.57,50.29-32.56,50.29-12.87,0-24-11.53-29.27-28.27a73.42,73.42,0,0,1-3.28-22c0-27.77,14.57-50.29,32.55-50.29,11.46,0,21.53,9.14,27.33,23A71,71,0,0,1,652.42,653.71Z"/><circle class="cls-4" cx="625.98" cy="626.72" r="9.39"/><line class="cls-2" x1="561.12" y1="890.83" x2="561.12" y2="996.54"/><line class="cls-2" x1="507.34" y1="837.04" x2="561.12" y2="890.83"/><line class="cls-2" x1="617.1" y1="835.95" x2="561.12" y2="891.92"/><path class="cls-2" d="M740.53,495.49a58.9,58.9,0,0,1-4.7,23.13,53.45,53.45,0,0,1-2.4,4.93,56.14,56.14,0,0,1-5,7.84c-.35.46-.7.91-1.06,1.35s-.51.62-.78.93l-.2.24a54.15,54.15,0,0,1-41.11,19.14,52.87,52.87,0,0,1-26-6.82A48.31,48.31,0,0,1,635.69,532c-.23-.24-.45-.48-.66-.73a46.28,46.28,0,0,1-8.33-13.94c-6.73,25.89-29.49,45.1-56.39,45.1-27.42,0-50.53-19.71-56.91-46.27a46.11,46.11,0,0,1-6.46,8.28,48.28,48.28,0,0,1-32.25,14.37h0a52.33,52.33,0,0,1-17.81,3.13,53.48,53.48,0,0,1-39.35-17.45l-1-1.06c-.17-.18-.33-.37-.48-.56a56.58,56.58,0,0,1-5.6-7.75,48.25,48.25,0,0,1-2.33-4.23,57.66,57.66,0,0,1-6-25.89c0-31.57,24.48-57.15,54.68-57.15h.2c2-33.22,28.42-59.42,60.6-59.42,23.89,0,44.62,14.44,54.48,35.48,8.1-27.85,31-47.86,58.05-47.86,33.95,0,61.39,31.36,61.39,70.15a79.52,79.52,0,0,1-1,12c26.22,2.7,47.08,24.36,49.67,51.64C740.44,491.65,740.53,493.56,740.53,495.49Z"/><path class="cls-2" d="M707.58,1585.09h90.53a0,0,0,0,1,0,0v54.52a.91.91,0,0,1-.91.91H708.49a.91.91,0,0,1-.91-.91v-54.52A0,0,0,0,1,707.58,1585.09Z"/><path class="cls-2" d="M875.84,1585.09h90.53a0,0,0,0,1,0,0v54.52a.91.91,0,0,1-.91.91H876.75a.91.91,0,0,1-.91-.91v-54.52A0,0,0,0,1,875.84,1585.09Z"/><path class="cls-2" d="M1176.55,1585.09h90.53a0,0,0,0,1,0,0v54.52a.91.91,0,0,1-.91.91h-88.72a.91.91,0,0,1-.91-.91v-54.52A0,0,0,0,1,1176.55,1585.09Z"/><path class="cls-2" d="M1338.26,1585.09h90.53a0,0,0,0,1,0,0v54.52a.91.91,0,0,1-.91.91h-88.72a.91.91,0,0,1-.91-.91v-54.52A0,0,0,0,1,1338.26,1585.09Z"/></svg>