<svg id="Layer_1" data-name="Layer 1" xmlns="http://www.w3.org/2000/svg" viewBox="0 0 2000 2000"><defs><style>.cls-1{fill:#666;}.cls-2{fill:none;}.cls-2,.cls-3,.cls-4{stroke:#000;}.cls-2,.cls-3,.cls-4,.cls-5{stroke-miterlimit:10;}.cls-2,.cls-3{stroke-width:3px;}.cls-3,.cls-5{fill:#fff;}.cls-5{stroke:#fff;}</style></defs><path class="cls-1" d="M1680.24,945.86a126.89,126.89,0,0,1,23.39,74.11c0,51.9-30.15,96.52-72.92,115.67a124.79,124.79,0,0,1,4.39,33.32c0,69.32-53.55,125.43-119.52,125.43,0,48.48-26.32,90.55-64.8,111.36a115,115,0,0,1-90.53,8.19,108.41,108.41,0,0,1-18.47-8.09,123.16,123.16,0,0,1-52.71,59.78,114.81,114.81,0,0,1-90.53,9.76c-30.11-9.34-55.27-30.8-70.22-59a8,8,0,0,1-.91-1.72,8,8,0,0,1-1.28,2.1c-20.29,38.11-59.21,63.77-104,63.77a114.2,114.2,0,0,1-33.78-5.08c-34.54-10.65-62.61-37.22-76.42-71.71a7.09,7.09,0,0,1-.73-2.11A6.86,6.86,0,0,1,909,1403a111.81,111.81,0,0,1-59.21,16.66,114.71,114.71,0,0,1-29.71-3.89c-37.67-10.08-68.06-38.89-81.77-76.35-1.28-.77-2.75-1.54-4-2.3q-2.34,1.51-4.74,2.93a112.51,112.51,0,0,1-56.85,15.26c-66.16,0-119.71-56.11-119.71-125.24a103,103,0,0,1,1.47-18.58,100,100,0,0,1-10.79.58c-66,0-119.52-56.11-119.52-125.24,0-48.32,26.32-90.4,64.65-111,28.13,15,60.43,21.74,94.29,22.44,1.86,0,3.73.06,5.6.06,105.27.08,225.49-45.16,200.86-304-2.06-21.69,129.45,7,150.48,2,21.59-5.17,695.05,28.83,694.87,30.17,51.9,13.6,90.46,62.81,90.46,121.41C1725.38,887.64,1707.83,922.88,1680.24,945.86Z"/><path class="cls-2" d="M823.51,1416.8v225.59a.85.85,0,0,1-.27.63.84.84,0,0,1-.29.2.81.81,0,0,1-.35.07H733.88a.81.81,0,0,1-.35-.07,1,1,0,0,1-.48-.48,1,1,0,0,1-.07-.35V1341.08q2.4-1.41,4.74-2.93c1.27.76,2.74,1.53,4,2.3C755.45,1377.91,785.84,1406.72,823.51,1416.8Z"/><path class="cls-2" d="M991.77,1476.5v165.89a.9.9,0,0,1-.91.9H902.14a.9.9,0,0,1-.91-.9v-232.3a111.86,111.86,0,0,0,11.2-6.06,6.86,6.86,0,0,0,2.19-1.35,7.09,7.09,0,0,0,.73,2.11C929.16,1439.28,957.23,1465.85,991.77,1476.5Z"/><path class="cls-2" d="M1292.48,1466.68v175.71a.85.85,0,0,1-.27.63.88.88,0,0,1-.64.27h-88.71a.81.81,0,0,1-.35-.07.84.84,0,0,1-.29-.2.85.85,0,0,1-.27-.63v-166a114.81,114.81,0,0,0,90.53-9.76Z"/><path class="cls-2" d="M1454.19,1406.8v235.59a1,1,0,0,1-.07.35.84.84,0,0,1-.2.29.91.91,0,0,1-.64.26h-88.71a.91.91,0,0,1-.64-.26,1,1,0,0,1-.2-.29,1,1,0,0,1-.07-.35V1415a115,115,0,0,0,90.53-8.19Z"/><path class="cls-2" d="M733,1587.87h90.53a0,0,0,0,1,0,0v54.52a.91.91,0,0,1-.91.91H733.88a.91.91,0,0,1-.91-.91v-54.52A0,0,0,0,1,733,1587.87Z"/><path class="cls-2" d="M901.23,1587.87h90.53a0,0,0,0,1,0,0v54.52a.91.91,0,0,1-.91.91H902.14a.91.91,0,0,1-.91-.91v-54.52A0,0,0,0,1,901.23,1587.87Z"/><path class="cls-2" d="M1201.95,1587.87h90.53a0,0,0,0,1,0,0v54.52a.91.91,0,0,1-.91.91h-88.72a.91.91,0,0,1-.91-.91v-54.52A0,0,0,0,1,1201.95,1587.87Z"/><path class="cls-2" d="M1363.66,1587.87h90.53a0,0,0,0,1,0,0v54.52a.91.91,0,0,1-.91.91h-88.72a.91.91,0,0,1-.91-.91v-54.52A0,0,0,0,1,1363.66,1587.87Z"/><path class="cls-1" d="M823.51,1416.8v225.59a.85.85,0,0,1-.27.63.84.84,0,0,1-.29.2.81.81,0,0,1-.35.07H733.88a.81.81,0,0,1-.35-.07,1,1,0,0,1-.48-.48,1,1,0,0,1-.07-.35V1341.08q2.4-1.41,4.74-2.93c1.27.76,2.74,1.53,4,2.3C755.45,1377.91,785.84,1406.72,823.51,1416.8Z"/><path class="cls-1" d="M991.77,1477.56v165.89a.9.9,0,0,1-.91.9H902.14a.9.9,0,0,1-.91-.9v-232.3a111.86,111.86,0,0,0,11.2-6.06,6.86,6.86,0,0,0,2.19-1.35,7.09,7.09,0,0,0,.73,2.11C929.16,1440.34,957.23,1466.91,991.77,1477.56Z"/><path class="cls-1" d="M1292.48,1468v175.71a.85.85,0,0,1-.27.63.88.88,0,0,1-.64.27h-88.71a.81.81,0,0,1-.35-.07.84.84,0,0,1-.29-.2.85.85,0,0,1-.27-.63v-166a114.81,114.81,0,0,0,90.53-9.76Z"/><path class="cls-1" d="M1454.19,1406.8v235.59a1,1,0,0,1-.07.35.84.84,0,0,1-.2.29.91.91,0,0,1-.64.26h-88.71a.91.91,0,0,1-.64-.26,1,1,0,0,1-.2-.29,1,1,0,0,1-.07-.35V1415a115,115,0,0,0,90.53-8.19Z"/><path class="cls-2" d="M823.51,1415.75v225.59a.85.85,0,0,1-.27.63.84.84,0,0,1-.29.2.81.81,0,0,1-.35.07H733.88a.81.81,0,0,1-.35-.07,1,1,0,0,1-.48-.48,1,1,0,0,1-.07-.35V1340q2.4-1.41,4.74-2.93c1.27.76,2.74,1.53,4,2.3C755.45,1376.86,785.84,1405.67,823.51,1415.75Z"/><path class="cls-2" d="M991.77,1475.45v165.89a.9.9,0,0,1-.91.9H902.14a.9.9,0,0,1-.91-.9V1409a111.86,111.86,0,0,0,11.2-6.06,6.86,6.86,0,0,0,2.19-1.35,7.09,7.09,0,0,0,.73,2.11C929.16,1438.23,957.23,1464.8,991.77,1475.45Z"/><path class="cls-2" d="M1292.48,1465.63v175.71a.85.85,0,0,1-.27.63.88.88,0,0,1-.64.27h-88.71a.81.81,0,0,1-.35-.07.84.84,0,0,1-.29-.2.85.85,0,0,1-.27-.63V1475.39a114.81,114.81,0,0,0,90.53-9.76Z"/><path class="cls-2" d="M1454.19,1405.75v235.59a1,1,0,0,1-.07.35.84.84,0,0,1-.2.29.91.91,0,0,1-.64.26h-88.71a.91.91,0,0,1-.64-.26,1,1,0,0,1-.2-.29,1,1,0,0,1-.07-.35v-227.4a115,115,0,0,0,90.53-8.19Z"/><path class="cls-2" d="M1683.65,945.86A126.89,126.89,0,0,1,1707,1020c0,51.9-30.15,96.52-72.92,115.67a124.79,124.79,0,0,1,4.39,33.32c0,69.32-53.55,125.43-119.52,125.43,0,48.48-26.32,90.55-64.8,111.36a115,115,0,0,1-90.53,8.19,108.41,108.41,0,0,1-18.47-8.09,123.16,123.16,0,0,1-52.71,59.78,114.81,114.81,0,0,1-90.53,9.76c-30.11-9.34-55.27-30.8-70.22-59a8,8,0,0,1-.91-1.72,8,8,0,0,1-1.28,2.1c-20.29,38.11-59.21,63.77-104,63.77a114.2,114.2,0,0,1-33.78-5.08c-34.54-10.65-62.61-37.22-76.42-71.71a7.09,7.09,0,0,1-.73-2.11,6.86,6.86,0,0,1-2.19,1.35,111.81,111.81,0,0,1-59.21,16.66,114.71,114.71,0,0,1-29.71-3.89c-37.67-10.08-68.06-38.89-81.77-76.35-1.28-.77-2.75-1.54-4-2.3q-2.34,1.51-4.74,2.93a112.51,112.51,0,0,1-56.85,15.26c-66.16,0-119.71-56.11-119.71-125.24a103,103,0,0,1,1.47-18.58,100,100,0,0,1-10.79.58c-66,0-119.52-56.11-119.52-125.24,0-48.32,26.32-90.4,64.65-111,28.13,15,60.43,21.74,94.29,22.44,1.86,0,3.73.06,5.6.06,105.27.08,216.24-44.45,200.86-304-3.09-52.27-14.3-100.71-35.77-140.59,16.16,14.24,32.87,33.75,63.59,98.9,28.86,61.19,109.12,61.26,122.66,43.66S924,630.56,869.84,588.85c-30.17-23.22-77.34-44.61-106.22-53.17-2.13-.63-4.17-1.19-6.09-1.68a127.22,127.22,0,0,1,10.55-27.17C788.44,468.2,827.71,442,872.77,442c39.66,0,74.75,20.11,96.31,51.32,21.38-31.21,56.47-51.32,96.13-51.32,33.44,0,63.78,14.36,85.53,37.73,21.56-23.37,51.72-37.73,85.16-37.73,50.08,0,93,32.37,110.75,78.13a112.25,112.25,0,0,1,52.82-13c54.46,0,100.51,38.3,114.77,90.39a38.16,38.16,0,0,1,4.75-.19c66,0,119.52,56.11,119.52,125.24a27.29,27.29,0,0,1-.18,3.83c51.9,13.6,90.46,62.81,90.46,121.41C1728.79,887.64,1711.24,922.88,1683.65,945.86Z"/><path class="cls-2" d="M672.59,628.11a71,71,0,0,1,5.23,27.33c0,27.78-14.57,50.29-32.56,50.29-12.87,0-24-11.53-29.27-28.27A516.22,516.22,0,0,1,672.59,628.11Z"/><path class="cls-2" d="M755.07,549.8q1.09,1.92,2.14,3.87c-1-.87-2-1.73-3-2.57,0-.13,0-.25,0-.37.07-.63.16-1.25.25-1.87C754.73,549.17,754.9,549.48,755.07,549.8Z"/><ellipse class="cls-2" cx="523.58" cy="655.44" rx="32.56" ry="50.29"/><path class="cls-2" d="M672.59,628.11a71,71,0,0,1,5.23,27.33c0,27.78-14.57,50.29-32.56,50.29-12.87,0-24-11.53-29.27-28.27a73.42,73.42,0,0,1-3.28-22c0-27.77,14.57-50.29,32.55-50.29C656.72,605.15,666.79,614.29,672.59,628.11Z"/><path class="cls-2" d="M757.21,553.67c-1-.87-2-1.73-3-2.57,0-.13,0-.25,0-.37.07-.63.16-1.25.25-1.87.19.31.36.62.53.94Q756.17,551.72,757.21,553.67Z"/><path class="cls-3" d="M869.84,588.85c-30.17-23.22-77.34-44.61-106.22-53.17-2.13-.63-4.17-1.19-6.09-1.68-1.29-.33-2.54-.62-3.72-.88-.35.46-.7.91-1.06,1.35s-.51.62-.78.93l-.2.24a54.15,54.15,0,0,1-41.11,19.14,52.87,52.87,0,0,1-26-6.82,48.31,48.31,0,0,1-23.57-14.27c-.23-.24-.45-.48-.66-.73A46.28,46.28,0,0,1,652.1,519c-6.73,25.89-29.49,45.1-56.39,45.1-27.42,0-50.53-19.71-56.91-46.27a46.11,46.11,0,0,1-6.46,8.28,48.28,48.28,0,0,1-32.25,14.37h0a52.33,52.33,0,0,1-17.81,3.13,53.48,53.48,0,0,1-39.35-17.45c-24.44,3.25-84.71,25-122.37,49.79C263.4,613.55,226,657.55,237,674.27s88.37,18.57,123.37-37.75c44.29-71.26,61.93-82.95,82.68-97.65-.33.53-.66,1.06-1,1.59-25.61,42.2-37.39,96-43.78,153.8-17.85,161.26,25.82,245.32,94,281.51,28.13,15,60.43,21.74,94.29,22.44,1.86,0,3.73.06,5.6.06,105.27.08,216.24-44.45,200.86-304-3.09-52.27-14.3-100.71-35.77-140.59-1-.87-2-1.73-3-2.57,0-.13,0-.25,0-.37.07-.63.16-1.25.25-1.87.19.31.36.62.53.94q1.09,1.92,2.14,3.87c16.16,14.24,32.87,33.75,63.59,98.9,28.86,61.19,109.12,61.26,122.66,43.66S924,630.56,869.84,588.85ZM523.58,705.73c-18,0-32.56-22.51-32.56-50.29s14.58-50.29,32.56-50.29,32.56,22.52,32.56,50.29S541.56,705.73,523.58,705.73Zm121.68,0c-12.87,0-24-11.53-29.27-28.27a73.42,73.42,0,0,1-3.28-22c0-27.77,14.57-50.29,32.55-50.29,11.46,0,21.53,9.14,27.33,23a71,71,0,0,1,5.23,27.33C677.82,683.22,663.25,705.73,645.26,705.73Z"/><path class="cls-2" d="M757.21,553.67c-1-.87-2-1.73-3-2.57,0-.13,0-.25,0-.37.07-.63.16-1.25.25-1.87.19.31.36.62.53.94Q756.17,551.72,757.21,553.67Z"/><ellipse class="cls-4" cx="523.58" cy="655.44" rx="32.56" ry="50.29"/><circle class="cls-5" cx="529.69" cy="628.45" r="9.39"/><path class="cls-4" d="M677.82,655.44c0,27.78-14.57,50.29-32.56,50.29-12.87,0-24-11.53-29.27-28.27a73.42,73.42,0,0,1-3.28-22c0-27.77,14.57-50.29,32.55-50.29,11.46,0,21.53,9.14,27.33,23A71,71,0,0,1,677.82,655.44Z"/><circle class="cls-5" cx="651.37" cy="628.45" r="9.39"/><line class="cls-2" x1="586.51" y1="892.56" x2="586.51" y2="998.27"/><line class="cls-2" x1="532.73" y1="838.77" x2="586.51" y2="892.56"/><line class="cls-2" x1="642.49" y1="837.68" x2="586.51" y2="893.65"/><path class="cls-2" d="M765.93,497.22a58.9,58.9,0,0,1-4.7,23.13,53.45,53.45,0,0,1-2.4,4.93,56.14,56.14,0,0,1-5,7.84c-.35.46-.7.91-1.06,1.35s-.51.62-.78.93l-.2.24a54.15,54.15,0,0,1-41.11,19.14,52.87,52.87,0,0,1-26-6.82,48.31,48.31,0,0,1-23.57-14.27c-.23-.24-.45-.48-.66-.73A46.28,46.28,0,0,1,652.1,519c-6.73,25.89-29.49,45.1-56.39,45.1-27.42,0-50.53-19.71-56.91-46.27a46.11,46.11,0,0,1-6.46,8.28,48.28,48.28,0,0,1-32.25,14.37h0a52.33,52.33,0,0,1-17.81,3.13,53.48,53.48,0,0,1-39.35-17.45l-1-1.06c-.17-.18-.33-.37-.48-.56a56.58,56.58,0,0,1-5.6-7.75,48.25,48.25,0,0,1-2.33-4.23,57.66,57.66,0,0,1-6-25.89c0-31.57,24.48-57.15,54.68-57.15h.2c2-33.22,28.42-59.42,60.6-59.42,23.89,0,44.62,14.44,54.48,35.48,8.1-27.85,31-47.86,58.05-47.86,33.95,0,61.39,31.36,61.39,70.15a79.52,79.52,0,0,1-1,12c26.22,2.7,47.08,24.36,49.67,51.64C765.84,493.38,765.93,495.29,765.93,497.22Z"/><path class="cls-2" d="M733,1586.82h90.53a0,0,0,0,1,0,0v54.52a.91.91,0,0,1-.91.91H733.88a.91.91,0,0,1-.91-.91v-54.52A0,0,0,0,1,733,1586.82Z"/><path class="cls-2" d="M901.23,1586.82h90.53a0,0,0,0,1,0,0v54.52a.91.91,0,0,1-.91.91H902.14a.91.91,0,0,1-.91-.91v-54.52A0,0,0,0,1,901.23,1586.82Z"/><path class="cls-2" d="M1201.95,1586.82h90.53a0,0,0,0,1,0,0v54.52a.91.91,0,0,1-.91.91h-88.72a.91.91,0,0,1-.91-.91v-54.52A0,0,0,0,1,1201.95,1586.82Z"/><path class="cls-2" d="M1363.66,1586.82h90.53a0,0,0,0,1,0,0v54.52a.91.91,0,0,1-.91.91h-88.72a.91.91,0,0,1-.91-.91v-54.52A0,0,0,0,1,1363.66,1586.82Z"/></svg>