<svg id="Layer_1" data-name="Layer 1" xmlns="http://www.w3.org/2000/svg" viewBox="0 0 2000 2000"><defs><style>.cls-1{fill:none;}.cls-1,.cls-2{stroke:#000;}.cls-1,.cls-2,.cls-3{stroke-miterlimit:10;stroke-width:7px;}.cls-3{stroke:#333;}</style></defs><path class="cls-1" d="M1171.72,1820.21H781.59c-148.57,0-269-120.43-269-269V586.08c0-148.56,120.43-269,269-269h390.13c148.56,0,269,120.43,269,269v965.14a268.93,268.93,0,0,1-269,269Z"/><path class="cls-2" d="M796.09,179.79H1158a33.34,33.34,0,0,1,33.34,33.34v104a0,0,0,0,1,0,0H762.75a0,0,0,0,1,0,0v-104A33.34,33.34,0,0,1,796.09,179.79Z"/><line class="cls-1" x1="545.96" y1="546.85" x2="661.03" y2="546.85"/><line class="cls-1" x1="545.96" y1="800.26" x2="661.03" y2="800.26"/><line class="cls-1" x1="545.96" y1="1053.67" x2="661.03" y2="1053.67"/><line class="cls-1" x1="545.96" y1="1307.08" x2="661.03" y2="1307.08"/><line class="cls-1" x1="545.96" y1="1560.49" x2="661.03" y2="1560.49"/><line class="cls-3" x1="802.28" y1="201.67" x2="802.28" y2="289.35"/><line class="cls-3" x1="829.44" y1="201.67" x2="829.44" y2="289.35"/><line class="cls-3" x1="856.6" y1="201.67" x2="856.6" y2="289.35"/><line class="cls-3" x1="883.76" y1="201.67" x2="883.76" y2="289.35"/><line class="cls-3" x1="910.91" y1="201.67" x2="910.91" y2="289.35"/><line class="cls-3" x1="938.07" y1="201.67" x2="938.07" y2="289.35"/><line class="cls-3" x1="965.23" y1="201.67" x2="965.23" y2="289.35"/><line class="cls-3" x1="992.39" y1="201.67" x2="992.39" y2="289.35"/><line class="cls-3" x1="1019.55" y1="201.67" x2="1019.55" y2="289.35"/><line class="cls-3" x1="1046.7" y1="201.67" x2="1046.7" y2="289.35"/><line class="cls-3" x1="1073.86" y1="201.67" x2="1073.86" y2="289.35"/><line class="cls-3" x1="1101.02" y1="201.67" x2="1101.02" y2="289.35"/><line class="cls-3" x1="1128.18" y1="201.67" x2="1128.18" y2="289.35"/><line class="cls-3" x1="1155.34" y1="201.67" x2="1155.34" y2="289.35"/></svg>