<svg id="Layer_1" data-name="Layer 1" xmlns="http://www.w3.org/2000/svg" viewBox="0 0 2000 2000"><defs><style>.cls-1{fill:#1836e8;}.cls-2{fill:none;}.cls-2,.cls-3{stroke:#000;}.cls-2,.cls-3,.cls-4{stroke-miterlimit:10;stroke-width:7px;}.cls-4{stroke:#333;}</style></defs><rect class="cls-1" x="535.94" y="356.84" width="928.13" height="1503.13" rx="273.66"/><path class="cls-2" d="M1195.07,1860H804.93c-148.56,0-269-120.44-269-269V625.84c0-148.57,120.43-269,269-269h390.14c148.56,0,269,120.43,269,269V1591a268.94,268.94,0,0,1-269,269Z"/><path class="cls-3" d="M819.44,219.54h361.92a33.34,33.34,0,0,1,33.34,33.34v104a0,0,0,0,1,0,0H786.1a0,0,0,0,1,0,0v-104A33.34,33.34,0,0,1,819.44,219.54Z"/><line class="cls-2" x1="569.31" y1="586.6" x2="684.38" y2="586.6"/><line class="cls-2" x1="569.31" y1="840.01" x2="684.38" y2="840.01"/><line class="cls-2" x1="569.31" y1="1093.42" x2="684.38" y2="1093.42"/><line class="cls-2" x1="569.31" y1="1346.83" x2="684.38" y2="1346.83"/><line class="cls-2" x1="569.31" y1="1600.24" x2="684.38" y2="1600.24"/><line class="cls-4" x1="823.47" y1="244.35" x2="823.47" y2="332.03"/><line class="cls-4" x1="850.63" y1="244.35" x2="850.63" y2="332.03"/><line class="cls-4" x1="877.79" y1="244.35" x2="877.79" y2="332.03"/><line class="cls-4" x1="904.95" y1="244.35" x2="904.95" y2="332.03"/><line class="cls-4" x1="932.1" y1="244.35" x2="932.1" y2="332.03"/><line class="cls-4" x1="959.26" y1="244.35" x2="959.26" y2="332.03"/><line class="cls-4" x1="986.42" y1="244.35" x2="986.42" y2="332.03"/><line class="cls-4" x1="1013.58" y1="244.35" x2="1013.58" y2="332.03"/><line class="cls-4" x1="1040.74" y1="244.35" x2="1040.74" y2="332.03"/><line class="cls-4" x1="1067.9" y1="244.35" x2="1067.9" y2="332.03"/><line class="cls-4" x1="1095.05" y1="244.35" x2="1095.05" y2="332.03"/><line class="cls-4" x1="1122.21" y1="244.35" x2="1122.21" y2="332.03"/><line class="cls-4" x1="1149.37" y1="244.35" x2="1149.37" y2="332.03"/><line class="cls-4" x1="1176.53" y1="244.35" x2="1176.53" y2="332.03"/></svg>