<svg id="Layer_1" data-name="Layer 1" xmlns="http://www.w3.org/2000/svg" viewBox="0 0 2000 2000"><defs><style>.cls-1{fill:#009245;}.cls-2,.cls-4{fill:#fff;}.cls-2,.cls-3,.cls-5{stroke:#000;stroke-miterlimit:10;stroke-width:5px;}.cls-5{fill:none;}</style></defs><polyline class="cls-1" points="1554.99 1207.8 1621.43 1087.6 1661.98 967.81 1671.59 914.08 243.3 969.17 236.93 1019.93 240 1061.12 255.48 1125.43 267.14 1156.8 283.98 1193.42 315.89 1248.33 324.22 1260.36"/><polygon class="cls-1" points="1452.15 1328.26 1499.1 1371.82 469.01 1415.29 400.87 1353.56 370.1 1320.78 335.38 1278.15 322.63 1260.36 1553.4 1207.8 1504.44 1272.8 1452.15 1328.26"/><polygon class="cls-1" points="468.42 1413.92 1451.06 1326.98 1479.82 1350.9 1498.52 1370.45 1510.69 1385.23 1526.64 1408.46 1535.06 1424.12 1540.89 1438.96 1543.39 1457.02 1538.77 1467.76 1526.48 1471.79 1512.35 1468.89 1483.93 1453.8 1462.86 1437.49 1450.97 1426.61 1453.11 1453.02 1451.54 1482.95 1443.11 1507.73 1438.53 1512.51 1433.45 1514.84 1418.8 1510.44 1399.49 1485.98 1386.17 1456.23 1379.52 1470.34 1361.77 1498.01 1351.61 1507.98 1334.31 1513.03 1323.96 1503.09 1318.4 1479.54 1318.76 1451.4 1321.69 1429.71 1330.89 1392.25 1284.02 1403.45 1211.93 1409.91 1155.83 1409.47 1119.05 1485.72 1146.43 1512.76 1161.29 1534.39 1176.56 1572.61 1137.41 1561.38 1112.28 1537.52 1110.31 1594.11 1106.73 1599.61 1098.48 1595.3 1068.75 1544.67 1071.82 1572.97 1069.63 1597.23 1062.11 1608.23 1046.91 1602.3 1033.47 1578.94 1025.86 1551.52 1024.87 1525.43 1029.77 1504.87 1053.39 1461.15 1062.44 1406.03 913.63 1405.34 865.31 1408.49 809.17 1418.72 765.03 1435.97 739.11 1452.36 749.2 1481.51 764.14 1496.67 779.24 1519.34 788.87 1545.37 791.59 1574.48 787.22 1599.55 779.35 1619.46 765.36 1627.94 752.72 1608.65 749.23 1590.53 747.45 1571.79 740.34 1594.57 730.64 1616.05 719.95 1627.15 713.24 1615.02 709.41 1595.48 704.03 1566.93 691.5 1586.56 679.03 1598.21 660.25 1608.65 646.6 1612.61 650.89 1586.41 660.25 1560 668.22 1538.89 630.59 1573.59 591.05 1602.77 560.57 1619.02 531.09 1625.01 518.16 1611.72 521.57 1587.01 543.39 1544.77 586.25 1489.91 565.04 1477.46 534.59 1461.2 510.33 1445.18 468.42 1413.92"/><path class="cls-2" d="M1368.71,688.18a555.91,555.91,0,0,0-55.4-36.78A414.48,414.48,0,0,1,1368.71,688.18Z"/><path class="cls-2" d="M1313.09,651.27a555.79,555.79,0,0,0-72.49-33.6c.05-.56.11-1.12.14-1.68A558.93,558.93,0,0,1,1313.09,651.27Z"/><ellipse class="cls-2" cx="730.46" cy="589.71" rx="113.83" ry="176.31"/><ellipse class="cls-2" cx="1093.03" cy="589.71" rx="113.83" ry="176.31"/><ellipse class="cls-3" cx="730.46" cy="644.19" rx="66.36" ry="99.07"/><ellipse class="cls-3" cx="1093.03" cy="644.19" rx="66.36" ry="99.07"/><ellipse class="cls-4" cx="749.58" cy="596.61" rx="19.12" ry="19.37"/><ellipse class="cls-4" cx="1118.29" cy="596.61" rx="19.12" ry="19.37"/><path class="cls-5" d="M818.74,815.43c25.55,100.47,160.46,103,176.37-1.58"/><path class="cls-5" d="M779.35,1619.47c-6.65,8-11.21,8.93-14,8.47-14.54-2.39-17.48-48.56-17.91-56.16q-17.93,56.78-27.5,55.37-4.14-.62-6.71-12.13-3-15.21-6-30.65-1.65-8.74-3.25-17.44a80.84,80.84,0,0,1-25,31.28,79.45,79.45,0,0,1-32.43,14.4A153,153,0,0,1,660.25,1560a151.23,151.23,0,0,1,29-42.15l-.6-.79C597.38,1395.21,469.11,1194,481.76,1022.68c2.47-33.49,7-95,39.69-106.94,32.52-11.87,87.34,27.28,100,73.08a82.27,82.27,0,0,1,2.27,32.53c-1.47,11.34-.42,29.22,4.35,56.22,11.18,63.4,42.91,177.14,111.05,374.79q4.92,14.28,10.09,29.15c6.28,5.3,40.78,35.5,42.34,84.29A111.32,111.32,0,0,1,779.35,1619.47Z"/><path class="cls-5" d="M1154.25,1523.14a152.56,152.56,0,0,1,22.31,49.47,79.13,79.13,0,0,1-34.37-8.58,80.32,80.32,0,0,1-29.91-26.51c-.07,5.9-.17,11.82-.27,17.75q-.3,15.7-.71,31.23-.6,11.8-4.57,13.11-9.2,3-36.41-49.81c.84,7.56,5.72,53.57-8.21,58.43-2.66.94-7.31.81-15.2-5.93a111,111,0,0,1-21.05-50.78c-6.67-48.34,22.24-84.06,27.53-90.37q2.59-15.56,5-30.46,2.07-12.56,4-24.66c44.52-276.19,48.08-384.42,37.18-420-.1-.33-.26-.84-.46-1.51-.05-.22-.12-.45-.2-.72a.53.53,0,0,0,0-.15c-.09-.33-.18-.66-.27-1a.19.19,0,0,0,0-.1l-.12-.47-.18-.76c-.06-.26-.13-.53-.2-.82s-.09-.37-.13-.57c-.13-.63-.28-1.29-.42-2-.1-.52-.21-1.08-.31-1.65,0-.26-.09-.54-.14-.82-.1-.59-.19-1.22-.28-1.86s-.17-1.26-.25-1.93-.17-1.43-.23-2.19c-.06-.52-.11-1.05-.14-1.6,0-.36,0-.73-.08-1.11,0-.06,0-.12,0-.18,0-.4,0-.82-.06-1.23s0-.84,0-1.26,0-.78,0-1.17a83.78,83.78,0,0,1,.39-9.31c4.76-47.32,52.19-95.37,86.23-89.28,34.22,6.13,49,65.95,57.11,98.52,34.24,138.14-23.57,313.36-83.89,446.61-12.41,27.43-24.93,53.07-36.78,76.25-.16.3-.3.59-.45.88A150,150,0,0,1,1154.25,1523.14Z"/><path class="cls-5" d="M1451.06,1327a273,273,0,0,1,41.64,37c40.17,43.3,60.79,89.76,46.07,103.77-13.31,12.69-51-5.52-87.8-41.15,6.15,47.05-.64,84.52-17.52,88.23-15,3.31-33.73-21.13-47.28-58.61-16.18,37.37-36.87,61.2-51.86,56.8-19.41-5.7-21.89-56.58-5.55-113.65q1-3.62,2.13-7.13c-.69,0-1.38,0-2.05,0-53.27,17.54-107.54,19.11-173,17.2,60.32-133.25,118.13-308.47,83.89-446.61-8.08-32.57-22.89-92.39-57.11-98.52-34-6.09-81.47,42-86.23,89.28a83.78,83.78,0,0,0-.39,9.31c0,.39,0,.78,0,1.17s0,.84,0,1.26,0,.83.06,1.23c0,.06,0,.12,0,.18,0,.38,0,.75.08,1.11,0,.55.08,1.08.14,1.6.06.76.13,1.48.23,2.19s.16,1.31.25,1.93.18,1.27.28,1.86c.05.28.1.56.14.82.1.57.21,1.13.31,1.65.14.71.29,1.37.42,2,0,.2.08.38.13.57s.14.56.2.82l.18.76.12.47a.19.19,0,0,1,0,.1c.09.37.18.7.27,1a.53.53,0,0,1,0,.15c.08.27.15.5.2.72.2.67.36,1.18.46,1.51,10.9,35.55,7.34,143.78-37.18,420-24.57-.81-50.73-1.42-78.8-1.42-97.58,0-181.09,0-244.53,47.75C671,1254.71,639.24,1141,628.06,1077.57c-4.77-27-5.82-44.88-4.35-56.22a82.27,82.27,0,0,0-2.27-32.53c-12.65-45.8-67.47-85-100-73.08-32.68,12-37.22,73.45-39.69,106.94C469.11,1194,597.38,1395.21,688.64,1517.06q-9.63,10.89-20.42,21.83c-62.45,63.27-127.76,99.7-145.85,81.38-16.44-16.66,11.73-72.79,63.88-130.36-87.32-41.78-187.74-126.76-252-213C226.6,1132.21,203.18,966.13,282,905.94c43.09-32.91,107.81-27.35,175.23,8.12a162.36,162.36,0,0,1-15.12-67.71c0-76.74,56.61-146.21,148.18-196.61a315.67,315.67,0,0,1-5.86-61C584.41,469,649.68,372,730.21,372c76.46,0,139.17,87.51,145.3,198.83,24.41-2,49.39-3,74.8-3H951C958.07,457.9,1020.34,372,1096.09,372c80.53,0,145.8,97.05,145.8,216.75,0,9.24-.39,18.35-1.15,27.28,0,.56-.09,1.12-.14,1.68a555.79,555.79,0,0,1,72.49,33.6l.22.13a555.91,555.91,0,0,1,55.4,36.78,549.06,549.06,0,0,1,56.44,48.9c1.41,1.39,2.8,2.81,4.19,4.21q4.58-3.85,9.17-7.46c52.56-41.19,107.56-56.85,152.68-37.27,90.69,39.38,107.12,206.31,36.67,372.86-29.33,69.34-74.83,142.8-124.51,202.11A608.42,608.42,0,0,1,1451.06,1327Z"/><path class="cls-5" d="M1429.34,741.29c-37,34.21-105.81,107.85-136.74,222.66A456.56,456.56,0,0,0,1277,1087.6"/><path class="cls-5" d="M632.49,1100.22c16.56-49.85,42.64-80,62.16-97.48,90.14-80.94,340.86-84,409.31-9.39"/></svg>