<svg id="Layer_1" data-name="Layer 1" xmlns="http://www.w3.org/2000/svg" viewBox="0 0 2000 2000"><defs><style>.cls-1{fill:#009245;}.cls-2,.cls-4{fill:#fff;}.cls-2,.cls-3,.cls-5{stroke:#000;stroke-miterlimit:10;stroke-width:5px;}.cls-5{fill:none;}</style></defs><polyline class="cls-1" points="1670.79 854.09 1670.79 785.1 1664.47 740.38 1645.4 688.22 1617.76 653.09 1591.18 636.19 1560.1 628.28 1532.79 629.04 1500.8 637.34 1470.19 651.92 1438.51 673.46 1404.37 705.65 463.54 705.65 453.27 727.63 443.25 767.08 443.25 804.83 448.77 831.18 457.21 853.69 427.32 839.87 394.89 829.35 360.69 824 328.75 825.63 297.97 835.59 273.08 853.23 256.48 873.99 242.5 909.19"/><polyline class="cls-1" points="1554.2 1147.81 1620.63 1027.62 1661.18 907.83 1670.79 854.09 242.5 909.19 236.13 959.94 239.2 1001.14 254.69 1065.44 266.34 1096.82 283.18 1133.43 315.09 1188.35 323.42 1200.37"/><polygon class="cls-1" points="1452.97 1266.42 1499.91 1309.98 469.82 1353.45 401.68 1291.72 370.92 1258.94 336.19 1216.31 323.44 1198.52 1554.22 1145.96 1505.26 1210.96 1452.97 1266.42"/><polygon class="cls-1" points="468.68 1353.65 1451.32 1266.71 1480.07 1290.63 1498.77 1310.18 1510.94 1324.96 1526.89 1348.19 1535.32 1363.85 1541.14 1378.69 1543.65 1396.75 1539.02 1407.49 1526.74 1411.52 1512.6 1408.62 1484.18 1393.53 1463.12 1377.22 1451.23 1366.34 1453.37 1392.75 1451.8 1422.68 1443.36 1447.46 1438.79 1452.24 1433.71 1454.57 1419.06 1450.17 1399.75 1425.71 1386.42 1395.96 1379.78 1410.07 1362.03 1437.74 1351.86 1447.71 1334.57 1452.76 1324.22 1442.82 1318.65 1419.27 1319.01 1391.13 1321.95 1369.44 1331.14 1331.98 1284.27 1343.18 1212.19 1349.64 1156.09 1349.2 1119.31 1425.45 1146.68 1452.49 1161.55 1474.12 1176.82 1512.34 1137.66 1501.11 1112.54 1477.25 1110.57 1533.84 1106.98 1539.34 1098.73 1535.03 1069.01 1484.4 1072.07 1512.7 1069.89 1536.96 1062.37 1547.96 1047.16 1542.03 1033.73 1518.67 1026.12 1491.25 1025.12 1465.16 1030.03 1444.6 1053.65 1400.88 1062.7 1345.76 913.88 1345.07 865.57 1348.22 809.42 1358.45 765.28 1375.7 739.37 1392.09 749.46 1421.24 764.4 1436.4 779.5 1459.07 789.13 1485.1 791.85 1514.21 787.48 1539.28 779.6 1559.2 765.61 1567.67 752.97 1548.38 749.49 1530.26 747.71 1511.52 740.6 1534.3 730.9 1555.78 720.21 1566.88 713.49 1554.75 709.67 1535.21 704.28 1506.66 691.75 1526.29 679.28 1537.94 660.5 1548.38 646.86 1552.34 651.14 1526.14 660.5 1499.73 668.48 1478.62 630.85 1513.32 591.3 1542.5 560.82 1558.75 531.35 1564.74 518.41 1551.45 521.82 1526.74 543.64 1484.5 586.5 1429.64 565.3 1417.19 534.85 1400.93 510.59 1384.91 468.68 1353.65"/><path class="cls-2" d="M1368.71,627.81a555.91,555.91,0,0,0-55.4-36.78A415.45,415.45,0,0,1,1368.71,627.81Z"/><path class="cls-2" d="M1313.09,590.9a555.79,555.79,0,0,0-72.49-33.6c.05-.56.11-1.11.14-1.68A558.93,558.93,0,0,1,1313.09,590.9Z"/><ellipse class="cls-2" cx="730.46" cy="529.34" rx="113.83" ry="176.31"/><ellipse class="cls-2" cx="1093.03" cy="529.34" rx="113.83" ry="176.31"/><ellipse class="cls-3" cx="730.46" cy="583.83" rx="66.36" ry="99.07"/><ellipse class="cls-3" cx="1093.03" cy="583.83" rx="66.36" ry="99.07"/><ellipse class="cls-4" cx="749.58" cy="536.25" rx="19.12" ry="19.37"/><ellipse class="cls-4" cx="1118.29" cy="536.25" rx="19.12" ry="19.37"/><path class="cls-5" d="M818.74,755.07c25.55,100.46,160.46,103,176.37-1.58"/><path class="cls-5" d="M779.35,1559.1c-6.65,8-11.21,8.94-14,8.47-14.54-2.39-17.48-48.56-17.91-56.15q-17.93,56.77-27.5,55.36-4.14-.6-6.71-12.13-3-15.21-6-30.65-1.65-8.74-3.25-17.43a80.91,80.91,0,0,1-25,31.28,79.54,79.54,0,0,1-32.43,14.39,153,153,0,0,1,13.65-52.6,151.3,151.3,0,0,1,29-42.16l-.6-.79c-91.26-121.85-219.53-323.11-206.88-494.38,2.47-33.49,7-95,39.69-106.93,32.52-11.88,87.34,27.27,100,73.07A82.32,82.32,0,0,1,623.71,961c-1.47,11.34-.42,29.21,4.35,56.21C639.24,1080.61,671,1194.34,739.11,1392q4.92,14.28,10.09,29.15c6.28,5.3,40.78,35.5,42.34,84.29A111.32,111.32,0,0,1,779.35,1559.1Z"/><path class="cls-5" d="M1154.25,1462.77a152.56,152.56,0,0,1,22.31,49.47,79,79,0,0,1-34.37-8.58,80.24,80.24,0,0,1-29.91-26.51c-.07,5.9-.17,11.82-.27,17.75q-.3,15.7-.71,31.23-.6,11.8-4.57,13.11-9.2,3-36.41-49.81c.84,7.56,5.72,53.57-8.21,58.43-2.66.94-7.31.81-15.2-5.93a110.86,110.86,0,0,1-21.05-50.78c-6.67-48.34,22.24-84.06,27.53-90.37q2.59-15.54,5-30.46,2.07-12.54,4-24.66c44.52-276.18,48.08-384.42,37.18-420-.1-.32-.26-.84-.46-1.51-.05-.22-.12-.45-.2-.72a.65.65,0,0,0,0-.15c-.09-.32-.18-.66-.27-1a.19.19,0,0,0,0-.1l-.12-.47c-.06-.24-.12-.5-.18-.76s-.13-.53-.2-.82-.09-.37-.13-.57c-.13-.63-.28-1.29-.42-2-.1-.53-.21-1.08-.31-1.65,0-.27-.09-.55-.14-.83-.1-.59-.19-1.22-.28-1.85s-.17-1.27-.25-1.94-.17-1.43-.23-2.18c-.06-.53-.11-1.06-.14-1.61,0-.36,0-.73-.08-1.11,0-.06,0-.12,0-.17,0-.41,0-.83-.06-1.23s0-.85,0-1.27,0-.78,0-1.17a83.78,83.78,0,0,1,.39-9.31c4.76-47.32,52.19-95.36,86.23-89.28,34.22,6.13,49,65.95,57.11,98.52,34.24,138.14-23.57,313.36-83.89,446.62-12.41,27.42-24.93,53.06-36.78,76.24-.16.3-.3.59-.45.88A150.21,150.21,0,0,1,1154.25,1462.77Z"/><path class="cls-5" d="M1451.06,1266.62a272.88,272.88,0,0,1,41.64,37c40.17,43.31,60.79,89.77,46.07,103.78-13.31,12.68-51-5.53-87.8-41.16,6.15,47-.64,84.52-17.52,88.23-15,3.31-33.73-21.13-47.28-58.61-16.18,37.37-36.87,61.2-51.86,56.8-19.41-5.7-21.89-56.58-5.55-113.65q1-3.6,2.13-7.13c-.69,0-1.38,0-2.05,0-53.27,17.53-107.54,19.1-173,17.2,60.32-133.26,118.13-308.48,83.89-446.62-8.08-32.57-22.89-92.39-57.11-98.52-34-6.08-81.47,42-86.23,89.28a83.78,83.78,0,0,0-.39,9.31c0,.39,0,.79,0,1.17s0,.85,0,1.27,0,.82.06,1.23c0,0,0,.11,0,.17,0,.38,0,.75.08,1.11,0,.55.08,1.08.14,1.61.06.75.13,1.47.23,2.18s.16,1.31.25,1.94.18,1.26.28,1.85c.05.28.1.56.14.83.1.57.21,1.12.31,1.65.14.7.29,1.36.42,2,0,.2.08.38.13.57s.14.56.2.82.12.52.18.76l.12.47a.19.19,0,0,1,0,.1c.09.37.18.71.27,1a.65.65,0,0,1,0,.15c.08.27.15.5.2.72.2.67.36,1.19.46,1.51,10.9,35.55,7.34,143.79-37.18,420-24.57-.81-50.73-1.42-78.8-1.42-97.58,0-181.09,0-244.53,47.75C671,1194.34,639.24,1080.61,628.06,1017.2c-4.77-27-5.82-44.87-4.35-56.21a82.32,82.32,0,0,0-2.27-32.54c-12.65-45.8-67.47-85-100-73.07-32.68,11.94-37.22,73.44-39.69,106.93-12.65,171.27,115.62,372.53,206.88,494.38q-9.63,10.9-20.42,21.83c-62.45,63.27-127.76,99.71-145.85,81.38-16.44-16.66,11.73-72.79,63.88-130.36-87.32-41.78-187.74-126.76-252-213C226.6,1071.84,203.18,905.76,282,845.57c43.09-32.91,107.81-27.35,175.23,8.12A162.36,162.36,0,0,1,442.09,786c0-76.73,56.61-146.21,148.18-196.61a315.6,315.6,0,0,1-5.86-61c0-119.7,65.27-216.74,145.8-216.74,76.46,0,139.17,87.5,145.3,198.82,24.41-2,49.39-3,74.8-3H951c7.08-109.88,69.35-195.81,145.1-195.81,80.53,0,145.8,97,145.8,216.74,0,9.24-.39,18.35-1.15,27.28,0,.57-.09,1.12-.14,1.68a555.79,555.79,0,0,1,72.49,33.6,1,1,0,0,0,.22.13,555.91,555.91,0,0,1,55.4,36.78,550.29,550.29,0,0,1,56.44,48.9c1.41,1.39,2.8,2.81,4.19,4.22q4.58-3.87,9.17-7.47c52.56-41.19,107.56-56.85,152.68-37.27,90.69,39.38,107.12,206.31,36.67,372.86-29.33,69.34-74.83,142.8-124.51,202.11A608.58,608.58,0,0,1,1451.06,1266.62Z"/><path class="cls-5" d="M1429.34,680.93c-37,34.2-105.81,107.85-136.74,222.65A456.61,456.61,0,0,0,1277,1027.23"/><path class="cls-5" d="M632.49,1039.85c16.56-49.85,42.64-79.95,62.16-97.48,90.14-80.93,340.86-84,409.31-9.39"/></svg>