<svg id="Layer_1" data-name="Layer 1" xmlns="http://www.w3.org/2000/svg" viewBox="0 0 2000 2000"><defs><style>.cls-1,.cls-3{fill:#fff;}.cls-1,.cls-2,.cls-4{stroke:#000;stroke-miterlimit:10;stroke-width:5px;}.cls-4{fill:none;}</style></defs><path class="cls-1" d="M1415.25,688.18a557.07,557.07,0,0,0-55.4-36.78A415.13,415.13,0,0,1,1415.25,688.18Z"/><path class="cls-1" d="M1359.63,651.27a555.79,555.79,0,0,0-72.49-33.6c0-.56.11-1.12.14-1.68A559.56,559.56,0,0,1,1359.63,651.27Z"/><ellipse class="cls-1" cx="777" cy="589.71" rx="113.83" ry="176.31"/><ellipse class="cls-1" cx="1139.57" cy="589.71" rx="113.83" ry="176.31"/><ellipse class="cls-2" cx="777" cy="644.19" rx="66.36" ry="99.07"/><ellipse class="cls-2" cx="1139.57" cy="644.19" rx="66.36" ry="99.07"/><ellipse class="cls-3" cx="796.12" cy="596.61" rx="19.12" ry="19.37"/><ellipse class="cls-3" cx="1164.82" cy="596.61" rx="19.12" ry="19.37"/><path class="cls-4" d="M865.27,815.43c25.56,100.47,160.47,103,176.38-1.58"/><path class="cls-4" d="M825.88,1619.47c-6.64,8-11.2,8.93-14,8.47-14.54-2.39-17.48-48.56-17.91-56.16q-17.93,56.78-27.5,55.37-4.14-.62-6.71-12.13-3-15.21-6-30.65-1.65-8.74-3.26-17.44a80.74,80.74,0,0,1-25,31.28,79.37,79.37,0,0,1-32.42,14.4A153,153,0,0,1,706.79,1560a151.44,151.44,0,0,1,29-42.15c-.19-.27-.39-.52-.59-.79C643.92,1395.21,515.64,1194,528.29,1022.68c2.48-33.49,7-95,39.7-106.94,32.52-11.87,87.34,27.28,100,73.08a82.27,82.27,0,0,1,2.27,32.53c-1.47,11.34-.42,29.22,4.35,56.22,11.17,63.4,42.91,177.14,111,374.79q4.9,14.28,10.09,29.15c6.28,5.3,40.78,35.5,42.34,84.29A111.42,111.42,0,0,1,825.88,1619.47Z"/><path class="cls-4" d="M1200.79,1523.14a152.56,152.56,0,0,1,22.31,49.47,79.16,79.16,0,0,1-34.38-8.58,80.27,80.27,0,0,1-29.9-26.51q-.1,8.85-.27,17.75-.3,15.7-.71,31.23-.61,11.8-4.58,13.11-9.19,3-36.41-49.81c.85,7.56,5.73,53.57-8.2,58.43-2.66.94-7.31.81-15.2-5.93a110.85,110.85,0,0,1-21-50.78c-6.67-48.34,22.24-84.06,27.53-90.37q2.6-15.56,5-30.46,2.07-12.56,4-24.66c44.51-276.19,48.08-384.42,37.18-420-.1-.33-.26-.84-.46-1.51,0-.22-.12-.45-.2-.72l0-.15c-.09-.33-.18-.66-.27-1,0,0,0-.06,0-.1l-.12-.47c-.06-.25-.12-.5-.19-.76s-.12-.53-.19-.82-.09-.37-.13-.57c-.14-.63-.28-1.29-.42-2-.1-.52-.21-1.08-.31-1.65,0-.26-.09-.54-.14-.82-.1-.59-.19-1.22-.28-1.86s-.18-1.26-.26-1.93-.16-1.43-.23-2.19c-.05-.52-.1-1.05-.13-1.6,0-.36,0-.73-.08-1.11,0-.06,0-.12,0-.18,0-.4,0-.82-.05-1.23s0-.84,0-1.26,0-.78,0-1.17a81.43,81.43,0,0,1,.39-9.31c4.75-47.32,52.19-95.37,86.23-89.28,34.22,6.13,49,65.95,57.11,98.52,34.23,138.14-23.57,313.36-83.89,446.61-12.41,27.43-24.93,53.07-36.78,76.25l-.46.88A150,150,0,0,1,1200.79,1523.14Z"/><path class="cls-4" d="M1497.6,1327a273.45,273.45,0,0,1,41.64,37c40.17,43.3,60.79,89.76,46.07,103.77-13.32,12.69-51-5.52-87.8-41.15,6.15,47.05-.64,84.52-17.52,88.23-15,3.31-33.73-21.13-47.28-58.61-16.18,37.37-36.87,61.2-51.86,56.8-19.41-5.7-21.89-56.58-5.56-113.65q1-3.62,2.14-7.13c-.69,0-1.38,0-2.06,0-53.26,17.54-107.53,19.11-173,17.2,60.32-133.25,118.12-308.47,83.89-446.61-8.08-32.57-22.89-92.39-57.11-98.52-34-6.09-81.48,42-86.23,89.28a81.43,81.43,0,0,0-.39,9.31c0,.39,0,.78,0,1.17s0,.84,0,1.26,0,.83.05,1.23c0,.06,0,.12,0,.18,0,.38,0,.75.08,1.11,0,.55.08,1.08.13,1.6.07.76.14,1.48.23,2.19s.16,1.31.26,1.93.18,1.27.28,1.86c0,.28.09.56.14.82.1.57.21,1.13.31,1.65.14.71.28,1.37.42,2,0,.2.08.38.13.57s.14.56.19.82.13.51.19.76l.12.47s0,.06,0,.1c.09.37.18.7.27,1l0,.15c.08.27.15.5.2.72.2.67.36,1.18.46,1.51,10.9,35.55,7.33,143.78-37.18,420-24.57-.81-50.73-1.42-78.8-1.42-97.58,0-181.09,0-244.53,47.75-68.14-197.65-99.88-311.39-111-374.79-4.77-27-5.82-44.88-4.35-56.22A82.27,82.27,0,0,0,668,988.82c-12.65-45.8-67.47-85-100-73.08-32.68,12-37.22,73.45-39.7,106.94C515.64,1194,643.92,1395.21,735.18,1517.06q-9.63,10.89-20.42,21.83c-62.45,63.27-127.76,99.7-145.85,81.38-16.44-16.66,11.73-72.79,63.87-130.36-87.31-41.78-187.73-126.76-251.95-213-107.69-144.67-131.11-310.75-52.32-370.94,43.09-32.91,107.82-27.35,175.24,8.12a162.36,162.36,0,0,1-15.12-67.71c0-76.74,56.61-146.21,148.18-196.61a315.67,315.67,0,0,1-5.86-61C631,469,696.22,372,776.74,372c76.47,0,139.18,87.51,145.31,198.83,24.41-2,49.39-3,74.8-3h.68C1004.61,457.9,1066.88,372,1142.63,372c80.52,0,145.8,97.05,145.8,216.75,0,9.24-.39,18.35-1.15,27.28,0,.56-.09,1.12-.14,1.68a555.79,555.79,0,0,1,72.49,33.6l.22.13a557.07,557.07,0,0,1,55.4,36.78,549,549,0,0,1,56.43,48.9c1.41,1.39,2.81,2.81,4.2,4.21,3-2.57,6.09-5.06,9.16-7.46,52.57-41.19,107.56-56.85,152.68-37.27,90.7,39.38,107.13,206.31,36.68,372.86-29.33,69.34-74.83,142.8-124.51,202.11A608.42,608.42,0,0,1,1497.6,1327Z"/><path class="cls-4" d="M1475.88,741.29C1438.83,775.5,1370.06,849.14,1339.14,964a456.17,456.17,0,0,0-15.56,123.65"/><path class="cls-4" d="M679,1100.22c16.56-49.85,42.64-80,62.16-97.48,90.14-80.94,340.86-84,409.31-9.39"/></svg>