<svg id="Layer_1" data-name="Layer 1" xmlns="http://www.w3.org/2000/svg" viewBox="0 0 2000 2000"><defs><style>.cls-1{fill:#009245;}.cls-2,.cls-4{fill:#fff;}.cls-2,.cls-3,.cls-5{stroke:#000;stroke-miterlimit:10;stroke-width:5px;}.cls-5{fill:none;}</style></defs><polyline class="cls-1" points="509.09 704.22 542.89 659.1 566.37 636.34 613.82 601.38 636.8 587.86 632.09 554.1 633.9 483.24 647.92 425.27 671.86 376.3 703.74 339.18 729.04 321.96 761.11 310.08 776.74 310.08 796.12 311.99 812.47 316.65 828.11 323.92 853.58 342.61 871.88 362.59 884.59 380.98 901.72 415.17 911.66 444.51 918.57 476.46 922.04 508.91 996.85 505.9 1002.19 475.87 1011.83 431.08 1034.14 382.08 1054.03 354.71 1073.21 336.2 1094.29 322.3 1123.17 310.08 1136.43 310.28 1164.82 312.58 1189.86 321.71 1209.58 334.24 1238.71 363.81 1253.39 391.29 1265.46 410.02 1276.76 441.74 1286.03 487.5 1288.22 515.36 1287.28 554.1 1302.72 561.19 1353.34 585.94 1393.15 610.48 1422.67 631.99 1451.7 656.32 1471.68 675.2 1475.88 679.41 1452.51 709.77"/><polyline class="cls-1" points="1716.34 853.7 1716.34 784.22 1710.02 739.18 1690.95 686.66 1663.3 651.28 1636.73 634.26 1605.64 626.3 1578.33 627.05 1546.34 635.42 1515.73 650.1 1484.05 671.79 1449.92 704.22 509.09 704.22 498.81 726.35 488.8 766.08 488.8 804.09 494.31 830.63 502.76 853.3 472.87 839.38 440.43 828.78 406.24 823.4 374.3 825.03 343.51 835.07 318.62 852.83 302.03 873.74 288.05 909.19"/><polyline class="cls-1" points="1600.74 1146.3 1667.17 1026.1 1707.72 906.31 1717.33 852.58 289.04 907.67 282.67 958.43 285.74 999.62 301.22 1063.93 312.88 1095.3 329.72 1131.92 361.63 1186.83 369.96 1198.86"/><polygon class="cls-1" points="514.96 1352.03 1497.6 1265.1 1526.36 1289.02 1545.05 1308.57 1557.22 1323.35 1573.18 1346.58 1581.6 1362.24 1587.42 1377.08 1589.93 1395.13 1585.31 1405.88 1573.02 1409.9 1558.88 1407.01 1530.47 1391.91 1509.4 1375.6 1497.51 1364.72 1499.65 1391.13 1498.08 1421.07 1489.64 1445.85 1485.07 1450.63 1479.99 1452.96 1465.34 1448.56 1446.03 1424.1 1432.71 1394.35 1426.06 1408.45 1408.31 1436.13 1398.15 1446.1 1380.85 1451.15 1370.5 1441.2 1364.93 1417.66 1365.3 1389.52 1368.23 1367.82 1377.43 1330.37 1330.56 1341.57 1258.47 1348.03 1202.37 1347.59 1165.59 1423.84 1192.97 1450.87 1207.83 1472.51 1223.1 1510.73 1183.94 1499.5 1158.82 1475.64 1156.85 1532.23 1153.26 1537.72 1145.02 1533.42 1115.29 1482.79 1118.35 1511.08 1116.17 1535.34 1108.65 1546.35 1093.45 1540.42 1080.01 1517.06 1072.4 1489.64 1071.41 1463.55 1076.31 1442.99 1099.93 1399.27 1108.98 1344.14 960.16 1343.46 911.85 1346.61 855.71 1356.84 811.56 1374.09 785.65 1390.48 795.74 1419.62 810.68 1434.79 825.78 1457.45 835.41 1483.49 838.13 1512.6 833.76 1537.67 825.88 1557.58 811.89 1566.06 799.25 1546.77 795.77 1528.64 793.99 1509.9 786.88 1532.69 777.18 1554.17 766.49 1565.27 759.78 1553.14 755.95 1533.6 750.56 1505.05 738.03 1524.68 725.57 1536.33 706.78 1546.77 693.14 1550.72 697.42 1524.53 706.79 1498.12 714.76 1477.01 677.13 1511.71 637.58 1540.89 607.1 1557.14 577.63 1563.12 564.7 1549.84 568.1 1525.13 589.93 1482.89 632.78 1428.03 611.58 1415.58 581.13 1399.31 556.87 1383.3 514.96 1352.03"/><polygon class="cls-1" points="1496.32 1266.42 1543.27 1309.98 513.18 1353.45 445.04 1291.72 414.27 1258.94 379.55 1216.31 366.8 1198.52 1597.58 1145.96 1548.61 1210.96 1496.32 1266.42"/><path class="cls-2" d="M1415.25,626.3a557.07,557.07,0,0,0-55.4-36.78A415.13,415.13,0,0,1,1415.25,626.3Z"/><path class="cls-2" d="M1359.63,589.39a553.18,553.18,0,0,0-72.49-33.6c0-.56.11-1.12.14-1.69A560.92,560.92,0,0,1,1359.63,589.39Z"/><ellipse class="cls-2" cx="777" cy="527.83" rx="113.83" ry="176.31"/><ellipse class="cls-2" cx="1139.57" cy="527.83" rx="113.83" ry="176.31"/><ellipse class="cls-3" cx="777" cy="582.31" rx="66.36" ry="99.07"/><ellipse class="cls-3" cx="1139.57" cy="582.31" rx="66.36" ry="99.07"/><ellipse class="cls-4" cx="796.12" cy="534.73" rx="19.12" ry="19.37"/><ellipse class="cls-4" cx="1164.82" cy="534.73" rx="19.12" ry="19.37"/><path class="cls-5" d="M865.27,753.55c25.56,100.47,160.47,103,176.38-1.58"/><path class="cls-5" d="M825.88,1557.58c-6.64,8-11.2,8.94-14,8.48-14.54-2.4-17.48-48.57-17.91-56.16q-17.93,56.77-27.5,55.37-4.14-.62-6.71-12.13-3-15.23-6-30.66-1.65-8.73-3.26-17.43a80.74,80.74,0,0,1-25,31.28,79.18,79.18,0,0,1-32.42,14.39,153.06,153.06,0,0,1,13.65-52.6,151.29,151.29,0,0,1,29-42.15c-.19-.27-.39-.53-.59-.79-91.26-121.85-219.54-323.11-206.89-494.39,2.48-33.48,7-95,39.7-106.93,32.52-11.87,87.34,27.28,100,73.08a82.27,82.27,0,0,1,2.27,32.53c-1.47,11.34-.42,29.22,4.35,56.21,11.17,63.41,42.91,177.15,111,374.8q4.9,14.28,10.09,29.14c6.28,5.31,40.78,35.51,42.34,84.29A111.39,111.39,0,0,1,825.88,1557.58Z"/><path class="cls-5" d="M1200.79,1461.26a152.47,152.47,0,0,1,22.31,49.47,79.16,79.16,0,0,1-34.38-8.58,80.36,80.36,0,0,1-29.9-26.51q-.1,8.85-.27,17.75-.3,15.69-.71,31.23-.61,11.81-4.58,13.1-9.19,3-36.41-49.8c.85,7.55,5.73,53.56-8.2,58.43-2.66.94-7.31.81-15.2-5.93a110.85,110.85,0,0,1-21-50.78c-6.67-48.35,22.24-84.06,27.53-90.37q2.6-15.55,5-30.46,2.07-12.55,4-24.66c44.51-276.19,48.08-384.42,37.18-420-.1-.33-.26-.84-.46-1.51,0-.22-.12-.46-.2-.72l0-.15c-.09-.33-.18-.67-.27-1a.32.32,0,0,0,0-.09q-.06-.23-.12-.48c-.06-.24-.12-.5-.19-.75s-.12-.53-.19-.82-.09-.38-.13-.57c-.14-.63-.28-1.29-.42-2-.1-.52-.21-1.08-.31-1.65,0-.26-.09-.54-.14-.82-.1-.59-.19-1.22-.28-1.86s-.18-1.26-.26-1.94-.16-1.42-.23-2.18c-.05-.52-.1-1.06-.13-1.6,0-.36,0-.73-.08-1.12,0,0,0-.11,0-.17,0-.41,0-.82-.05-1.23s0-.85,0-1.27,0-.77,0-1.17a81.61,81.61,0,0,1,.39-9.31c4.75-47.32,52.19-95.36,86.23-89.28,34.22,6.13,49,65.95,57.11,98.52,34.23,138.15-23.57,313.36-83.89,446.62-12.41,27.43-24.93,53.07-36.78,76.25l-.46.88A150,150,0,0,1,1200.79,1461.26Z"/><path class="cls-5" d="M1497.6,1265.1a273.45,273.45,0,0,1,41.64,37c40.17,43.3,60.79,89.76,46.07,103.77-13.32,12.69-51-5.52-87.8-41.16,6.15,47.06-.64,84.52-17.52,88.24-15,3.31-33.73-21.14-47.28-58.62-16.18,37.38-36.87,61.21-51.86,56.81-19.41-5.7-21.89-56.58-5.56-113.66.69-2.4,1.4-4.78,2.14-7.12-.69,0-1.38,0-2.06,0-53.26,17.54-107.53,19.11-173,17.2,60.32-133.26,118.12-308.47,83.89-446.62-8.08-32.57-22.89-92.39-57.11-98.52-34-6.08-81.48,42-86.23,89.28a81.61,81.61,0,0,0-.39,9.31c0,.4,0,.79,0,1.17s0,.85,0,1.27,0,.82.05,1.23c0,.06,0,.12,0,.17,0,.39,0,.76.08,1.12,0,.54.08,1.08.13,1.6.07.76.14,1.47.23,2.18s.16,1.31.26,1.94.18,1.27.28,1.86c0,.28.09.56.14.82.1.57.21,1.13.31,1.65.14.71.28,1.37.42,2,0,.19.08.38.13.57s.14.55.19.82.13.51.19.75.08.33.12.48a.32.32,0,0,1,0,.09c.09.37.18.71.27,1l0,.15c.08.26.15.5.2.72.2.67.36,1.18.46,1.51,10.9,35.55,7.33,143.78-37.18,420-24.57-.82-50.73-1.42-78.8-1.42-97.58,0-181.09,0-244.53,47.75-68.14-197.65-99.88-311.39-111-374.8-4.77-27-5.82-44.87-4.35-56.21A82.27,82.27,0,0,0,668,926.94c-12.65-45.8-67.47-85-100-73.08-32.68,11.94-37.22,73.45-39.7,106.93-12.65,171.28,115.63,372.54,206.89,494.39q-9.63,10.89-20.42,21.83c-62.45,63.27-127.76,99.7-145.85,81.37-16.44-16.65,11.73-72.78,63.87-130.35-87.31-41.79-187.73-126.76-251.95-213-107.69-144.67-131.11-310.75-52.32-371,43.09-32.9,107.82-27.34,175.24,8.13a162.37,162.37,0,0,1-15.12-67.72c0-76.73,56.61-146.21,148.18-196.6a315.67,315.67,0,0,1-5.86-61c0-119.7,65.27-216.75,145.79-216.75,76.47,0,139.18,87.5,145.31,198.83,24.41-2,49.39-3,74.8-3h.68c7.08-109.88,69.35-195.82,145.1-195.82,80.52,0,145.8,97.05,145.8,216.75,0,9.24-.39,18.35-1.15,27.27,0,.57-.09,1.13-.14,1.69a553.18,553.18,0,0,1,72.49,33.6l.22.13a557.07,557.07,0,0,1,55.4,36.78,549,549,0,0,1,56.43,48.9c1.41,1.39,2.81,2.81,4.2,4.21,3-2.58,6.09-5.06,9.16-7.46,52.57-41.2,107.56-56.85,152.68-37.27,90.7,39.38,107.13,206.31,36.68,372.86-29.33,69.33-74.83,142.79-124.51,202.11A609.73,609.73,0,0,1,1497.6,1265.1Z"/><path class="cls-5" d="M1326.32,1024.87a456.23,456.23,0,0,1,15.56-123.66C1366.46,810,1471,685.57,1478.62,678.56"/><path class="cls-5" d="M679,1038.34c16.56-49.85,42.64-80,62.16-97.48,90.14-80.94,340.86-84,409.31-9.39"/></svg>