<svg id="Layer_1" data-name="Layer 1" xmlns="http://www.w3.org/2000/svg" viewBox="0 0 2000 2000"><defs><style>.cls-1{fill:#009245;}.cls-2,.cls-4{fill:#fff;}.cls-2,.cls-3,.cls-5{stroke:#000;stroke-miterlimit:10;stroke-width:5px;}.cls-5{fill:none;}</style></defs><polygon class="cls-1" points="514.96 1412.4 1497.6 1325.47 1526.36 1349.39 1545.05 1368.94 1557.22 1383.71 1573.18 1406.95 1581.6 1422.61 1587.42 1437.45 1589.93 1455.5 1585.31 1466.25 1573.02 1470.27 1558.88 1467.38 1530.47 1452.28 1509.4 1435.97 1497.51 1425.09 1499.65 1451.5 1498.08 1481.44 1489.64 1506.22 1485.07 1510.99 1479.99 1513.33 1465.34 1508.92 1446.03 1484.46 1432.71 1454.71 1426.06 1468.82 1408.31 1496.5 1398.15 1506.46 1380.85 1511.52 1370.5 1501.57 1364.93 1478.03 1365.3 1449.89 1368.23 1428.19 1377.43 1390.73 1330.56 1401.94 1258.47 1408.4 1202.37 1407.96 1165.59 1484.2 1192.97 1511.24 1207.83 1532.87 1223.1 1571.09 1183.94 1559.87 1158.82 1536.01 1156.85 1592.6 1153.26 1598.09 1145.02 1593.79 1115.29 1543.16 1118.35 1571.45 1116.17 1595.71 1108.65 1606.71 1093.45 1600.78 1080.01 1577.43 1072.4 1550 1071.41 1523.92 1076.31 1503.36 1099.93 1459.63 1108.98 1404.51 960.16 1403.83 911.85 1406.97 855.71 1417.21 811.56 1434.46 785.65 1450.85 795.74 1479.99 810.68 1495.16 825.78 1517.82 835.41 1543.86 838.13 1572.96 833.76 1598.04 825.88 1617.95 811.89 1626.42 799.25 1607.13 795.77 1589.01 793.99 1570.27 786.88 1593.06 777.18 1614.54 766.49 1625.63 759.78 1613.51 755.95 1593.97 750.56 1565.42 738.03 1585.05 725.57 1596.7 706.78 1607.13 693.14 1611.09 697.42 1584.9 706.79 1558.49 714.76 1537.38 677.13 1572.07 637.58 1601.26 607.1 1617.51 577.63 1623.49 564.7 1610.21 568.1 1585.49 589.93 1543.26 632.78 1488.39 611.58 1475.95 581.13 1459.68 556.87 1443.66 514.96 1412.4"/><path class="cls-2" d="M1415.25,686.67a557.16,557.16,0,0,0-55.4-36.79A415.17,415.17,0,0,1,1415.25,686.67Z"/><path class="cls-2" d="M1359.63,649.76a554.5,554.5,0,0,0-72.49-33.61c0-.55.11-1.11.14-1.68A559.62,559.62,0,0,1,1359.63,649.76Z"/><ellipse class="cls-2" cx="777" cy="588.2" rx="113.83" ry="176.31"/><ellipse class="cls-2" cx="1139.57" cy="588.2" rx="113.83" ry="176.31"/><ellipse class="cls-3" cx="777" cy="642.68" rx="66.36" ry="99.07"/><ellipse class="cls-3" cx="1139.57" cy="642.68" rx="66.36" ry="99.07"/><ellipse class="cls-4" cx="796.12" cy="595.1" rx="19.12" ry="19.37"/><ellipse class="cls-4" cx="1164.82" cy="595.1" rx="19.12" ry="19.37"/><path class="cls-5" d="M865.27,813.92c25.56,100.47,160.47,103,176.38-1.58"/><path class="cls-5" d="M825.88,1618c-6.64,8-11.2,8.94-14,8.47-14.54-2.39-17.48-48.56-17.91-56.15q-17.93,56.77-27.5,55.36-4.14-.6-6.71-12.12-3-15.23-6-30.66-1.65-8.74-3.26-17.43a80.81,80.81,0,0,1-25,31.28,79.32,79.32,0,0,1-32.42,14.39,152.22,152.22,0,0,1,42.63-94.76l-.59-.79c-91.26-121.84-219.54-323.11-206.89-494.38,2.48-33.48,7-95,39.7-106.93,32.52-11.88,87.34,27.27,100,73.08a82.27,82.27,0,0,1,2.27,32.53c-1.47,11.34-.42,29.21,4.35,56.21,11.17,63.41,42.91,177.14,111,374.8q4.9,14.26,10.09,29.14c6.28,5.31,40.78,35.51,42.34,84.29A111.39,111.39,0,0,1,825.88,1618Z"/><path class="cls-5" d="M1200.79,1521.63a152.53,152.53,0,0,1,22.31,49.46,79,79,0,0,1-34.38-8.57,80.36,80.36,0,0,1-29.9-26.51c-.07,5.89-.17,11.81-.27,17.74q-.3,15.7-.71,31.24-.61,11.8-4.58,13.1-9.19,3-36.41-49.8c.85,7.55,5.73,53.56-8.2,58.43-2.66.94-7.31.81-15.2-5.94a110.75,110.75,0,0,1-21-50.78c-6.67-48.34,22.24-84,27.53-90.37q2.6-15.54,5-30.45,2.07-12.56,4-24.67c44.51-276.18,48.08-384.42,37.18-420-.1-.32-.26-.83-.46-1.51,0-.22-.12-.45-.2-.72a1.31,1.31,0,0,1,0-.15c-.09-.32-.18-.66-.27-1a.32.32,0,0,0,0-.09c0-.15-.08-.32-.12-.48s-.12-.5-.19-.75-.12-.54-.19-.83-.09-.37-.13-.57c-.14-.62-.28-1.28-.42-2-.1-.52-.21-1.08-.31-1.65,0-.27-.09-.55-.14-.82-.1-.6-.19-1.22-.28-1.86s-.18-1.27-.26-1.94-.16-1.43-.23-2.18c-.05-.52-.1-1.06-.13-1.6,0-.36,0-.73-.08-1.12,0-.06,0-.11,0-.17,0-.41,0-.83-.05-1.23s0-.85,0-1.27,0-.78,0-1.17a81.52,81.52,0,0,1,.39-9.31c4.75-47.32,52.19-95.36,86.23-89.28,34.22,6.13,49,65.95,57.11,98.52,34.23,138.15-23.57,313.36-83.89,446.62-12.41,27.43-24.93,53.07-36.78,76.25l-.46.88A149.85,149.85,0,0,1,1200.79,1521.63Z"/><path class="cls-5" d="M1497.6,1325.47a273.89,273.89,0,0,1,41.64,37c40.17,43.31,60.79,89.77,46.07,103.78-13.32,12.69-51-5.53-87.8-41.16,6.15,47.06-.64,84.52-17.52,88.24-15,3.3-33.73-21.14-47.28-58.62-16.18,37.38-36.87,61.2-51.86,56.81-19.41-5.7-21.89-56.59-5.56-113.66.69-2.4,1.4-4.78,2.14-7.12-.69,0-1.38,0-2.06,0-53.26,17.54-107.53,19.1-173,17.2,60.32-133.26,118.12-308.47,83.89-446.62-8.08-32.57-22.89-92.39-57.11-98.52-34-6.08-81.48,42-86.23,89.28a81.52,81.52,0,0,0-.39,9.31c0,.39,0,.79,0,1.17s0,.85,0,1.27,0,.82.05,1.23c0,.06,0,.11,0,.17,0,.39,0,.76.08,1.12,0,.54.08,1.08.13,1.6.07.75.14,1.47.23,2.18s.16,1.31.26,1.94.18,1.26.28,1.86c0,.27.09.55.14.82.1.57.21,1.13.31,1.65.14.71.28,1.37.42,2,0,.2.08.39.13.57s.14.56.19.83.13.51.19.75.08.33.12.48a.32.32,0,0,1,0,.09c.09.37.18.71.27,1a1.31,1.31,0,0,0,0,.15c.08.27.15.5.2.72.2.68.36,1.19.46,1.51,10.9,35.55,7.33,143.79-37.18,420-24.57-.81-50.73-1.41-78.8-1.41-97.58,0-181.09,0-244.53,47.75-68.14-197.66-99.88-311.39-111-374.8-4.77-27-5.82-44.87-4.35-56.21A82.27,82.27,0,0,0,668,987.31c-12.65-45.81-67.47-85-100-73.08-32.68,11.94-37.22,73.45-39.7,106.93-12.65,171.27,115.63,372.54,206.89,494.38q-9.63,10.9-20.42,21.84c-62.45,63.26-127.76,99.7-145.85,81.37-16.44-16.65,11.73-72.78,63.87-130.35-87.31-41.79-187.73-126.76-251.95-213C273.14,1130.7,249.72,964.61,328.51,904.42c43.09-32.9,107.82-27.34,175.24,8.13a162.44,162.44,0,0,1-15.12-67.72c0-76.73,56.61-146.21,148.18-196.61a315.6,315.6,0,0,1-5.86-61c0-119.7,65.27-216.74,145.79-216.74,76.47,0,139.18,87.5,145.31,198.82,24.41-2,49.39-3,74.8-3h.68c7.08-109.88,69.35-195.82,145.1-195.82,80.52,0,145.8,97,145.8,216.74,0,9.24-.39,18.35-1.15,27.28,0,.57-.09,1.13-.14,1.68a554.5,554.5,0,0,1,72.49,33.61,1.55,1.55,0,0,0,.22.12,557.16,557.16,0,0,1,55.4,36.79,548.86,548.86,0,0,1,56.43,48.89q2.11,2.1,4.2,4.22c3-2.58,6.09-5.06,9.16-7.47,52.57-41.19,107.56-56.85,152.68-37.26,90.7,39.38,107.13,206.31,36.68,372.85-29.33,69.34-74.83,142.8-124.51,202.11A608.58,608.58,0,0,1,1497.6,1325.47Z"/><path class="cls-5" d="M1475.88,739.78c-37.05,34.21-105.82,107.85-136.74,222.65a456.23,456.23,0,0,0-15.56,123.66"/><path class="cls-5" d="M679,1098.71c16.56-49.85,42.64-80,62.16-97.48,90.14-80.94,340.86-84,409.31-9.4"/></svg>