<svg id="Layer_1" data-name="Layer 1" xmlns="http://www.w3.org/2000/svg" viewBox="0 0 2000 2000"><defs><style>.cls-1{fill:#009245;}.cls-2,.cls-4{fill:#fff;}.cls-2,.cls-3,.cls-5{stroke:#000;stroke-miterlimit:10;stroke-width:5px;}.cls-5{fill:none;}</style></defs><polygon class="cls-1" points="533.18 1394.11 1563.27 1350.64 1575.44 1365.42 1591.39 1388.65 1599.82 1404.31 1605.64 1419.15 1608.15 1437.2 1603.52 1447.95 1591.24 1451.98 1577.1 1449.08 1548.68 1433.99 1527.62 1417.68 1515.73 1406.8 1517.87 1433.21 1516.3 1463.14 1507.86 1487.92 1503.29 1492.7 1498.21 1495.03 1483.56 1490.63 1464.25 1466.17 1450.92 1436.42 1444.28 1450.53 1426.53 1478.2 1416.36 1488.17 1399.07 1493.22 1388.72 1483.28 1383.15 1459.73 1383.51 1431.59 1386.45 1409.9 1395.64 1372.44 1348.77 1383.64 1276.69 1390.1 1220.59 1389.66 1183.81 1465.91 1211.18 1492.95 1226.05 1514.58 1241.31 1552.8 1202.16 1541.57 1177.04 1517.71 1175.07 1574.3 1171.48 1579.8 1163.23 1575.49 1133.51 1524.86 1136.57 1553.16 1134.39 1577.42 1126.87 1588.42 1111.66 1582.49 1098.23 1559.13 1090.62 1531.71 1089.62 1505.62 1094.53 1485.06 1118.15 1441.34 1127.2 1386.22 978.38 1385.53 930.07 1388.68 873.92 1398.91 829.78 1416.16 803.87 1432.55 813.96 1461.7 828.9 1476.86 844 1499.53 853.63 1525.56 856.35 1554.67 851.98 1579.74 844.1 1599.65 830.11 1608.13 817.47 1588.84 813.99 1570.72 812.21 1551.97 805.1 1574.76 795.4 1596.24 784.71 1607.34 777.99 1595.21 774.17 1575.67 768.78 1547.12 756.25 1566.75 743.78 1578.4 725 1588.84 711.36 1592.8 715.64 1566.6 725 1540.19 732.98 1519.08 695.35 1553.78 655.8 1582.96 625.32 1599.21 595.85 1605.2 582.91 1591.91 586.32 1567.2 608.14 1524.96 651 1470.1 629.8 1457.65 599.35 1441.39 575.09 1425.37 533.18 1394.11"/><polygon class="cls-1" points="1516.32 1307.08 1563.27 1350.64 533.18 1394.11 465.04 1332.38 434.27 1299.6 399.55 1256.97 386.8 1239.18 1617.58 1186.62 1568.62 1251.62 1516.32 1307.08"/><path class="cls-2" d="M1434,668.27a555.91,555.91,0,0,0-55.4-36.78A415.45,415.45,0,0,1,1434,668.27Z"/><path class="cls-2" d="M1378.36,631.36a555.93,555.93,0,0,0-72.5-33.6c.05-.56.11-1.11.14-1.68A559.69,559.69,0,0,1,1378.36,631.36Z"/><ellipse class="cls-2" cx="795.72" cy="569.8" rx="113.83" ry="176.31"/><ellipse class="cls-2" cx="1158.29" cy="569.8" rx="113.83" ry="176.31"/><ellipse class="cls-3" cx="795.72" cy="624.29" rx="66.36" ry="99.07"/><ellipse class="cls-3" cx="1158.29" cy="624.29" rx="66.36" ry="99.07"/><ellipse class="cls-4" cx="814.84" cy="576.71" rx="19.12" ry="19.37"/><ellipse class="cls-4" cx="1183.55" cy="576.71" rx="19.12" ry="19.37"/><path class="cls-5" d="M884,795.53c25.55,100.46,160.46,103,176.37-1.58"/><path class="cls-5" d="M844.61,1599.56c-6.65,8-11.21,8.93-14,8.47-14.54-2.39-17.47-48.56-17.91-56.15q-17.93,56.77-27.5,55.36c-2.76-.41-5-4.44-6.71-12.13q-3-15.21-6-30.65-1.65-8.74-3.25-17.44a80.85,80.85,0,0,1-25,31.29,79.54,79.54,0,0,1-32.43,14.39,153,153,0,0,1,13.65-52.6,151.3,151.3,0,0,1,29-42.16l-.6-.79C662.64,1375.3,534.37,1174,547,1002.77c2.47-33.49,7-95,39.7-106.93,32.51-11.88,87.33,27.27,100,73.07a82.11,82.11,0,0,1,2.27,32.54c-1.46,11.34-.42,29.21,4.36,56.21,11.17,63.41,42.9,177.14,111,374.79q4.92,14.28,10.09,29.15c6.28,5.3,40.78,35.5,42.34,84.29A111.32,111.32,0,0,1,844.61,1599.56Z"/><path class="cls-5" d="M1219.51,1503.23a152.56,152.56,0,0,1,22.31,49.47,79,79,0,0,1-34.37-8.58,80.32,80.32,0,0,1-29.91-26.51c-.07,5.9-.17,11.82-.27,17.75q-.3,15.71-.71,31.23-.6,11.81-4.57,13.11-9.2,3-36.41-49.81c.84,7.56,5.72,53.57-8.21,58.43-2.66.94-7.31.81-15.2-5.93a110.86,110.86,0,0,1-21.05-50.78c-6.67-48.34,22.24-84.06,27.53-90.37q2.6-15.54,5-30.46,2.07-12.54,4-24.66c44.52-276.19,48.08-384.42,37.18-420-.1-.33-.26-.84-.45-1.51-.06-.22-.13-.45-.21-.72a.53.53,0,0,0,0-.15c-.09-.32-.18-.66-.27-1a.36.36,0,0,0,0-.1c-.05-.15-.09-.31-.13-.47l-.18-.76c-.06-.26-.13-.53-.2-.82s-.09-.37-.12-.57c-.14-.63-.29-1.29-.43-2-.1-.52-.21-1.07-.31-1.64,0-.27-.09-.55-.14-.83-.1-.59-.19-1.22-.28-1.85s-.17-1.27-.25-1.94-.16-1.43-.23-2.19c-.06-.52-.11-1.05-.14-1.6,0-.36,0-.73-.08-1.11,0-.06,0-.12,0-.18,0-.4-.05-.82-.06-1.23s0-.84,0-1.26,0-.78,0-1.17a83.78,83.78,0,0,1,.39-9.31c4.76-47.32,52.19-95.36,86.23-89.28,34.22,6.13,49,66,57.11,98.52,34.24,138.14-23.56,313.36-83.89,446.62-12.41,27.42-24.93,53.06-36.78,76.24-.16.3-.3.59-.45.88A149.84,149.84,0,0,1,1219.51,1503.23Z"/><path class="cls-5" d="M1516.32,1307.08a272.88,272.88,0,0,1,41.64,37c40.17,43.3,60.79,89.77,46.07,103.78-13.31,12.68-51-5.53-87.8-41.16,6.15,47-.64,84.52-17.52,88.23-15,3.31-33.73-21.13-47.28-58.61-16.18,37.37-36.87,61.2-51.86,56.8-19.4-5.7-21.89-56.58-5.55-113.65.68-2.4,1.4-4.78,2.13-7.13-.69,0-1.38,0-2.05,0-53.27,17.53-107.54,19.1-173,17.2,60.33-133.26,118.13-308.48,83.89-446.62-8.07-32.57-22.89-92.39-57.11-98.52-34-6.08-81.47,42-86.23,89.28a83.78,83.78,0,0,0-.39,9.31c0,.39,0,.79,0,1.17s0,.85,0,1.26,0,.83.06,1.23c0,.06,0,.12,0,.18,0,.38,0,.75.08,1.11,0,.55.08,1.08.14,1.6.07.76.13,1.48.23,2.19s.16,1.31.25,1.94.18,1.26.28,1.85c.05.28.1.56.14.83.1.57.21,1.12.31,1.64.14.71.29,1.37.43,2,0,.2.08.38.12.57s.14.56.2.82l.18.76c0,.16.08.32.13.47a.36.36,0,0,1,0,.1c.09.37.18.71.27,1a.53.53,0,0,1,0,.15c.08.27.15.5.21.72.19.67.35,1.18.45,1.51,10.9,35.55,7.34,143.78-37.18,420-24.57-.81-50.73-1.42-78.8-1.42-97.58,0-181.09,0-244.53,47.75-68.14-197.65-99.87-311.38-111-374.79-4.78-27-5.82-44.87-4.36-56.21a82.11,82.11,0,0,0-2.27-32.54c-12.65-45.8-67.47-84.95-100-73.07C554,907.78,549.49,969.28,547,1002.77,534.37,1174,662.64,1375.3,753.9,1497.15q-9.63,10.9-20.42,21.83c-62.45,63.27-127.76,99.71-145.85,81.38-16.44-16.66,11.73-72.79,63.88-130.36-87.32-41.78-187.74-126.76-252-213C291.86,1112.3,268.44,946.22,347.24,886c43.09-32.91,107.81-27.35,175.23,8.12a162.36,162.36,0,0,1-15.12-67.71c0-76.73,56.61-146.21,148.18-196.61a315.6,315.6,0,0,1-5.86-61c0-119.7,65.28-216.74,145.8-216.74,76.46,0,139.17,87.5,145.3,198.82,24.41-2,49.39-3,74.8-3h.68c7.08-109.88,69.35-195.81,145.1-195.81,80.53,0,145.8,97,145.8,216.74,0,9.24-.39,18.35-1.15,27.28,0,.57-.09,1.12-.14,1.68a555.93,555.93,0,0,1,72.5,33.6.74.74,0,0,0,.21.13,555.91,555.91,0,0,1,55.4,36.78,550.29,550.29,0,0,1,56.44,48.9c1.41,1.39,2.8,2.81,4.19,4.21q4.58-3.86,9.17-7.46c52.56-41.19,107.56-56.85,152.68-37.27,90.69,39.38,107.12,206.31,36.67,372.86-29.33,69.34-74.83,142.8-124.51,202.11A608.58,608.58,0,0,1,1516.32,1307.08Z"/><path class="cls-5" d="M1494.6,721.38c-37,34.21-105.81,107.86-136.74,222.66a456.61,456.61,0,0,0-15.56,123.65"/><path class="cls-5" d="M697.75,1080.31c16.57-49.85,42.64-79.95,62.16-97.48,90.14-80.93,340.86-84,409.31-9.39"/></svg>