<svg id="Layer_1" data-name="Layer 1" xmlns="http://www.w3.org/2000/svg" viewBox="0 0 120 120"><defs><style>.cls-1{fill:#6fc997;}.cls-2{fill:#009245;}.cls-3{fill:#fff;}.cls-4,.cls-7{fill:none;stroke-miterlimit:10;}.cls-4{stroke:#000;stroke-width:0.75px;}.cls-5{fill:#8cc63f;}.cls-6{fill:#39b54a;}.cls-7{stroke:#006837;stroke-width:0.5px;}</style></defs><rect class="cls-1" x="-0.18" width="120" height="120" rx="10.44"/><path class="cls-2" d="M106.48,64.83C106.92,78.72,87.31,93.19,65,93.19S24.42,78.71,23.58,64.83C21.25,26.53,56.13,55.18,66,39.67,75.42,25,105.76,42.36,106.48,64.83Z"/><ellipse class="cls-2" cx="56.9" cy="47.41" rx="33.12" ry="17.5"/><ellipse class="cls-2" cx="45.54" cy="31.42" rx="9.96" ry="14.37"/><ellipse class="cls-2" cx="69.78" cy="31.42" rx="9.96" ry="14.37"/><ellipse class="cls-3" cx="45.54" cy="29.92" rx="7.85" ry="11"/><ellipse class="cls-3" cx="69.78" cy="29.92" rx="7.85" ry="11"/><ellipse cx="45.54" cy="33.54" rx="4.75" ry="6.12"/><ellipse cx="69.78" cy="33.54" rx="4.75" ry="6.12"/><circle class="cls-3" cx="46.78" cy="30.18" r="1.23"/><circle class="cls-3" cx="71.01" cy="29.92" r="1.23"/><path class="cls-4" d="M49.88,47.41c1.35,8.61,12.22,8.44,14,0"/><ellipse class="cls-2" cx="28.03" cy="70.47" rx="14.77" ry="22.97" transform="translate(-39.37 35.69) rotate(-41.02)"/><ellipse class="cls-2" cx="93.09" cy="64.91" rx="25.18" ry="15.1" transform="translate(-11.9 108.01) rotate(-57.21)"/><ellipse class="cls-2" cx="32.29" cy="89.07" rx="11.15" ry="3.1" transform="translate(-34.32 21.7) rotate(-24.75)"/><ellipse class="cls-2" cx="97.51" cy="86.27" rx="3.04" ry="8.17" transform="translate(-31.03 106.95) rotate(-50.64)"/><ellipse class="cls-2" cx="93.09" cy="88.19" rx="3.04" ry="8.17" transform="translate(-18.31 24.67) rotate(-13.76)"/><ellipse class="cls-2" cx="88.23" cy="89.07" rx="8.17" ry="3.04" transform="translate(-33.02 120.95) rotate(-60)"/><path class="cls-5" d="M84.27,78.41c4.08,16.32-15.54,16.11-24.45,15.43-14-1.07-25.2-7.77-22.94-16.14C39,69.83,47.15,61.55,59.82,61.55S82,69.45,84.27,78.41Z"/><path class="cls-6" d="M25.56,51.64c-2,.92-1.62,7.65-1.45,10.5.92,15.1,10.46,19.78,7.77,28.77-1.37,4.58-5.27,8.1-4.78,8.55s5.18-4.86,6.53-3.94c1.18.82-.91,6-.48,6.18s2.58-6.22,4.28-6.13c1.53.08,1.69,5.39,2.59,5.31s1.55-4.42,1.77-6.86a31.75,31.75,0,0,0,.05-5.42C41.09,80.48,29.91,49.68,25.56,51.64Z"/><path class="cls-6" d="M80.57,53.61c2.14.62,2.68,7.35,2.9,10.19,1.2,15.08-7.58,21-3.66,29.57,2,4.35,6.35,7.29,5.93,7.81s-5.81-4.09-7-3,1.74,5.85,1.33,6-3.43-5.8-5.1-5.48c-1.5.3-.92,5.58-1.82,5.63s-2.14-4.16-2.71-6.55C66.52,81.44,75.84,52.24,80.57,53.61Z"/><path class="cls-7" d="M87.6,56.34c1.46-6.61,4.42-9.54,7.8-12.59"/></svg>