<svg xmlns="http://www.w3.org/2000/svg" viewBox="0 0 1194.67 1194.67"><defs><style>.cls-1{fill:#662d91;}.cls-2{fill:none;}.cls-2,.cls-3,.cls-4{stroke:#000;stroke-miterlimit:10;}.cls-2,.cls-4{stroke-width:8px;}</style></defs><g id="Layer_2" data-name="Layer 2"><g id="Layer_1-2" data-name="Layer 1"><path class="cls-1" d="M1071.06,960.39a608,608,0,0,1-302.92,204.83A603.43,603.43,0,0,1,289,1105.44,609.51,609.51,0,0,1,136.79,977.28"/><circle class="cls-2" cx="597.33" cy="597.33" r="593.33"/><ellipse class="cls-3" cx="388.44" cy="527.25" rx="96.14" ry="122.66"/><ellipse class="cls-3" cx="766.09" cy="527.25" rx="96.14" ry="122.66"/><path class="cls-4" d="M378.8,957.63c-4.67-14.93,107.08-89.46,237.81-83.55,110.84,5,203.61,66.38,199.25,80.34-3.59,11.5-71.81-13.8-196-16.07C467.5,935.57,382.73,970.2,378.8,957.63Z"/></g></g></svg>