<svg xmlns="http://www.w3.org/2000/svg" viewBox="0 0 1194.67 1194.67"><defs><style>.cls-1{fill:#662d91;}.cls-2{fill:none;}.cls-2,.cls-3,.cls-4{stroke:#000;stroke-miterlimit:10;}.cls-2,.cls-4{stroke-width:8px;}</style></defs><g id="Layer_2" data-name="Layer 2"><g id="Layer_1-2" data-name="Layer 1"><path class="cls-1" d="M597.33,599.54h593.34c0,325.5-267.84,593.34-593.34,593.34S4,925,4,599.54v-2.21Z"/><circle class="cls-2" cx="597.33" cy="597.33" r="593.33"/><ellipse class="cls-3" cx="388.44" cy="527.25" rx="96.14" ry="122.66"/><ellipse class="cls-3" cx="766.09" cy="527.25" rx="96.14" ry="122.66"/><path class="cls-2" d="M938,394.67A258.21,258.21,0,0,1,719.45,288.9"/><path class="cls-2" d="M213.72,404.59A258.17,258.17,0,0,0,432.25,298.83"/><path class="cls-4" d="M378.8,957.63c-4.67-14.93,107.08-89.46,237.81-83.55,110.84,5,203.61,66.38,199.25,80.34-3.59,11.5-71.81-13.8-196-16.07C467.5,935.57,382.73,970.2,378.8,957.63Z"/><path class="cls-2" d="M213.72,688.65a78.18,78.18,0,1,1-156.35,0c0-18.79,5.84-36,16.89-49.52h0L135.54,533l61.28,106.15h0C207.87,652.62,213.72,669.86,213.72,688.65Z"/></g></g></svg>